<svg xmlns="http://www.w3.org/2000/svg" xmlns:xlink="http://www.w3.org/1999/xlink" width="290" zoomAndPan="magnify" viewBox="0 0 217.5 112.499997" height="150" preserveAspectRatio="xMidYMid meet" version="1.0"><defs><g/><clipPath id="8e7c4b3160"><path d="M 1.824219 7.527344 L 99 7.527344 L 99 104.59375 L 1.824219 104.59375 Z M 1.824219 7.527344 " clip-rule="nonzero"/></clipPath><clipPath id="74f25bbed4"><path d="M 50.257812 104.550781 C 48.546875 104.554688 46.851562 104.390625 45.171875 104.058594 C 43.492188 103.722656 41.863281 103.230469 40.28125 102.574219 C 38.699219 101.917969 37.195312 101.113281 35.773438 100.160156 C 34.351562 99.207031 33.035156 98.125 31.824219 96.914062 L 9.429688 74.503906 C 8.828125 73.898438 8.257812 73.265625 7.71875 72.601562 C 7.179688 71.941406 6.675781 71.253906 6.203125 70.542969 C 5.730469 69.832031 5.292969 69.097656 4.894531 68.347656 C 4.492188 67.59375 4.128906 66.820312 3.804688 66.03125 C 3.476562 65.242188 3.191406 64.4375 2.945312 63.621094 C 2.699219 62.804688 2.492188 61.976562 2.328125 61.136719 C 2.160156 60.300781 2.035156 59.457031 1.953125 58.605469 C 1.871094 57.757812 1.828125 56.90625 1.828125 56.050781 C 1.828125 55.195312 1.871094 54.34375 1.953125 53.496094 C 2.035156 52.644531 2.160156 51.800781 2.328125 50.964844 C 2.492188 50.125 2.699219 49.300781 2.945312 48.480469 C 3.191406 47.664062 3.476562 46.859375 3.804688 46.070312 C 4.128906 45.28125 4.492188 44.511719 4.894531 43.757812 C 5.292969 43.003906 5.730469 42.269531 6.203125 41.558594 C 6.675781 40.847656 7.179688 40.160156 7.71875 39.5 C 8.257812 38.839844 8.828125 38.203125 9.429688 37.597656 L 31.824219 15.183594 C 32.429688 14.582031 33.0625 14.011719 33.722656 13.472656 C 34.386719 12.929688 35.070312 12.425781 35.78125 11.953125 C 36.492188 11.480469 37.222656 11.042969 37.976562 10.640625 C 38.730469 10.242188 39.5 9.878906 40.289062 9.550781 C 41.078125 9.226562 41.878906 8.941406 42.695312 8.691406 C 43.515625 8.445312 44.339844 8.238281 45.175781 8.074219 C 46.015625 7.90625 46.855469 7.78125 47.707031 7.699219 C 48.554688 7.617188 49.40625 7.574219 50.257812 7.574219 C 51.113281 7.574219 51.964844 7.617188 52.8125 7.699219 C 53.660156 7.78125 54.503906 7.90625 55.339844 8.074219 C 56.179688 8.238281 57.003906 8.445312 57.820312 8.691406 C 58.636719 8.941406 59.441406 9.226562 60.230469 9.550781 C 61.019531 9.878906 61.789062 10.242188 62.542969 10.640625 C 63.296875 11.042969 64.027344 11.480469 64.738281 11.953125 C 65.449219 12.425781 66.132812 12.929688 66.792969 13.472656 C 67.457031 14.011719 68.089844 14.582031 68.695312 15.183594 L 91.082031 37.597656 C 91.683594 38.203125 92.257812 38.835938 92.796875 39.496094 C 93.339844 40.160156 93.84375 40.84375 94.320312 41.554688 C 94.792969 42.265625 95.230469 43 95.632812 43.753906 C 96.035156 44.507812 96.398438 45.277344 96.722656 46.066406 C 97.050781 46.855469 97.335938 47.660156 97.585938 48.476562 C 97.832031 49.296875 98.039062 50.125 98.207031 50.960938 C 98.371094 51.800781 98.496094 52.644531 98.578125 53.496094 C 98.664062 54.34375 98.707031 55.195312 98.707031 56.050781 C 98.707031 56.90625 98.664062 57.757812 98.578125 58.609375 C 98.496094 59.457031 98.371094 60.300781 98.207031 61.140625 C 98.039062 61.976562 97.832031 62.804688 97.585938 63.625 C 97.335938 64.441406 97.050781 65.246094 96.722656 66.035156 C 96.398438 66.824219 96.035156 67.597656 95.632812 68.351562 C 95.230469 69.105469 94.792969 69.835938 94.320312 70.546875 C 93.84375 71.257812 93.339844 71.941406 92.796875 72.605469 C 92.257812 73.265625 91.683594 73.898438 91.082031 74.503906 L 68.695312 96.914062 C 67.484375 98.125 66.167969 99.207031 64.746094 100.160156 C 63.320312 101.113281 61.820312 101.917969 60.238281 102.574219 C 58.65625 103.230469 57.027344 103.722656 55.347656 104.058594 C 53.667969 104.390625 51.972656 104.554688 50.257812 104.550781 Z M 50.257812 10.984375 C 48.769531 10.976562 47.296875 11.117188 45.835938 11.402344 C 44.375 11.6875 42.957031 12.113281 41.582031 12.683594 C 40.207031 13.25 38.898438 13.949219 37.664062 14.773438 C 36.425781 15.601562 35.28125 16.542969 34.230469 17.597656 L 11.839844 40.007812 C 11.320312 40.53125 10.824219 41.082031 10.355469 41.660156 C 9.886719 42.234375 9.445312 42.832031 9.035156 43.449219 C 8.625 44.066406 8.246094 44.703125 7.898438 45.359375 C 7.550781 46.015625 7.234375 46.683594 6.953125 47.371094 C 6.671875 48.058594 6.421875 48.753906 6.207031 49.464844 C 5.996094 50.175781 5.816406 50.894531 5.671875 51.625 C 5.527344 52.351562 5.417969 53.085938 5.347656 53.824219 C 5.273438 54.5625 5.238281 55.300781 5.238281 56.042969 C 5.238281 56.785156 5.273438 57.527344 5.347656 58.265625 C 5.417969 59.003906 5.527344 59.738281 5.671875 60.464844 C 5.816406 61.191406 5.996094 61.910156 6.207031 62.621094 C 6.421875 63.332031 6.671875 64.03125 6.953125 64.71875 C 7.234375 65.402344 7.550781 66.074219 7.898438 66.730469 C 8.246094 67.382812 8.625 68.019531 9.035156 68.640625 C 9.445312 69.257812 9.886719 69.855469 10.355469 70.429688 C 10.824219 71.003906 11.320312 71.554688 11.839844 72.082031 L 34.230469 94.503906 C 34.753906 95.03125 35.304688 95.527344 35.878906 95.996094 C 36.453125 96.46875 37.046875 96.910156 37.664062 97.320312 C 38.28125 97.734375 38.917969 98.113281 39.574219 98.464844 C 40.226562 98.8125 40.898438 99.128906 41.582031 99.414062 C 42.269531 99.699219 42.964844 99.945312 43.675781 100.164062 C 44.386719 100.378906 45.105469 100.558594 45.832031 100.703125 C 46.5625 100.847656 47.292969 100.957031 48.03125 101.027344 C 48.769531 101.101562 49.511719 101.136719 50.253906 101.136719 C 50.992188 101.136719 51.734375 101.101562 52.472656 101.027344 C 53.210938 100.957031 53.945312 100.847656 54.671875 100.703125 C 55.398438 100.558594 56.117188 100.378906 56.828125 100.164062 C 57.539062 99.945312 58.234375 99.699219 58.921875 99.414062 C 59.605469 99.128906 60.277344 98.8125 60.929688 98.464844 C 61.585938 98.113281 62.222656 97.734375 62.839844 97.320312 C 63.457031 96.910156 64.050781 96.46875 64.625 95.996094 C 65.199219 95.527344 65.75 95.03125 66.273438 94.503906 L 88.667969 72.089844 C 89.191406 71.566406 89.691406 71.015625 90.160156 70.441406 C 90.628906 69.867188 91.070312 69.269531 91.480469 68.652344 C 91.894531 68.035156 92.273438 67.398438 92.625 66.742188 C 92.972656 66.085938 93.289062 65.417969 93.574219 64.730469 C 93.855469 64.042969 94.105469 63.34375 94.320312 62.632812 C 94.535156 61.925781 94.714844 61.203125 94.859375 60.476562 C 95.003906 59.746094 95.113281 59.015625 95.183594 58.273438 C 95.257812 57.535156 95.292969 56.796875 95.292969 56.050781 C 95.292969 55.308594 95.257812 54.570312 95.183594 53.832031 C 95.113281 53.089844 95.003906 52.359375 94.859375 51.628906 C 94.714844 50.902344 94.535156 50.179688 94.320312 49.46875 C 94.105469 48.761719 93.855469 48.0625 93.574219 47.375 C 93.289062 46.6875 92.972656 46.019531 92.625 45.363281 C 92.273438 44.707031 91.894531 44.070312 91.480469 43.453125 C 91.070312 42.835938 90.628906 42.238281 90.160156 41.664062 C 89.691406 41.089844 89.191406 40.539062 88.667969 40.015625 L 66.28125 17.597656 C 65.234375 16.542969 64.089844 15.601562 62.851562 14.773438 C 61.613281 13.949219 60.308594 13.25 58.933594 12.683594 C 57.558594 12.117188 56.140625 11.6875 54.679688 11.402344 C 53.21875 11.117188 51.746094 10.976562 50.257812 10.984375 Z M 50.257812 10.984375 " clip-rule="nonzero"/></clipPath><linearGradient x1="0.0170102" gradientTransform="matrix(0.284262, 0, 0, 0.284532, 1.823811, 7.569682)" y1="0.0170102" x2="340.837708" gradientUnits="userSpaceOnUse" y2="340.837708" id="3037a2e982"><stop stop-opacity="1" stop-color="rgb(19.198608%, 12.89978%, 27.49939%)" offset="0"/><stop stop-opacity="1" stop-color="rgb(19.198608%, 12.89978%, 27.49939%)" offset="0.125"/><stop stop-opacity="1" stop-color="rgb(19.198608%, 12.89978%, 27.49939%)" offset="0.1875"/><stop stop-opacity="1" stop-color="rgb(19.282532%, 12.911987%, 27.523804%)" offset="0.195313"/><stop stop-opacity="1" stop-color="rgb(19.880676%, 13.000488%, 27.697754%)" offset="0.199219"/><stop stop-opacity="1" stop-color="rgb(20.394897%, 13.076782%, 27.848816%)" offset="0.203125"/><stop stop-opacity="1" stop-color="rgb(20.909119%, 13.153076%, 27.998352%)" offset="0.207031"/><stop stop-opacity="1" stop-color="rgb(21.42334%, 13.230896%, 28.147888%)" offset="0.210938"/><stop stop-opacity="1" stop-color="rgb(21.937561%, 13.30719%, 28.297424%)" offset="0.214844"/><stop stop-opacity="1" stop-color="rgb(22.451782%, 13.383484%, 28.448486%)" offset="0.21875"/><stop stop-opacity="1" stop-color="rgb(22.964478%, 13.459778%, 28.598022%)" offset="0.222656"/><stop stop-opacity="1" stop-color="rgb(23.478699%, 13.537598%, 28.749084%)" offset="0.226563"/><stop stop-opacity="1" stop-color="rgb(23.99292%, 13.613892%, 28.898621%)" offset="0.230469"/><stop stop-opacity="1" stop-color="rgb(24.507141%, 13.690186%, 29.048157%)" offset="0.234375"/><stop stop-opacity="1" stop-color="rgb(25.021362%, 13.766479%, 29.197693%)" offset="0.238281"/><stop stop-opacity="1" stop-color="rgb(25.535583%, 13.844299%, 29.348755%)" offset="0.242188"/><stop stop-opacity="1" stop-color="rgb(26.049805%, 13.920593%, 29.498291%)" offset="0.246094"/><stop stop-opacity="1" stop-color="rgb(26.564026%, 13.996887%, 29.649353%)" offset="0.25"/><stop stop-opacity="1" stop-color="rgb(27.076721%, 14.073181%, 29.798889%)" offset="0.253906"/><stop stop-opacity="1" stop-color="rgb(27.590942%, 14.151001%, 29.949951%)" offset="0.257813"/><stop stop-opacity="1" stop-color="rgb(28.105164%, 14.227295%, 30.099487%)" offset="0.261719"/><stop stop-opacity="1" stop-color="rgb(28.619385%, 14.303589%, 30.249023%)" offset="0.265625"/><stop stop-opacity="1" stop-color="rgb(29.133606%, 14.379883%, 30.39856%)" offset="0.269531"/><stop stop-opacity="1" stop-color="rgb(29.647827%, 14.456177%, 30.549622%)" offset="0.273438"/><stop stop-opacity="1" stop-color="rgb(30.162048%, 14.532471%, 30.699158%)" offset="0.277344"/><stop stop-opacity="1" stop-color="rgb(30.67627%, 14.610291%, 30.85022%)" offset="0.28125"/><stop stop-opacity="1" stop-color="rgb(31.190491%, 14.686584%, 30.999756%)" offset="0.285156"/><stop stop-opacity="1" stop-color="rgb(31.704712%, 14.762878%, 31.149292%)" offset="0.289063"/><stop stop-opacity="1" stop-color="rgb(32.217407%, 14.839172%, 31.298828%)" offset="0.292969"/><stop stop-opacity="1" stop-color="rgb(32.731628%, 14.916992%, 31.44989%)" offset="0.296875"/><stop stop-opacity="1" stop-color="rgb(33.24585%, 14.993286%, 31.599426%)" offset="0.300781"/><stop stop-opacity="1" stop-color="rgb(33.760071%, 15.06958%, 31.750488%)" offset="0.304688"/><stop stop-opacity="1" stop-color="rgb(34.274292%, 15.145874%, 31.900024%)" offset="0.308594"/><stop stop-opacity="1" stop-color="rgb(34.788513%, 15.223694%, 32.049561%)" offset="0.3125"/><stop stop-opacity="1" stop-color="rgb(35.516357%, 15.419006%, 32.18689%)" offset="0.316406"/><stop stop-opacity="1" stop-color="rgb(36.244202%, 15.614319%, 32.324219%)" offset="0.320313"/><stop stop-opacity="1" stop-color="rgb(37.182617%, 15.927124%, 32.447815%)" offset="0.324219"/><stop stop-opacity="1" stop-color="rgb(38.121033%, 16.239929%, 32.572937%)" offset="0.328125"/><stop stop-opacity="1" stop-color="rgb(39.059448%, 16.552734%, 32.698059%)" offset="0.332031"/><stop stop-opacity="1" stop-color="rgb(39.99939%, 16.86554%, 32.823181%)" offset="0.335938"/><stop stop-opacity="1" stop-color="rgb(40.937805%, 17.178345%, 32.946777%)" offset="0.339844"/><stop stop-opacity="1" stop-color="rgb(41.876221%, 17.49115%, 33.071899%)" offset="0.34375"/><stop stop-opacity="1" stop-color="rgb(42.814636%, 17.803955%, 33.195496%)" offset="0.347656"/><stop stop-opacity="1" stop-color="rgb(43.754578%, 18.11676%, 33.320618%)" offset="0.351563"/><stop stop-opacity="1" stop-color="rgb(44.692993%, 18.429565%, 33.444214%)" offset="0.355469"/><stop stop-opacity="1" stop-color="rgb(45.631409%, 18.743896%, 33.569336%)" offset="0.359375"/><stop stop-opacity="1" stop-color="rgb(46.569824%, 19.056702%, 33.694458%)" offset="0.363281"/><stop stop-opacity="1" stop-color="rgb(47.50824%, 19.369507%, 33.81958%)" offset="0.367188"/><stop stop-opacity="1" stop-color="rgb(48.446655%, 19.682312%, 33.943176%)" offset="0.371094"/><stop stop-opacity="1" stop-color="rgb(49.386597%, 19.995117%, 34.068298%)" offset="0.375"/><stop stop-opacity="1" stop-color="rgb(50.325012%, 20.307922%, 34.191895%)" offset="0.378906"/><stop stop-opacity="1" stop-color="rgb(51.263428%, 20.620728%, 34.317017%)" offset="0.382813"/><stop stop-opacity="1" stop-color="rgb(52.201843%, 20.933533%, 34.440613%)" offset="0.386719"/><stop stop-opacity="1" stop-color="rgb(53.141785%, 21.246338%, 34.565735%)" offset="0.390625"/><stop stop-opacity="1" stop-color="rgb(54.0802%, 21.559143%, 34.689331%)" offset="0.394531"/><stop stop-opacity="1" stop-color="rgb(55.018616%, 21.871948%, 34.814453%)" offset="0.398438"/><stop stop-opacity="1" stop-color="rgb(55.957031%, 22.184753%, 34.939575%)" offset="0.402344"/><stop stop-opacity="1" stop-color="rgb(56.895447%, 22.497559%, 35.064697%)" offset="0.40625"/><stop stop-opacity="1" stop-color="rgb(57.833862%, 22.810364%, 35.188293%)" offset="0.410156"/><stop stop-opacity="1" stop-color="rgb(58.773804%, 23.124695%, 35.313416%)" offset="0.414063"/><stop stop-opacity="1" stop-color="rgb(59.712219%, 23.4375%, 35.437012%)" offset="0.417969"/><stop stop-opacity="1" stop-color="rgb(60.650635%, 23.750305%, 35.562134%)" offset="0.421875"/><stop stop-opacity="1" stop-color="rgb(61.58905%, 24.06311%, 35.68573%)" offset="0.425781"/><stop stop-opacity="1" stop-color="rgb(62.528992%, 24.375916%, 35.810852%)" offset="0.429688"/><stop stop-opacity="1" stop-color="rgb(63.467407%, 24.688721%, 35.934448%)" offset="0.433594"/><stop stop-opacity="1" stop-color="rgb(64.405823%, 25.001526%, 36.05957%)" offset="0.4375"/><stop stop-opacity="1" stop-color="rgb(65.333557%, 25.314331%, 36.174011%)" offset="0.441406"/><stop stop-opacity="1" stop-color="rgb(66.261292%, 25.627136%, 36.288452%)" offset="0.445313"/><stop stop-opacity="1" stop-color="rgb(67.1875%, 25.939941%, 36.399841%)" offset="0.449219"/><stop stop-opacity="1" stop-color="rgb(68.113708%, 26.252747%, 36.51123%)" offset="0.453125"/><stop stop-opacity="1" stop-color="rgb(69.039917%, 26.565552%, 36.62262%)" offset="0.457031"/><stop stop-opacity="1" stop-color="rgb(69.966125%, 26.878357%, 36.735535%)" offset="0.460938"/><stop stop-opacity="1" stop-color="rgb(70.890808%, 27.191162%, 36.846924%)" offset="0.464844"/><stop stop-opacity="1" stop-color="rgb(71.817017%, 27.505493%, 36.958313%)" offset="0.46875"/><stop stop-opacity="1" stop-color="rgb(72.743225%, 27.818298%, 37.069702%)" offset="0.472656"/><stop stop-opacity="1" stop-color="rgb(73.669434%, 28.131104%, 37.181091%)" offset="0.476563"/><stop stop-opacity="1" stop-color="rgb(74.595642%, 28.443909%, 37.29248%)" offset="0.480469"/><stop stop-opacity="1" stop-color="rgb(75.521851%, 28.756714%, 37.405396%)" offset="0.484375"/><stop stop-opacity="1" stop-color="rgb(76.446533%, 29.069519%, 37.516785%)" offset="0.488281"/><stop stop-opacity="1" stop-color="rgb(77.372742%, 29.382324%, 37.628174%)" offset="0.492188"/><stop stop-opacity="1" stop-color="rgb(78.29895%, 29.695129%, 37.739563%)" offset="0.496094"/><stop stop-opacity="1" stop-color="rgb(79.225159%, 30.007935%, 37.852478%)" offset="0.5"/><stop stop-opacity="1" stop-color="rgb(80.151367%, 30.32074%, 37.963867%)" offset="0.503906"/><stop stop-opacity="1" stop-color="rgb(81.077576%, 30.633545%, 38.075256%)" offset="0.507813"/><stop stop-opacity="1" stop-color="rgb(82.002258%, 30.94635%, 38.186646%)" offset="0.511719"/><stop stop-opacity="1" stop-color="rgb(82.928467%, 31.259155%, 38.299561%)" offset="0.515625"/><stop stop-opacity="1" stop-color="rgb(83.854675%, 31.57196%, 38.41095%)" offset="0.519531"/><stop stop-opacity="1" stop-color="rgb(84.780884%, 31.884766%, 38.522339%)" offset="0.523438"/><stop stop-opacity="1" stop-color="rgb(85.707092%, 32.197571%, 38.633728%)" offset="0.527344"/><stop stop-opacity="1" stop-color="rgb(86.633301%, 32.511902%, 38.746643%)" offset="0.53125"/><stop stop-opacity="1" stop-color="rgb(87.557983%, 32.824707%, 38.858032%)" offset="0.535156"/><stop stop-opacity="1" stop-color="rgb(88.484192%, 33.137512%, 38.969421%)" offset="0.539063"/><stop stop-opacity="1" stop-color="rgb(89.4104%, 33.450317%, 39.080811%)" offset="0.542969"/><stop stop-opacity="1" stop-color="rgb(90.336609%, 33.763123%, 39.193726%)" offset="0.546875"/><stop stop-opacity="1" stop-color="rgb(91.262817%, 34.075928%, 39.305115%)" offset="0.550781"/><stop stop-opacity="1" stop-color="rgb(92.189026%, 34.388733%, 39.416504%)" offset="0.554688"/><stop stop-opacity="1" stop-color="rgb(92.955017%, 34.725952%, 39.39209%)" offset="0.558594"/><stop stop-opacity="1" stop-color="rgb(93.722534%, 35.064697%, 39.369202%)" offset="0.5625"/><stop stop-opacity="1" stop-color="rgb(93.786621%, 35.514832%, 38.742065%)" offset="0.566406"/><stop stop-opacity="1" stop-color="rgb(93.850708%, 35.964966%, 38.116455%)" offset="0.570313"/><stop stop-opacity="1" stop-color="rgb(93.914795%, 36.4151%, 37.490845%)" offset="0.574219"/><stop stop-opacity="1" stop-color="rgb(93.978882%, 36.865234%, 36.865234%)" offset="0.578125"/><stop stop-opacity="1" stop-color="rgb(94.041443%, 37.315369%, 36.239624%)" offset="0.582031"/><stop stop-opacity="1" stop-color="rgb(94.10553%, 37.767029%, 35.614014%)" offset="0.585938"/><stop stop-opacity="1" stop-color="rgb(94.169617%, 38.217163%, 34.988403%)" offset="0.589844"/><stop stop-opacity="1" stop-color="rgb(94.233704%, 38.667297%, 34.362793%)" offset="0.59375"/><stop stop-opacity="1" stop-color="rgb(94.297791%, 39.117432%, 33.735657%)" offset="0.597656"/><stop stop-opacity="1" stop-color="rgb(94.361877%, 39.567566%, 33.110046%)" offset="0.601563"/><stop stop-opacity="1" stop-color="rgb(94.424438%, 40.0177%, 32.484436%)" offset="0.605469"/><stop stop-opacity="1" stop-color="rgb(94.488525%, 40.467834%, 31.858826%)" offset="0.609375"/><stop stop-opacity="1" stop-color="rgb(94.552612%, 40.917969%, 31.233215%)" offset="0.613281"/><stop stop-opacity="1" stop-color="rgb(94.616699%, 41.368103%, 30.607605%)" offset="0.617188"/><stop stop-opacity="1" stop-color="rgb(94.680786%, 41.818237%, 29.980469%)" offset="0.621094"/><stop stop-opacity="1" stop-color="rgb(94.744873%, 42.268372%, 29.354858%)" offset="0.625"/><stop stop-opacity="1" stop-color="rgb(94.807434%, 42.718506%, 28.729248%)" offset="0.628906"/><stop stop-opacity="1" stop-color="rgb(94.871521%, 43.16864%, 28.103638%)" offset="0.632813"/><stop stop-opacity="1" stop-color="rgb(94.935608%, 43.618774%, 27.478027%)" offset="0.636719"/><stop stop-opacity="1" stop-color="rgb(94.999695%, 44.068909%, 26.852417%)" offset="0.640625"/><stop stop-opacity="1" stop-color="rgb(95.063782%, 44.519043%, 26.226807%)" offset="0.644531"/><stop stop-opacity="1" stop-color="rgb(95.127869%, 44.969177%, 25.601196%)" offset="0.648438"/><stop stop-opacity="1" stop-color="rgb(95.191956%, 45.419312%, 24.97406%)" offset="0.652344"/><stop stop-opacity="1" stop-color="rgb(95.256042%, 45.869446%, 24.34845%)" offset="0.65625"/><stop stop-opacity="1" stop-color="rgb(95.318604%, 46.31958%, 23.722839%)" offset="0.660156"/><stop stop-opacity="1" stop-color="rgb(95.38269%, 46.77124%, 23.097229%)" offset="0.664063"/><stop stop-opacity="1" stop-color="rgb(95.446777%, 47.221375%, 22.471619%)" offset="0.667969"/><stop stop-opacity="1" stop-color="rgb(95.510864%, 47.671509%, 21.846008%)" offset="0.671875"/><stop stop-opacity="1" stop-color="rgb(95.574951%, 48.121643%, 21.220398%)" offset="0.675781"/><stop stop-opacity="1" stop-color="rgb(95.639038%, 48.571777%, 20.594788%)" offset="0.679688"/><stop stop-opacity="1" stop-color="rgb(95.700073%, 49.014282%, 19.961548%)" offset="0.683594"/><stop stop-opacity="1" stop-color="rgb(95.762634%, 49.458313%, 19.328308%)" offset="0.6875"/><stop stop-opacity="1" stop-color="rgb(95.823669%, 49.894714%, 18.688965%)" offset="0.691406"/><stop stop-opacity="1" stop-color="rgb(95.884705%, 50.332642%, 18.051147%)" offset="0.695313"/><stop stop-opacity="1" stop-color="rgb(95.944214%, 50.770569%, 17.411804%)" offset="0.699219"/><stop stop-opacity="1" stop-color="rgb(96.005249%, 51.208496%, 16.773987%)" offset="0.703125"/><stop stop-opacity="1" stop-color="rgb(96.066284%, 51.644897%, 16.134644%)" offset="0.707031"/><stop stop-opacity="1" stop-color="rgb(96.127319%, 52.082825%, 15.496826%)" offset="0.710938"/><stop stop-opacity="1" stop-color="rgb(96.186829%, 52.519226%, 14.857483%)" offset="0.714844"/><stop stop-opacity="1" stop-color="rgb(96.247864%, 52.957153%, 14.219666%)" offset="0.71875"/><stop stop-opacity="1" stop-color="rgb(96.308899%, 53.395081%, 13.580322%)" offset="0.722656"/><stop stop-opacity="1" stop-color="rgb(96.369934%, 53.833008%, 12.942505%)" offset="0.726563"/><stop stop-opacity="1" stop-color="rgb(96.429443%, 54.269409%, 12.303162%)" offset="0.730469"/><stop stop-opacity="1" stop-color="rgb(96.490479%, 54.707336%, 11.665344%)" offset="0.734375"/><stop stop-opacity="1" stop-color="rgb(96.551514%, 55.143738%, 11.026001%)" offset="0.738281"/><stop stop-opacity="1" stop-color="rgb(96.612549%, 55.581665%, 10.388184%)" offset="0.742188"/><stop stop-opacity="1" stop-color="rgb(96.672058%, 56.019592%, 9.74884%)" offset="0.746094"/><stop stop-opacity="1" stop-color="rgb(96.733093%, 56.45752%, 9.111023%)" offset="0.75"/><stop stop-opacity="1" stop-color="rgb(96.794128%, 56.893921%, 8.47168%)" offset="0.753906"/><stop stop-opacity="1" stop-color="rgb(96.855164%, 57.331848%, 7.833862%)" offset="0.757813"/><stop stop-opacity="1" stop-color="rgb(96.914673%, 57.769775%, 7.194519%)" offset="0.761719"/><stop stop-opacity="1" stop-color="rgb(96.975708%, 58.207703%, 6.556702%)" offset="0.765625"/><stop stop-opacity="1" stop-color="rgb(97.036743%, 58.644104%, 5.917358%)" offset="0.769531"/><stop stop-opacity="1" stop-color="rgb(97.097778%, 59.082031%, 5.279541%)" offset="0.773438"/><stop stop-opacity="1" stop-color="rgb(97.157288%, 59.518433%, 4.640198%)" offset="0.777344"/><stop stop-opacity="1" stop-color="rgb(97.218323%, 59.95636%, 4.00238%)" offset="0.78125"/><stop stop-opacity="1" stop-color="rgb(97.279358%, 60.394287%, 3.363037%)" offset="0.785156"/><stop stop-opacity="1" stop-color="rgb(97.340393%, 60.832214%, 2.72522%)" offset="0.789063"/><stop stop-opacity="1" stop-color="rgb(97.399902%, 61.268616%, 2.085876%)" offset="0.792969"/><stop stop-opacity="1" stop-color="rgb(97.460938%, 61.706543%, 1.448059%)" offset="0.796875"/><stop stop-opacity="1" stop-color="rgb(97.521973%, 62.142944%, 0.808716%)" offset="0.800781"/><stop stop-opacity="1" stop-color="rgb(97.583008%, 62.580872%, 0.170898%)" offset="0.804688"/><stop stop-opacity="1" stop-color="rgb(97.590637%, 62.640381%, 0.0854492%)" offset="0.8125"/><stop stop-opacity="1" stop-color="rgb(97.599792%, 62.69989%, 0%)" offset="0.875"/><stop stop-opacity="1" stop-color="rgb(97.599792%, 62.69989%, 0%)" offset="1"/></linearGradient><clipPath id="423f9d3d9a"><path d="M 6 12 L 94 12 L 94 100 L 6 100 Z M 6 12 " clip-rule="nonzero"/></clipPath><clipPath id="c396cc81be"><path d="M 50.257812 99.667969 C 48.824219 99.671875 47.40625 99.539062 46 99.261719 C 44.59375 98.984375 43.226562 98.574219 41.902344 98.027344 C 40.578125 97.480469 39.320312 96.808594 38.125 96.011719 C 36.933594 95.214844 35.832031 94.308594 34.820312 93.289062 L 13.054688 71.503906 C 12.550781 70.996094 12.070312 70.46875 11.617188 69.914062 C 11.164062 69.359375 10.742188 68.785156 10.34375 68.191406 C 9.949219 67.597656 9.582031 66.984375 9.246094 66.351562 C 8.910156 65.71875 8.601562 65.074219 8.332031 64.414062 C 8.058594 63.75 7.816406 63.078125 7.609375 62.394531 C 7.402344 61.710938 7.230469 61.015625 7.089844 60.3125 C 6.949219 59.613281 6.847656 58.90625 6.777344 58.195312 C 6.707031 57.480469 6.671875 56.769531 6.671875 56.050781 C 6.671875 55.335938 6.707031 54.625 6.777344 53.910156 C 6.847656 53.199219 6.949219 52.492188 7.089844 51.789062 C 7.230469 51.089844 7.402344 50.394531 7.609375 49.710938 C 7.816406 49.027344 8.058594 48.351562 8.332031 47.691406 C 8.601562 47.03125 8.910156 46.386719 9.246094 45.753906 C 9.582031 45.121094 9.949219 44.507812 10.34375 43.914062 C 10.742188 43.320312 11.164062 42.746094 11.617188 42.191406 C 12.070312 41.636719 12.550781 41.109375 13.054688 40.601562 L 34.820312 18.8125 C 35.328125 18.308594 35.855469 17.828125 36.410156 17.375 C 36.960938 16.921875 37.535156 16.5 38.132812 16.101562 C 38.726562 15.703125 39.339844 15.335938 39.96875 15 C 40.597656 14.664062 41.246094 14.359375 41.90625 14.085938 C 42.566406 13.8125 43.238281 13.570312 43.921875 13.363281 C 44.605469 13.15625 45.300781 12.984375 46 12.84375 C 46.703125 12.703125 47.40625 12.601562 48.117188 12.53125 C 48.828125 12.460938 49.542969 12.425781 50.257812 12.425781 C 50.972656 12.425781 51.6875 12.460938 52.398438 12.53125 C 53.109375 12.601562 53.816406 12.703125 54.515625 12.84375 C 55.214844 12.984375 55.910156 13.15625 56.59375 13.363281 C 57.277344 13.570312 57.949219 13.8125 58.609375 14.085938 C 59.269531 14.359375 59.917969 14.664062 60.546875 15 C 61.175781 15.335938 61.789062 15.703125 62.386719 16.101562 C 62.980469 16.5 63.554688 16.921875 64.105469 17.375 C 64.660156 17.828125 65.1875 18.308594 65.695312 18.8125 L 87.460938 40.601562 C 87.964844 41.109375 88.441406 41.636719 88.894531 42.191406 C 89.347656 42.746094 89.769531 43.320312 90.167969 43.917969 C 90.5625 44.511719 90.929688 45.125 91.261719 45.757812 C 91.597656 46.386719 91.902344 47.035156 92.175781 47.695312 C 92.449219 48.355469 92.6875 49.027344 92.894531 49.714844 C 93.101562 50.398438 93.273438 51.089844 93.414062 51.792969 C 93.550781 52.492188 93.65625 53.199219 93.726562 53.914062 C 93.796875 54.625 93.832031 55.335938 93.832031 56.050781 C 93.832031 56.769531 93.796875 57.480469 93.726562 58.191406 C 93.65625 58.90625 93.550781 59.609375 93.414062 60.3125 C 93.273438 61.015625 93.101562 61.707031 92.894531 62.390625 C 92.6875 63.078125 92.449219 63.75 92.175781 64.410156 C 91.902344 65.070312 91.597656 65.71875 91.261719 66.347656 C 90.929688 66.980469 90.5625 67.59375 90.167969 68.1875 C 89.769531 68.785156 89.347656 69.359375 88.894531 69.914062 C 88.441406 70.464844 87.964844 70.996094 87.460938 71.503906 L 65.699219 93.289062 C 64.683594 94.308594 63.582031 95.214844 62.390625 96.011719 C 61.199219 96.808594 59.941406 97.480469 58.617188 98.027344 C 57.292969 98.574219 55.925781 98.984375 54.519531 99.261719 C 53.113281 99.539062 51.691406 99.671875 50.257812 99.667969 Z M 50.257812 14.695312 C 48.976562 14.695312 47.703125 14.820312 46.445312 15.066406 C 45.183594 15.316406 43.960938 15.6875 42.773438 16.179688 C 41.585938 16.667969 40.460938 17.273438 39.390625 17.988281 C 38.324219 18.699219 37.335938 19.511719 36.429688 20.421875 L 14.664062 42.207031 C 14.210938 42.664062 13.78125 43.136719 13.375 43.632812 C 12.972656 44.128906 12.589844 44.644531 12.234375 45.175781 C 11.878906 45.710938 11.550781 46.257812 11.25 46.824219 C 10.949219 47.390625 10.675781 47.96875 10.429688 48.5625 C 10.1875 49.152344 9.972656 49.757812 9.785156 50.371094 C 9.601562 50.984375 9.445312 51.605469 9.320312 52.234375 C 9.195312 52.863281 9.101562 53.496094 9.039062 54.132812 C 8.976562 54.769531 8.945312 55.410156 8.945312 56.050781 C 8.945312 56.691406 8.976562 57.332031 9.039062 57.96875 C 9.101562 58.605469 9.195312 59.242188 9.320312 59.871094 C 9.445312 60.496094 9.601562 61.117188 9.785156 61.730469 C 9.972656 62.347656 10.1875 62.949219 10.429688 63.539062 C 10.675781 64.132812 10.949219 64.710938 11.25 65.277344 C 11.550781 65.84375 11.878906 66.390625 12.234375 66.925781 C 12.589844 67.457031 12.972656 67.972656 13.375 68.46875 C 13.78125 68.964844 14.210938 69.441406 14.664062 69.894531 L 36.429688 91.679688 C 36.882812 92.132812 37.359375 92.558594 37.855469 92.964844 C 38.351562 93.371094 38.863281 93.75 39.398438 94.105469 C 39.929688 94.460938 40.480469 94.789062 41.042969 95.089844 C 41.609375 95.390625 42.1875 95.664062 42.78125 95.90625 C 43.371094 96.152344 43.972656 96.367188 44.585938 96.550781 C 45.199219 96.738281 45.820312 96.890625 46.445312 97.015625 C 47.074219 97.140625 47.707031 97.234375 48.34375 97.296875 C 48.980469 97.359375 49.621094 97.390625 50.257812 97.390625 C 50.898438 97.390625 51.539062 97.359375 52.175781 97.296875 C 52.8125 97.234375 53.445312 97.140625 54.070312 97.015625 C 54.699219 96.890625 55.320312 96.738281 55.933594 96.550781 C 56.546875 96.367188 57.148438 96.152344 57.738281 95.90625 C 58.332031 95.664062 58.910156 95.390625 59.472656 95.089844 C 60.039062 94.789062 60.589844 94.460938 61.121094 94.105469 C 61.652344 93.75 62.167969 93.371094 62.664062 92.964844 C 63.160156 92.558594 63.636719 92.132812 64.089844 91.679688 L 85.855469 69.882812 C 86.304688 69.429688 86.734375 68.953125 87.140625 68.457031 C 87.542969 67.960938 87.921875 67.445312 88.277344 66.910156 C 88.632812 66.378906 88.960938 65.828125 89.261719 65.261719 C 89.5625 64.699219 89.832031 64.117188 90.078125 63.527344 C 90.320312 62.933594 90.535156 62.332031 90.722656 61.71875 C 90.90625 61.105469 91.0625 60.484375 91.183594 59.855469 C 91.308594 59.226562 91.402344 58.59375 91.464844 57.957031 C 91.527344 57.320312 91.558594 56.679688 91.558594 56.039062 C 91.558594 55.398438 91.527344 54.761719 91.464844 54.121094 C 91.402344 53.484375 91.308594 52.851562 91.183594 52.222656 C 91.0625 51.59375 90.90625 50.972656 90.722656 50.359375 C 90.535156 49.746094 90.320312 49.144531 90.078125 48.550781 C 89.832031 47.960938 89.5625 47.382812 89.261719 46.816406 C 88.960938 46.25 88.632812 45.699219 88.277344 45.167969 C 87.921875 44.632812 87.542969 44.121094 87.140625 43.625 C 86.734375 43.125 86.304688 42.652344 85.855469 42.199219 L 64.078125 20.421875 C 63.171875 19.511719 62.183594 18.703125 61.117188 17.988281 C 60.050781 17.273438 58.925781 16.671875 57.738281 16.179688 C 56.554688 15.691406 55.332031 15.320312 54.070312 15.070312 C 52.8125 14.820312 51.542969 14.695312 50.257812 14.695312 Z M 50.257812 14.695312 " clip-rule="nonzero"/></clipPath><linearGradient x1="17.058797" gradientTransform="matrix(0.284262, 0, 0, 0.284532, 1.823811, 7.569682)" y1="17.058797" x2="323.685884" gradientUnits="userSpaceOnUse" y2="323.685884" id="6bdcdd91ea"><stop stop-opacity="1" stop-color="rgb(19.198608%, 12.89978%, 27.49939%)" offset="0"/><stop stop-opacity="1" stop-color="rgb(19.198608%, 12.89978%, 27.49939%)" offset="0.125"/><stop stop-opacity="1" stop-color="rgb(19.198608%, 12.89978%, 27.49939%)" offset="0.1875"/><stop stop-opacity="1" stop-color="rgb(19.198608%, 12.89978%, 27.49939%)" offset="0.195313"/><stop stop-opacity="1" stop-color="rgb(19.534302%, 12.948608%, 27.597046%)" offset="0.199219"/><stop stop-opacity="1" stop-color="rgb(19.869995%, 12.998962%, 27.694702%)" offset="0.203125"/><stop stop-opacity="1" stop-color="rgb(20.39032%, 13.076782%, 27.845764%)" offset="0.207031"/><stop stop-opacity="1" stop-color="rgb(20.910645%, 13.154602%, 27.998352%)" offset="0.210938"/><stop stop-opacity="1" stop-color="rgb(21.430969%, 13.232422%, 28.15094%)" offset="0.214844"/><stop stop-opacity="1" stop-color="rgb(21.95282%, 13.310242%, 28.303528%)" offset="0.21875"/><stop stop-opacity="1" stop-color="rgb(22.473145%, 13.386536%, 28.45459%)" offset="0.222656"/><stop stop-opacity="1" stop-color="rgb(22.993469%, 13.464355%, 28.607178%)" offset="0.226562"/><stop stop-opacity="1" stop-color="rgb(23.513794%, 13.542175%, 28.75824%)" offset="0.230469"/><stop stop-opacity="1" stop-color="rgb(24.035645%, 13.619995%, 28.910828%)" offset="0.234375"/><stop stop-opacity="1" stop-color="rgb(24.555969%, 13.697815%, 29.06189%)" offset="0.238281"/><stop stop-opacity="1" stop-color="rgb(25.076294%, 13.775635%, 29.214478%)" offset="0.242188"/><stop stop-opacity="1" stop-color="rgb(25.596619%, 13.853455%, 29.367065%)" offset="0.246094"/><stop stop-opacity="1" stop-color="rgb(26.118469%, 13.931274%, 29.519653%)" offset="0.25"/><stop stop-opacity="1" stop-color="rgb(26.638794%, 14.007568%, 29.670715%)" offset="0.253906"/><stop stop-opacity="1" stop-color="rgb(27.159119%, 14.085388%, 29.823303%)" offset="0.257812"/><stop stop-opacity="1" stop-color="rgb(27.679443%, 14.163208%, 29.974365%)" offset="0.261719"/><stop stop-opacity="1" stop-color="rgb(28.201294%, 14.241028%, 30.126953%)" offset="0.265625"/><stop stop-opacity="1" stop-color="rgb(28.721619%, 14.318848%, 30.278015%)" offset="0.269531"/><stop stop-opacity="1" stop-color="rgb(29.241943%, 14.396667%, 30.430603%)" offset="0.273438"/><stop stop-opacity="1" stop-color="rgb(29.762268%, 14.472961%, 30.581665%)" offset="0.277344"/><stop stop-opacity="1" stop-color="rgb(30.284119%, 14.550781%, 30.734253%)" offset="0.28125"/><stop stop-opacity="1" stop-color="rgb(30.804443%, 14.628601%, 30.886841%)" offset="0.285156"/><stop stop-opacity="1" stop-color="rgb(31.324768%, 14.706421%, 31.039429%)" offset="0.289062"/><stop stop-opacity="1" stop-color="rgb(31.845093%, 14.784241%, 31.190491%)" offset="0.292969"/><stop stop-opacity="1" stop-color="rgb(32.365417%, 14.862061%, 31.343079%)" offset="0.296875"/><stop stop-opacity="1" stop-color="rgb(32.885742%, 14.93988%, 31.494141%)" offset="0.300781"/><stop stop-opacity="1" stop-color="rgb(33.407593%, 15.0177%, 31.646729%)" offset="0.304688"/><stop stop-opacity="1" stop-color="rgb(33.927917%, 15.093994%, 31.797791%)" offset="0.308594"/><stop stop-opacity="1" stop-color="rgb(34.448242%, 15.171814%, 31.950378%)" offset="0.3125"/><stop stop-opacity="1" stop-color="rgb(35.047913%, 15.293884%, 32.096863%)" offset="0.316406"/><stop stop-opacity="1" stop-color="rgb(35.647583%, 15.415955%, 32.244873%)" offset="0.320313"/><stop stop-opacity="1" stop-color="rgb(36.598206%, 15.731812%, 32.371521%)" offset="0.324219"/><stop stop-opacity="1" stop-color="rgb(37.548828%, 16.049194%, 32.498169%)" offset="0.328125"/><stop stop-opacity="1" stop-color="rgb(38.499451%, 16.366577%, 32.623291%)" offset="0.332031"/><stop stop-opacity="1" stop-color="rgb(39.451599%, 16.68396%, 32.749939%)" offset="0.335937"/><stop stop-opacity="1" stop-color="rgb(40.402222%, 16.999817%, 32.875061%)" offset="0.339844"/><stop stop-opacity="1" stop-color="rgb(41.352844%, 17.3172%, 33.001709%)" offset="0.34375"/><stop stop-opacity="1" stop-color="rgb(42.303467%, 17.633057%, 33.128357%)" offset="0.347656"/><stop stop-opacity="1" stop-color="rgb(43.254089%, 17.950439%, 33.255005%)" offset="0.351562"/><stop stop-opacity="1" stop-color="rgb(44.204712%, 18.267822%, 33.380127%)" offset="0.355469"/><stop stop-opacity="1" stop-color="rgb(45.155334%, 18.585205%, 33.506775%)" offset="0.359375"/><stop stop-opacity="1" stop-color="rgb(46.105957%, 18.901062%, 33.631897%)" offset="0.363281"/><stop stop-opacity="1" stop-color="rgb(47.058105%, 19.218445%, 33.758545%)" offset="0.367188"/><stop stop-opacity="1" stop-color="rgb(48.008728%, 19.535828%, 33.885193%)" offset="0.371094"/><stop stop-opacity="1" stop-color="rgb(48.959351%, 19.85321%, 34.011841%)" offset="0.375"/><stop stop-opacity="1" stop-color="rgb(49.909973%, 20.169067%, 34.136963%)" offset="0.378906"/><stop stop-opacity="1" stop-color="rgb(50.860596%, 20.48645%, 34.263611%)" offset="0.382812"/><stop stop-opacity="1" stop-color="rgb(51.811218%, 20.802307%, 34.388733%)" offset="0.386719"/><stop stop-opacity="1" stop-color="rgb(52.761841%, 21.11969%, 34.515381%)" offset="0.390625"/><stop stop-opacity="1" stop-color="rgb(53.712463%, 21.437073%, 34.642029%)" offset="0.394531"/><stop stop-opacity="1" stop-color="rgb(54.664612%, 21.754456%, 34.768677%)" offset="0.398438"/><stop stop-opacity="1" stop-color="rgb(55.615234%, 22.070312%, 34.893799%)" offset="0.402344"/><stop stop-opacity="1" stop-color="rgb(56.565857%, 22.387695%, 35.020447%)" offset="0.40625"/><stop stop-opacity="1" stop-color="rgb(57.516479%, 22.705078%, 35.145569%)" offset="0.410156"/><stop stop-opacity="1" stop-color="rgb(58.467102%, 23.022461%, 35.272217%)" offset="0.414062"/><stop stop-opacity="1" stop-color="rgb(59.417725%, 23.338318%, 35.398865%)" offset="0.417969"/><stop stop-opacity="1" stop-color="rgb(60.368347%, 23.655701%, 35.525513%)" offset="0.421875"/><stop stop-opacity="1" stop-color="rgb(61.31897%, 23.971558%, 35.650635%)" offset="0.425781"/><stop stop-opacity="1" stop-color="rgb(62.271118%, 24.28894%, 35.777283%)" offset="0.429688"/><stop stop-opacity="1" stop-color="rgb(63.221741%, 24.606323%, 35.902405%)" offset="0.433594"/><stop stop-opacity="1" stop-color="rgb(64.172363%, 24.923706%, 36.029053%)" offset="0.4375"/><stop stop-opacity="1" stop-color="rgb(65.113831%, 25.239563%, 36.14502%)" offset="0.441406"/><stop stop-opacity="1" stop-color="rgb(66.055298%, 25.556946%, 36.262512%)" offset="0.445312"/><stop stop-opacity="1" stop-color="rgb(66.992188%, 25.874329%, 36.375427%)" offset="0.449219"/><stop stop-opacity="1" stop-color="rgb(67.930603%, 26.191711%, 36.489868%)" offset="0.453125"/><stop stop-opacity="1" stop-color="rgb(68.867493%, 26.507568%, 36.602783%)" offset="0.457031"/><stop stop-opacity="1" stop-color="rgb(69.805908%, 26.824951%, 36.715698%)" offset="0.460938"/><stop stop-opacity="1" stop-color="rgb(70.744324%, 27.142334%, 36.828613%)" offset="0.464844"/><stop stop-opacity="1" stop-color="rgb(71.682739%, 27.459717%, 36.941528%)" offset="0.46875"/><stop stop-opacity="1" stop-color="rgb(72.619629%, 27.775574%, 37.054443%)" offset="0.472656"/><stop stop-opacity="1" stop-color="rgb(73.558044%, 28.092957%, 37.168884%)" offset="0.476563"/><stop stop-opacity="1" stop-color="rgb(74.494934%, 28.408813%, 37.281799%)" offset="0.480469"/><stop stop-opacity="1" stop-color="rgb(75.43335%, 28.726196%, 37.394714%)" offset="0.484375"/><stop stop-opacity="1" stop-color="rgb(76.371765%, 29.043579%, 37.507629%)" offset="0.488281"/><stop stop-opacity="1" stop-color="rgb(77.310181%, 29.360962%, 37.620544%)" offset="0.492188"/><stop stop-opacity="1" stop-color="rgb(78.24707%, 29.676819%, 37.733459%)" offset="0.496094"/><stop stop-opacity="1" stop-color="rgb(79.185486%, 29.994202%, 37.8479%)" offset="0.5"/><stop stop-opacity="1" stop-color="rgb(80.122375%, 30.311584%, 37.960815%)" offset="0.503906"/><stop stop-opacity="1" stop-color="rgb(81.060791%, 30.628967%, 38.07373%)" offset="0.507812"/><stop stop-opacity="1" stop-color="rgb(81.999207%, 30.944824%, 38.186646%)" offset="0.511719"/><stop stop-opacity="1" stop-color="rgb(82.937622%, 31.262207%, 38.301086%)" offset="0.515625"/><stop stop-opacity="1" stop-color="rgb(83.874512%, 31.578064%, 38.414001%)" offset="0.519531"/><stop stop-opacity="1" stop-color="rgb(84.812927%, 31.895447%, 38.526917%)" offset="0.523438"/><stop stop-opacity="1" stop-color="rgb(85.749817%, 32.21283%, 38.639832%)" offset="0.527344"/><stop stop-opacity="1" stop-color="rgb(86.688232%, 32.530212%, 38.752747%)" offset="0.53125"/><stop stop-opacity="1" stop-color="rgb(87.625122%, 32.846069%, 38.865662%)" offset="0.535156"/><stop stop-opacity="1" stop-color="rgb(88.563538%, 33.163452%, 38.980103%)" offset="0.539063"/><stop stop-opacity="1" stop-color="rgb(89.501953%, 33.480835%, 39.093018%)" offset="0.542969"/><stop stop-opacity="1" stop-color="rgb(90.440369%, 33.798218%, 39.205933%)" offset="0.546875"/><stop stop-opacity="1" stop-color="rgb(91.377258%, 34.114075%, 39.318848%)" offset="0.550781"/><stop stop-opacity="1" stop-color="rgb(92.315674%, 34.431458%, 39.431763%)" offset="0.554688"/><stop stop-opacity="1" stop-color="rgb(93.023682%, 34.783936%, 39.349365%)" offset="0.558594"/><stop stop-opacity="1" stop-color="rgb(93.733215%, 35.137939%, 39.266968%)" offset="0.5625"/><stop stop-opacity="1" stop-color="rgb(93.797302%, 35.594177%, 38.632202%)" offset="0.566406"/><stop stop-opacity="1" stop-color="rgb(93.862915%, 36.050415%, 37.998962%)" offset="0.570313"/><stop stop-opacity="1" stop-color="rgb(93.927002%, 36.506653%, 37.364197%)" offset="0.574219"/><stop stop-opacity="1" stop-color="rgb(93.992615%, 36.962891%, 36.730957%)" offset="0.578125"/><stop stop-opacity="1" stop-color="rgb(94.056702%, 37.417603%, 36.096191%)" offset="0.582031"/><stop stop-opacity="1" stop-color="rgb(94.120789%, 37.87384%, 35.462952%)" offset="0.585938"/><stop stop-opacity="1" stop-color="rgb(94.184875%, 38.330078%, 34.828186%)" offset="0.589844"/><stop stop-opacity="1" stop-color="rgb(94.250488%, 38.786316%, 34.194946%)" offset="0.59375"/><stop stop-opacity="1" stop-color="rgb(94.314575%, 39.242554%, 33.561707%)" offset="0.597656"/><stop stop-opacity="1" stop-color="rgb(94.380188%, 39.698792%, 32.928467%)" offset="0.601563"/><stop stop-opacity="1" stop-color="rgb(94.444275%, 40.155029%, 32.293701%)" offset="0.605469"/><stop stop-opacity="1" stop-color="rgb(94.509888%, 40.611267%, 31.660461%)" offset="0.609375"/><stop stop-opacity="1" stop-color="rgb(94.573975%, 41.065979%, 31.025696%)" offset="0.613281"/><stop stop-opacity="1" stop-color="rgb(94.638062%, 41.522217%, 30.392456%)" offset="0.617188"/><stop stop-opacity="1" stop-color="rgb(94.702148%, 41.978455%, 29.75769%)" offset="0.621094"/><stop stop-opacity="1" stop-color="rgb(94.767761%, 42.434692%, 29.124451%)" offset="0.625"/><stop stop-opacity="1" stop-color="rgb(94.831848%, 42.89093%, 28.489685%)" offset="0.628906"/><stop stop-opacity="1" stop-color="rgb(94.897461%, 43.347168%, 27.856445%)" offset="0.632812"/><stop stop-opacity="1" stop-color="rgb(94.961548%, 43.80188%, 27.22168%)" offset="0.636719"/><stop stop-opacity="1" stop-color="rgb(95.027161%, 44.258118%, 26.58844%)" offset="0.640625"/><stop stop-opacity="1" stop-color="rgb(95.091248%, 44.714355%, 25.9552%)" offset="0.644531"/><stop stop-opacity="1" stop-color="rgb(95.15686%, 45.170593%, 25.32196%)" offset="0.648438"/><stop stop-opacity="1" stop-color="rgb(95.220947%, 45.626831%, 24.687195%)" offset="0.652344"/><stop stop-opacity="1" stop-color="rgb(95.285034%, 46.083069%, 24.053955%)" offset="0.65625"/><stop stop-opacity="1" stop-color="rgb(95.349121%, 46.537781%, 23.419189%)" offset="0.660156"/><stop stop-opacity="1" stop-color="rgb(95.414734%, 46.994019%, 22.78595%)" offset="0.664062"/><stop stop-opacity="1" stop-color="rgb(95.478821%, 47.450256%, 22.151184%)" offset="0.667969"/><stop stop-opacity="1" stop-color="rgb(95.544434%, 47.906494%, 21.517944%)" offset="0.671875"/><stop stop-opacity="1" stop-color="rgb(95.608521%, 48.362732%, 20.883179%)" offset="0.675781"/><stop stop-opacity="1" stop-color="rgb(95.674133%, 48.81897%, 20.249939%)" offset="0.679688"/><stop stop-opacity="1" stop-color="rgb(95.735168%, 49.264526%, 19.606018%)" offset="0.683594"/><stop stop-opacity="1" stop-color="rgb(95.797729%, 49.710083%, 18.962097%)" offset="0.6875"/><stop stop-opacity="1" stop-color="rgb(95.858765%, 50.152588%, 18.315125%)" offset="0.691406"/><stop stop-opacity="1" stop-color="rgb(95.921326%, 50.596619%, 17.668152%)" offset="0.695312"/><stop stop-opacity="1" stop-color="rgb(95.982361%, 51.039124%, 17.021179%)" offset="0.699219"/><stop stop-opacity="1" stop-color="rgb(96.043396%, 51.481628%, 16.374207%)" offset="0.703125"/><stop stop-opacity="1" stop-color="rgb(96.104431%, 51.924133%, 15.727234%)" offset="0.707031"/><stop stop-opacity="1" stop-color="rgb(96.166992%, 52.368164%, 15.081787%)" offset="0.710938"/><stop stop-opacity="1" stop-color="rgb(96.228027%, 52.810669%, 14.434814%)" offset="0.714844"/><stop stop-opacity="1" stop-color="rgb(96.289062%, 53.2547%, 13.787842%)" offset="0.71875"/><stop stop-opacity="1" stop-color="rgb(96.350098%, 53.697205%, 13.140869%)" offset="0.722656"/><stop stop-opacity="1" stop-color="rgb(96.412659%, 54.139709%, 12.493896%)" offset="0.726562"/><stop stop-opacity="1" stop-color="rgb(96.473694%, 54.582214%, 11.846924%)" offset="0.730469"/><stop stop-opacity="1" stop-color="rgb(96.534729%, 55.026245%, 11.199951%)" offset="0.734375"/><stop stop-opacity="1" stop-color="rgb(96.595764%, 55.46875%, 10.552979%)" offset="0.738281"/><stop stop-opacity="1" stop-color="rgb(96.658325%, 55.912781%, 9.906006%)" offset="0.742187"/><stop stop-opacity="1" stop-color="rgb(96.71936%, 56.355286%, 9.259033%)" offset="0.746094"/><stop stop-opacity="1" stop-color="rgb(96.780396%, 56.799316%, 8.613586%)" offset="0.75"/><stop stop-opacity="1" stop-color="rgb(96.841431%, 57.241821%, 7.966614%)" offset="0.753906"/><stop stop-opacity="1" stop-color="rgb(96.903992%, 57.684326%, 7.319641%)" offset="0.757812"/><stop stop-opacity="1" stop-color="rgb(96.965027%, 58.126831%, 6.672668%)" offset="0.761719"/><stop stop-opacity="1" stop-color="rgb(97.026062%, 58.570862%, 6.025696%)" offset="0.765625"/><stop stop-opacity="1" stop-color="rgb(97.087097%, 59.013367%, 5.378723%)" offset="0.769531"/><stop stop-opacity="1" stop-color="rgb(97.149658%, 59.457397%, 4.73175%)" offset="0.773437"/><stop stop-opacity="1" stop-color="rgb(97.210693%, 59.899902%, 4.084778%)" offset="0.777344"/><stop stop-opacity="1" stop-color="rgb(97.273254%, 60.343933%, 3.437805%)" offset="0.78125"/><stop stop-opacity="1" stop-color="rgb(97.33429%, 60.786438%, 2.790833%)" offset="0.785156"/><stop stop-opacity="1" stop-color="rgb(97.395325%, 61.228943%, 2.145386%)" offset="0.789062"/><stop stop-opacity="1" stop-color="rgb(97.45636%, 61.671448%, 1.498413%)" offset="0.792969"/><stop stop-opacity="1" stop-color="rgb(97.518921%, 62.115479%, 0.85144%)" offset="0.796875"/><stop stop-opacity="1" stop-color="rgb(97.558594%, 62.406921%, 0.42572%)" offset="0.800781"/><stop stop-opacity="1" stop-color="rgb(97.599792%, 62.69989%, 0%)" offset="0.804687"/><stop stop-opacity="1" stop-color="rgb(97.599792%, 62.69989%, 0%)" offset="0.8125"/><stop stop-opacity="1" stop-color="rgb(97.599792%, 62.69989%, 0%)" offset="0.875"/><stop stop-opacity="1" stop-color="rgb(97.599792%, 62.69989%, 0%)" offset="1"/></linearGradient><clipPath id="f0b69f8fef"><path d="M 107 46 L 189.242188 46 L 189.242188 66 L 107 66 Z M 107 46 " clip-rule="nonzero"/></clipPath></defs><g clip-path="url(#8e7c4b3160)"><g clip-path="url(#74f25bbed4)"><path fill="url(#3037a2e982)" d="M 1.828125 7.574219 L 1.828125 104.554688 L 98.707031 104.554688 L 98.707031 7.574219 Z M 1.828125 7.574219 " fill-rule="nonzero"/></g></g><g clip-path="url(#423f9d3d9a)"><g clip-path="url(#c396cc81be)"><path fill="url(#6bdcdd91ea)" d="M 6.671875 12.425781 L 6.671875 99.671875 L 93.832031 99.671875 L 93.832031 12.425781 Z M 6.671875 12.425781 " fill-rule="nonzero"/></g></g><path fill="#312146" d="M 49.496094 82.09375 C 51.246094 82.152344 52.976562 82.003906 54.6875 81.652344 C 56.402344 81.296875 58.050781 80.746094 59.632812 80 C 61.214844 79.253906 62.683594 78.332031 64.046875 77.234375 C 65.410156 76.136719 66.625 74.890625 67.691406 73.503906 C 63.90625 74.441406 60.074219 75.070312 56.191406 75.390625 Z M 76.273438 55.292969 L 69.582031 61.988281 C 69.265625 65.878906 68.636719 69.71875 67.691406 73.503906 C 69.082031 72.4375 70.324219 71.226562 71.421875 69.863281 C 72.523438 68.5 73.445312 67.023438 74.191406 65.441406 C 74.9375 63.859375 75.484375 62.207031 75.835938 60.492188 C 76.191406 58.777344 76.335938 57.042969 76.273438 55.292969 Z M 76.273438 55.292969 " fill-opacity="1" fill-rule="nonzero"/><path fill="#5a2752" d="M 85.128906 56.050781 C 85.132812 53.308594 84.523438 50.710938 83.296875 48.257812 L 76.273438 55.292969 C 76.335938 57.042969 76.191406 58.777344 75.839844 60.492188 C 75.488281 62.207031 74.9375 63.855469 74.191406 65.441406 C 73.445312 67.023438 72.523438 68.5 71.425781 69.863281 C 70.328125 71.226562 69.085938 72.4375 67.695312 73.503906 C 70.007812 73.507812 72.234375 73.0625 74.371094 72.175781 C 76.507812 71.289062 78.390625 70.023438 80.023438 68.382812 C 81.660156 66.75 82.921875 64.863281 83.804688 62.726562 C 84.691406 60.589844 85.132812 58.363281 85.128906 56.050781 Z M 63.632812 77.566406 C 61.613281 79.121094 59.390625 80.289062 56.960938 81.066406 C 54.535156 81.84375 52.046875 82.1875 49.496094 82.097656 L 42.472656 89.121094 C 43.136719 89.449219 43.816406 89.738281 44.511719 89.980469 C 45.210938 90.226562 45.921875 90.421875 46.644531 90.578125 C 47.371094 90.730469 48.101562 90.835938 48.835938 90.898438 C 49.574219 90.957031 50.3125 90.96875 51.050781 90.9375 C 51.789062 90.902344 52.523438 90.824219 53.253906 90.695312 C 53.980469 90.566406 54.699219 90.394531 55.40625 90.175781 C 56.113281 89.957031 56.800781 89.695312 57.476562 89.390625 C 58.148438 89.082031 58.800781 88.734375 59.429688 88.34375 C 60.058594 87.957031 60.660156 87.527344 61.234375 87.0625 C 61.808594 86.59375 62.351562 86.09375 62.863281 85.558594 C 63.371094 85.023438 63.847656 84.457031 64.285156 83.863281 C 64.726562 83.265625 65.125 82.644531 65.484375 82 C 65.84375 81.351562 66.164062 80.683594 66.4375 80 C 66.714844 79.3125 66.945312 78.609375 67.128906 77.894531 C 67.316406 77.175781 67.457031 76.449219 67.550781 75.714844 C 67.644531 74.980469 67.691406 74.246094 67.691406 73.503906 C 66.515625 75.035156 65.164062 76.390625 63.632812 77.566406 Z M 49.496094 82.09375 L 56.195312 75.390625 C 50.730469 75.84375 45.285156 75.675781 39.859375 74.886719 L 37.054688 77.695312 C 38.855469 79.050781 40.816406 80.101562 42.9375 80.851562 C 45.0625 81.601562 47.246094 82.015625 49.496094 82.09375 Z M 67.695312 56.050781 C 67.699219 53.464844 67.15625 50.996094 66.058594 48.652344 L 45.824219 68.914062 C 45.949219 69.089844 46.070312 69.265625 46.207031 69.4375 C 47.378906 70.96875 48.730469 72.324219 50.257812 73.5 C 50.832031 73.5 51.398438 73.472656 51.96875 73.417969 C 52.535156 73.363281 53.101562 73.277344 53.660156 73.167969 C 54.222656 73.054688 54.773438 72.917969 55.320312 72.75 C 55.867188 72.585938 56.402344 72.394531 56.933594 72.175781 C 57.460938 71.957031 57.976562 71.710938 58.480469 71.441406 C 58.980469 71.171875 59.472656 70.878906 59.945312 70.5625 C 60.421875 70.242188 60.878906 69.902344 61.320312 69.542969 C 61.761719 69.179688 62.183594 68.796875 62.589844 68.390625 C 62.992188 67.988281 63.375 67.5625 63.738281 67.121094 C 64.101562 66.679688 64.441406 66.222656 64.757812 65.746094 C 65.074219 65.273438 65.367188 64.78125 65.636719 64.277344 C 65.90625 63.773438 66.148438 63.257812 66.367188 62.730469 C 66.585938 62.203125 66.78125 61.664062 66.945312 61.117188 C 67.109375 60.570312 67.25 60.015625 67.359375 59.457031 C 67.472656 58.894531 67.554688 58.332031 67.613281 57.761719 C 67.667969 57.191406 67.695312 56.621094 67.695312 56.050781 Z M 67.695312 56.050781 " fill-opacity="1" fill-rule="nonzero"/><path fill="#5a2752" d="M 69.070312 45.648438 C 69.863281 51.074219 70.035156 56.519531 69.585938 61.988281 L 76.273438 55.292969 C 76.199219 53.042969 75.785156 50.855469 75.035156 48.730469 C 74.285156 46.609375 73.230469 44.648438 71.878906 42.851562 Z M 69.070312 45.648438 " fill-opacity="1" fill-rule="nonzero"/><path fill="#a5405c" d="M 46.207031 69.4375 C 46.074219 69.269531 45.953125 69.089844 45.824219 68.914062 L 42.878906 71.875 C 45.222656 72.972656 47.683594 73.515625 50.269531 73.511719 C 48.738281 72.332031 47.382812 70.976562 46.207031 69.4375 Z M 37.054688 77.695312 L 34.273438 80.476562 C 35.15625 82.496094 36.371094 84.285156 37.925781 85.839844 C 39.265625 87.179688 40.78125 88.269531 42.472656 89.117188 L 49.492188 82.089844 C 47.242188 82.011719 45.058594 81.597656 42.9375 80.847656 C 40.816406 80.097656 38.855469 79.046875 37.054688 77.695312 Z M 76.273438 55.292969 L 83.296875 48.257812 C 82.378906 46.425781 81.179688 44.804688 79.699219 43.394531 C 78.214844 41.984375 76.535156 40.871094 74.660156 40.050781 L 71.875 42.835938 C 73.230469 44.636719 74.285156 46.601562 75.035156 48.726562 C 75.785156 50.851562 76.199219 53.039062 76.273438 55.292969 Z M 45.824219 68.914062 L 66.066406 48.664062 C 65.199219 46.8125 64.042969 45.160156 62.597656 43.714844 C 61.148438 42.265625 59.5 41.109375 57.648438 40.238281 L 41.667969 56.226562 C 41.683594 58.503906 42.042969 60.726562 42.753906 62.894531 C 43.464844 65.0625 44.488281 67.070312 45.824219 68.914062 Z M 28.644531 69.261719 C 28.6875 69.320312 28.730469 69.382812 28.773438 69.4375 C 29.945312 70.96875 31.296875 72.324219 32.824219 73.5 C 32.257812 71.179688 31.796875 68.828125 31.449219 66.453125 Z M 28.644531 69.261719 " fill-opacity="1" fill-rule="nonzero"/><path fill="#a5405c" d="M 37.054688 77.695312 L 39.859375 74.886719 C 37.492188 74.542969 35.148438 74.082031 32.824219 73.503906 C 34.042969 75.09375 35.453125 76.492188 37.054688 77.695312 Z M 71.878906 42.851562 C 71.835938 42.792969 71.792969 42.730469 71.75 42.675781 C 70.578125 41.144531 69.226562 39.789062 67.695312 38.613281 C 68.265625 40.9375 68.722656 43.285156 69.070312 45.660156 Z M 63.464844 34.410156 L 60.667969 37.21875 C 63.035156 37.5625 65.378906 38.023438 67.703125 38.601562 C 66.480469 37.011719 65.066406 35.613281 63.464844 34.410156 Z M 63.464844 34.410156 " fill-opacity="1" fill-rule="nonzero"/><path fill="#ef5965" d="M 28.773438 69.4375 C 28.726562 69.382812 28.6875 69.320312 28.644531 69.261719 L 25.859375 72.050781 C 28.078125 73.023438 30.402344 73.507812 32.824219 73.503906 C 31.296875 72.328125 29.945312 70.972656 28.773438 69.4375 Z M 28.773438 69.4375 " fill-opacity="1" fill-rule="nonzero"/><path fill="#ef5965" d="M 32.824219 73.503906 C 32.824219 75.929688 33.308594 78.253906 34.277344 80.476562 L 37.058594 77.695312 C 35.457031 76.492188 34.046875 75.09375 32.824219 73.503906 Z M 71.753906 42.664062 C 71.796875 42.722656 71.835938 42.785156 71.878906 42.839844 L 74.667969 40.050781 C 72.445312 39.082031 70.121094 38.597656 67.699219 38.597656 C 69.226562 39.773438 70.578125 41.128906 71.753906 42.664062 Z M 67.695312 38.601562 C 67.699219 36.175781 67.214844 33.851562 66.242188 31.625 L 63.464844 34.410156 C 65.066406 35.613281 66.476562 37.011719 67.695312 38.601562 Z M 41.667969 56.226562 L 34.460938 63.433594 C 35.328125 65.289062 36.484375 66.945312 37.933594 68.394531 C 39.378906 69.84375 41.027344 71.003906 42.878906 71.875 L 45.824219 68.925781 C 44.488281 67.078125 43.464844 65.070312 42.753906 62.902344 C 42.042969 60.730469 41.679688 58.507812 41.667969 56.226562 Z M 41.667969 56.226562 L 57.640625 40.238281 C 55.296875 39.140625 52.832031 38.59375 50.246094 38.597656 C 48.898438 39.632812 47.6875 40.808594 46.613281 42.128906 C 45.535156 43.445312 44.625 44.871094 43.882812 46.398438 C 43.136719 47.929688 42.578125 49.523438 42.203125 51.183594 C 41.828125 52.84375 41.648438 54.523438 41.667969 56.226562 Z M 28.644531 69.261719 L 31.449219 66.453125 C 30.660156 61.027344 30.488281 55.582031 30.933594 50.117188 L 24.246094 56.8125 C 24.320312 59.0625 24.734375 61.25 25.484375 63.375 C 26.234375 65.5 27.289062 67.464844 28.644531 69.261719 Z M 28.644531 69.261719 " fill-opacity="1" fill-rule="nonzero"/><path fill="#ef5965" d="M 51.019531 30.011719 L 44.324219 36.714844 C 49.789062 36.257812 55.238281 36.425781 60.667969 37.21875 L 63.472656 34.410156 C 61.671875 33.054688 59.707031 32.003906 57.585938 31.253906 C 55.460938 30.503906 53.273438 30.089844 51.019531 30.011719 Z M 51.019531 30.011719 " fill-opacity="1" fill-rule="nonzero"/><path fill="#f47d33" d="M 50.257812 38.601562 C 49.527344 38.601562 48.800781 38.648438 48.078125 38.738281 C 47.351562 38.828125 46.636719 38.964844 45.929688 39.148438 C 45.222656 39.328125 44.53125 39.554688 43.851562 39.824219 C 43.171875 40.09375 42.511719 40.402344 41.871094 40.753906 C 41.230469 41.105469 40.617188 41.496094 40.023438 41.925781 C 39.433594 42.355469 38.871094 42.820312 38.339844 43.320312 C 37.804688 43.820312 37.308594 44.351562 36.839844 44.914062 C 36.375 45.476562 35.945312 46.066406 35.554688 46.679688 C 35.160156 47.296875 34.808594 47.9375 34.496094 48.597656 C 34.183594 49.257812 33.914062 49.9375 33.6875 50.628906 C 33.460938 51.324219 33.28125 52.03125 33.140625 52.75 C 33.003906 53.464844 32.910156 54.191406 32.863281 54.917969 C 32.816406 55.648438 32.8125 56.378906 32.859375 57.109375 C 32.902344 57.835938 32.992188 58.5625 33.125 59.28125 C 33.261719 59.996094 33.441406 60.703125 33.664062 61.402344 C 33.886719 62.097656 34.152344 62.773438 34.460938 63.4375 L 41.667969 56.226562 C 41.652344 54.523438 41.832031 52.84375 42.207031 51.183594 C 42.582031 49.523438 43.140625 47.929688 43.886719 46.398438 C 44.632812 44.871094 45.542969 43.445312 46.621094 42.128906 C 47.695312 40.8125 48.910156 39.636719 50.257812 38.601562 Z M 24.246094 56.8125 L 17.222656 63.839844 C 18.066406 65.535156 19.15625 67.054688 20.496094 68.394531 C 22.050781 69.949219 23.839844 71.167969 25.855469 72.050781 L 28.640625 69.261719 C 27.285156 67.460938 26.234375 65.5 25.484375 63.375 C 24.734375 61.25 24.320312 59.0625 24.246094 56.8125 Z M 63.464844 34.410156 L 66.242188 31.625 C 65.421875 29.75 64.308594 28.070312 62.898438 26.585938 C 61.492188 25.101562 59.871094 23.898438 58.042969 22.984375 L 51.019531 30.011719 C 53.269531 30.089844 55.457031 30.503906 57.578125 31.253906 C 59.703125 32.003906 61.664062 33.054688 63.464844 34.410156 Z M 51.019531 30.011719 C 49.273438 29.953125 47.542969 30.097656 45.828125 30.453125 C 44.117188 30.808594 42.46875 31.359375 40.886719 32.105469 C 39.304688 32.851562 37.832031 33.773438 36.472656 34.871094 C 35.109375 35.96875 33.894531 37.214844 32.828125 38.601562 C 36.609375 37.664062 40.441406 37.035156 44.328125 36.714844 Z M 24.246094 56.8125 L 30.933594 50.117188 C 31.253906 46.226562 31.882812 42.386719 32.824219 38.601562 C 31.4375 39.667969 30.195312 40.878906 29.09375 42.242188 C 27.996094 43.605469 27.074219 45.078125 26.328125 46.664062 C 25.582031 48.246094 25.03125 49.898438 24.679688 51.613281 C 24.328125 53.328125 24.183594 55.0625 24.246094 56.8125 Z M 24.246094 56.8125 " fill-opacity="1" fill-rule="nonzero"/><path fill="#f9a000" d="M 32.824219 38.601562 C 32.085938 38.601562 31.347656 38.648438 30.617188 38.742188 C 29.882812 38.835938 29.15625 38.976562 28.441406 39.160156 C 27.726562 39.347656 27.023438 39.578125 26.335938 39.855469 C 25.652344 40.128906 24.984375 40.449219 24.339844 40.808594 C 23.691406 41.167969 23.074219 41.566406 22.476562 42.007812 C 21.882812 42.445312 21.316406 42.921875 20.78125 43.433594 C 20.246094 43.945312 19.746094 44.488281 19.28125 45.0625 C 18.816406 45.636719 18.386719 46.242188 18 46.871094 C 17.609375 47.5 17.261719 48.152344 16.957031 48.824219 C 16.648438 49.5 16.386719 50.191406 16.167969 50.898438 C 15.949219 51.605469 15.777344 52.324219 15.652344 53.050781 C 15.523438 53.78125 15.441406 54.515625 15.410156 55.253906 C 15.375 55.996094 15.390625 56.734375 15.449219 57.472656 C 15.507812 58.210938 15.617188 58.941406 15.769531 59.664062 C 15.921875 60.390625 16.121094 61.101562 16.363281 61.800781 C 16.609375 62.5 16.894531 63.179688 17.226562 63.839844 L 24.25 56.8125 C 24.1875 55.0625 24.332031 53.328125 24.683594 51.613281 C 25.035156 49.898438 25.582031 48.25 26.328125 46.664062 C 27.074219 45.082031 27.996094 43.605469 29.097656 42.242188 C 30.195312 40.878906 31.4375 39.667969 32.824219 38.601562 Z M 32.824219 38.601562 " fill-opacity="1" fill-rule="nonzero"/><path fill="#f9a000" d="M 36.882812 34.542969 C 38.90625 32.988281 41.128906 31.820312 43.558594 31.039062 C 45.984375 30.261719 48.472656 29.917969 51.019531 30.011719 L 58.039062 22.984375 C 57.378906 22.65625 56.699219 22.367188 56 22.125 C 55.300781 21.878906 54.589844 21.683594 53.867188 21.527344 C 53.144531 21.375 52.414062 21.269531 51.675781 21.207031 C 50.9375 21.148438 50.199219 21.132812 49.460938 21.167969 C 48.722656 21.203125 47.988281 21.28125 47.261719 21.410156 C 46.53125 21.535156 45.8125 21.710938 45.109375 21.929688 C 44.402344 22.148438 43.710938 22.410156 43.039062 22.714844 C 42.363281 23.023438 41.714844 23.371094 41.085938 23.761719 C 40.457031 24.148438 39.855469 24.578125 39.277344 25.042969 C 38.703125 25.511719 38.160156 26.011719 37.652344 26.546875 C 37.140625 27.082031 36.664062 27.648438 36.226562 28.242188 C 35.785156 28.839844 35.386719 29.460938 35.027344 30.105469 C 34.667969 30.753906 34.351562 31.417969 34.074219 32.105469 C 33.800781 32.792969 33.570312 33.496094 33.382812 34.210938 C 33.195312 34.929688 33.058594 35.65625 32.964844 36.390625 C 32.871094 37.125 32.824219 37.859375 32.824219 38.601562 C 34 37.070312 35.351562 35.71875 36.882812 34.542969 Z M 36.882812 34.542969 " fill-opacity="1" fill-rule="nonzero"/><g clip-path="url(#f0b69f8fef)"><path fill="#5a2752" d="M 114.242188 58.785156 L 112.054688 58.785156 L 112.054688 65.359375 L 107.03125 65.359375 L 107.03125 46.640625 L 114.242188 46.640625 C 116.882812 46.640625 118.847656 48.324219 118.847656 51.132812 L 118.847656 54.28125 C 118.847656 57.078125 116.882812 58.785156 114.242188 58.785156 Z M 114.160156 51.367188 C 114.160156 50.695312 113.824219 50.441406 113.292969 50.441406 L 112.054688 50.441406 L 112.054688 55.328125 L 113.292969 55.328125 C 113.824219 55.328125 114.160156 55.042969 114.160156 54.402344 Z M 126.761719 65.828125 C 122.945312 65.828125 120.644531 63.835938 120.644531 60.488281 L 120.644531 59.480469 L 125.019531 59.480469 L 125.019531 60.378906 C 125.019531 61.277344 125.589844 61.925781 126.535156 61.925781 C 127.480469 61.925781 127.941406 61.390625 127.941406 60.40625 C 127.941406 59.253906 126.5625 58.441406 125.019531 57.457031 C 123.03125 56.222656 120.78125 54.703125 120.78125 51.949219 C 120.78125 49.027344 122.859375 46.191406 126.902344 46.1875 C 130.214844 46.1875 132.488281 48.578125 132.488281 51.5 L 132.488281 52.285156 L 128.109375 52.285156 L 128.109375 51.417969 C 128.109375 50.601562 127.574219 50.097656 126.902344 50.097656 C 126.722656 50.089844 126.550781 50.121094 126.386719 50.191406 C 126.21875 50.257812 126.074219 50.355469 125.949219 50.484375 C 125.824219 50.609375 125.730469 50.757812 125.667969 50.925781 C 125.601562 51.09375 125.574219 51.265625 125.582031 51.445312 C 125.582031 52.582031 126.957031 53.382812 128.503906 54.367188 C 130.492188 55.628906 132.765625 57.175781 132.765625 60.039062 C 132.769531 62.992188 130.632812 65.828125 126.761719 65.828125 Z M 142.871094 57.457031 L 142.871094 65.351562 L 137.847656 65.351562 L 137.847656 57.457031 L 133.472656 46.644531 L 138.636719 46.644531 L 140.6875 52.882812 L 142.511719 46.644531 L 147.480469 46.644531 Z M 154.632812 65.828125 C 150.871094 65.828125 148.121094 63.523438 148.121094 60.070312 L 148.121094 51.917969 C 148.121094 48.460938 150.871094 46.160156 154.632812 46.160156 C 158.195312 46.160156 160.46875 48.351562 160.46875 51.582031 L 160.46875 53.691406 L 156.007812 53.691406 L 156.007812 51.554688 C 156.007812 50.824219 155.53125 50.316406 154.632812 50.320312 C 153.734375 50.324219 153.257812 50.828125 153.257812 51.554688 L 153.257812 60.433594 C 153.257812 61.164062 153.734375 61.667969 154.632812 61.667969 C 155.53125 61.667969 156.007812 61.164062 156.007812 60.429688 L 156.007812 58.292969 L 160.46875 58.292969 L 160.46875 60.402344 C 160.46875 63.636719 158.195312 65.828125 154.632812 65.828125 Z M 170.859375 65.351562 L 170.859375 58.5 L 167.882812 58.5 L 167.882812 65.355469 L 162.855469 65.355469 L 162.855469 46.640625 L 167.882812 46.640625 L 167.882812 54.234375 L 170.859375 54.234375 L 170.859375 46.640625 L 175.878906 46.640625 L 175.878906 65.351562 Z M 178.546875 65.351562 L 178.546875 46.640625 L 189.242188 46.640625 L 189.242188 50.714844 L 183.570312 50.714844 L 183.570312 54 L 187.25 54 L 187.25 57.539062 L 183.570312 57.539062 L 183.570312 61.023438 L 189.242188 61.023438 L 189.242188 65.351562 Z M 178.546875 65.351562 " fill-opacity="1" fill-rule="nonzero"/></g><g fill="#97252b" fill-opacity="1"><g transform="translate(83.316385, 34.07846)"><g><path d="M 23.890625 -20.0625 C 24.765625 -20.0625 25.484375 -19.773438 26.046875 -19.203125 C 26.609375 -18.640625 26.890625 -17.914062 26.890625 -17.03125 C 26.890625 -16.914062 26.867188 -16.695312 26.828125 -16.375 C 26.660156 -15.414062 26.28125 -14.707031 25.6875 -14.25 C 25.101562 -13.789062 24.425781 -13.5625 23.65625 -13.5625 C 23.132812 -13.5625 22.691406 -13.640625 22.328125 -13.796875 C 21.972656 -13.960938 21.632812 -14.234375 21.3125 -14.609375 L 16.375 -8.171875 L 15 -3.53125 C 14.957031 -3.414062 14.9375 -3.253906 14.9375 -3.046875 C 14.9375 -2.773438 15.003906 -2.539062 15.140625 -2.34375 C 15.285156 -2.15625 15.488281 -1.953125 15.75 -1.734375 C 15.96875 -1.535156 16.125 -1.363281 16.21875 -1.21875 C 16.320312 -1.082031 16.34375 -0.925781 16.28125 -0.75 C 16.207031 -0.46875 16.015625 -0.269531 15.703125 -0.15625 C 15.390625 -0.0507812 14.96875 0 14.4375 0 L 6.890625 0 C 6.367188 0 5.984375 -0.09375 5.734375 -0.28125 C 5.484375 -0.46875 5.398438 -0.734375 5.484375 -1.078125 C 5.515625 -1.253906 5.585938 -1.394531 5.703125 -1.5 C 5.816406 -1.613281 5.992188 -1.753906 6.234375 -1.921875 C 6.523438 -2.097656 6.769531 -2.300781 6.96875 -2.53125 C 7.175781 -2.757812 7.347656 -3.09375 7.484375 -3.53125 L 8.859375 -8.203125 L 6.109375 -16.046875 C 5.910156 -16.628906 5.675781 -17.070312 5.40625 -17.375 C 5.132812 -17.6875 4.816406 -17.992188 4.453125 -18.296875 C 4.234375 -18.453125 4.070312 -18.585938 3.96875 -18.703125 C 3.875 -18.828125 3.828125 -18.96875 3.828125 -19.125 C 3.828125 -19.363281 3.929688 -19.554688 4.140625 -19.703125 C 4.347656 -19.859375 4.65625 -19.9375 5.0625 -19.9375 L 13.046875 -19.9375 C 13.742188 -19.9375 14.222656 -19.875 14.484375 -19.75 C 14.742188 -19.632812 14.882812 -19.425781 14.90625 -19.125 C 14.90625 -18.945312 14.863281 -18.789062 14.78125 -18.65625 C 14.707031 -18.53125 14.59375 -18.378906 14.4375 -18.203125 C 14.25 -17.960938 14.109375 -17.765625 14.015625 -17.609375 C 13.929688 -17.460938 13.890625 -17.28125 13.890625 -17.0625 C 13.890625 -17 13.910156 -16.867188 13.953125 -16.671875 L 15.328125 -11.40625 L 19.125 -16.828125 C 19.945312 -17.984375 20.722656 -18.8125 21.453125 -19.3125 C 22.179688 -19.8125 22.992188 -20.0625 23.890625 -20.0625 Z M 23.890625 -20.0625 "/></g></g></g><g fill="#97252b" fill-opacity="1"><g transform="translate(108.345832, 34.07846)"><g><path d="M 10.15625 -15.984375 C 12.6875 -15.984375 14.519531 -15.578125 15.65625 -14.765625 C 16.789062 -13.960938 17.359375 -12.929688 17.359375 -11.671875 C 17.359375 -11.296875 17.320312 -10.945312 17.25 -10.625 C 16.945312 -9.3125 16.109375 -8.367188 14.734375 -7.796875 C 13.367188 -7.234375 11.757812 -6.953125 9.90625 -6.953125 C 8.96875 -6.953125 8.09375 -7.007812 7.28125 -7.125 C 7.257812 -6.082031 7.535156 -5.351562 8.109375 -4.9375 C 8.691406 -4.519531 9.5 -4.3125 10.53125 -4.3125 C 11.007812 -4.3125 11.46875 -4.363281 11.90625 -4.46875 C 12.351562 -4.582031 12.914062 -4.75 13.59375 -4.96875 C 14.15625 -5.164062 14.535156 -5.265625 14.734375 -5.265625 C 14.953125 -5.265625 15.0625 -5.132812 15.0625 -4.875 C 15.082031 -4.175781 14.820312 -3.441406 14.28125 -2.671875 C 13.738281 -1.910156 12.9375 -1.257812 11.875 -0.71875 C 10.820312 -0.175781 9.546875 0.09375 8.046875 0.09375 C 5.835938 0.09375 4.023438 -0.460938 2.609375 -1.578125 C 1.191406 -2.703125 0.484375 -4.332031 0.484375 -6.46875 C 0.484375 -7.0625 0.5625 -7.757812 0.71875 -8.5625 C 1.21875 -11.019531 2.3125 -12.867188 4 -14.109375 C 5.6875 -15.359375 7.738281 -15.984375 10.15625 -15.984375 Z M 7.484375 -8.921875 C 7.566406 -8.898438 7.675781 -8.890625 7.8125 -8.890625 C 8.65625 -8.890625 9.296875 -9.28125 9.734375 -10.0625 C 10.171875 -10.84375 10.378906 -11.707031 10.359375 -12.65625 C 10.335938 -13.21875 10.175781 -13.5 9.875 -13.5 C 9.65625 -13.5 9.394531 -13.320312 9.09375 -12.96875 C 8.800781 -12.625 8.507812 -12.101562 8.21875 -11.40625 C 7.925781 -10.707031 7.679688 -9.878906 7.484375 -8.921875 Z M 7.484375 -8.921875 "/></g></g></g><g fill="#97252b" fill-opacity="1"><g transform="translate(126.519203, 34.07846)"><g><path d="M 10.6875 -15.84375 C 12.976562 -15.84375 14.8125 -15.414062 16.1875 -14.5625 C 17.570312 -13.71875 18.265625 -12.425781 18.265625 -10.6875 C 18.265625 -10.03125 18.144531 -9.28125 17.90625 -8.4375 L 16.671875 -4.3125 C 16.648438 -4.226562 16.640625 -4.128906 16.640625 -4.015625 C 16.640625 -3.691406 16.769531 -3.53125 17.03125 -3.53125 C 17.269531 -3.53125 17.472656 -3.632812 17.640625 -3.84375 C 17.816406 -4.050781 17.9375 -4.15625 18 -4.15625 C 18.09375 -4.15625 18.175781 -4.085938 18.25 -3.953125 C 18.320312 -3.816406 18.359375 -3.65625 18.359375 -3.46875 C 18.367188 -2.9375 18.160156 -2.390625 17.734375 -1.828125 C 17.304688 -1.265625 16.734375 -0.800781 16.015625 -0.4375 C 15.296875 -0.0820312 14.507812 0.09375 13.65625 0.09375 C 12.613281 0.09375 11.722656 -0.09375 10.984375 -0.46875 C 10.242188 -0.851562 9.734375 -1.414062 9.453125 -2.15625 C 8.859375 -1.4375 8.148438 -0.878906 7.328125 -0.484375 C 6.515625 -0.0976562 5.640625 0.09375 4.703125 0.09375 C 3.640625 0.09375 2.75 -0.109375 2.03125 -0.515625 C 1.3125 -0.929688 0.773438 -1.460938 0.421875 -2.109375 C 0.078125 -2.753906 -0.09375 -3.4375 -0.09375 -4.15625 C -0.09375 -4.476562 -0.0625 -4.789062 0 -5.09375 C 0.320312 -6.46875 1.015625 -7.503906 2.078125 -8.203125 C 3.148438 -8.898438 4.421875 -9.25 5.890625 -9.25 C 7.546875 -9.25 9.175781 -8.988281 10.78125 -8.46875 L 11.53125 -10.453125 C 11.789062 -11.285156 11.921875 -11.929688 11.921875 -12.390625 C 11.898438 -12.867188 11.738281 -13.226562 11.4375 -13.46875 C 11.132812 -13.707031 10.675781 -13.828125 10.0625 -13.828125 C 10.175781 -13.515625 10.234375 -13.1875 10.234375 -12.84375 C 10.234375 -12.101562 9.953125 -11.460938 9.390625 -10.921875 C 8.835938 -10.390625 8.039062 -10.125 7 -10.125 C 6.019531 -10.125 5.253906 -10.335938 4.703125 -10.765625 C 4.160156 -11.191406 3.890625 -11.722656 3.890625 -12.359375 C 3.890625 -13.359375 4.445312 -14.1875 5.5625 -14.84375 C 6.6875 -15.507812 8.394531 -15.84375 10.6875 -15.84375 Z M 9.015625 -6.765625 C 8.453125 -6.765625 7.992188 -6.550781 7.640625 -6.125 C 7.296875 -5.695312 7.125 -5.234375 7.125 -4.734375 C 7.125 -4.410156 7.195312 -4.148438 7.34375 -3.953125 C 7.5 -3.753906 7.71875 -3.65625 8 -3.65625 C 8.25 -3.65625 8.53125 -3.757812 8.84375 -3.96875 C 9.15625 -4.175781 9.378906 -4.488281 9.515625 -4.90625 L 10.15625 -6.671875 C 9.8125 -6.734375 9.429688 -6.765625 9.015625 -6.765625 Z M 9.015625 -6.765625 "/></g></g></g><g fill="#97252b" fill-opacity="1"><g transform="translate(147.506852, 34.07846)"><g><path d="M 14.703125 -15.84375 C 15.816406 -15.84375 16.707031 -15.5 17.375 -14.8125 C 18.039062 -14.132812 18.375 -13.296875 18.375 -12.296875 C 18.375 -11.921875 18.335938 -11.570312 18.265625 -11.25 C 18.066406 -10.4375 17.6875 -9.8125 17.125 -9.375 C 16.5625 -8.9375 15.894531 -8.71875 15.125 -8.71875 C 14.363281 -8.71875 13.785156 -8.894531 13.390625 -9.25 C 13.003906 -9.613281 12.660156 -10.09375 12.359375 -10.6875 C 12.203125 -11.03125 12.050781 -11.28125 11.90625 -11.4375 C 11.769531 -11.59375 11.613281 -11.671875 11.4375 -11.671875 C 11.238281 -11.671875 11.0625 -11.59375 10.90625 -11.4375 C 10.757812 -11.28125 10.628906 -11 10.515625 -10.59375 L 8.203125 -3.109375 C 8.160156 -3.015625 8.140625 -2.867188 8.140625 -2.671875 C 8.140625 -2.410156 8.210938 -2.191406 8.359375 -2.015625 C 8.515625 -1.847656 8.722656 -1.6875 8.984375 -1.53125 C 9.222656 -1.363281 9.378906 -1.226562 9.453125 -1.125 C 9.535156 -1.03125 9.566406 -0.90625 9.546875 -0.75 C 9.503906 -0.488281 9.359375 -0.296875 9.109375 -0.171875 C 8.859375 -0.0546875 8.4375 0 7.84375 0 L 0.171875 0 C -0.335938 0 -0.707031 -0.0820312 -0.9375 -0.25 C -1.164062 -0.425781 -1.253906 -0.648438 -1.203125 -0.921875 C -1.117188 -1.160156 -0.90625 -1.375 -0.5625 -1.5625 C -0.269531 -1.71875 -0.0234375 -1.90625 0.171875 -2.125 C 0.378906 -2.34375 0.550781 -2.691406 0.6875 -3.171875 L 3.359375 -11.828125 C 3.390625 -11.921875 3.40625 -12.0625 3.40625 -12.25 C 3.40625 -12.46875 3.359375 -12.632812 3.265625 -12.75 C 3.179688 -12.875 3.039062 -13.023438 2.84375 -13.203125 C 2.644531 -13.359375 2.503906 -13.492188 2.421875 -13.609375 C 2.347656 -13.734375 2.335938 -13.894531 2.390625 -14.09375 C 2.515625 -14.5625 3.144531 -14.96875 4.28125 -15.3125 C 5.414062 -15.664062 6.601562 -15.84375 7.84375 -15.84375 C 8.664062 -15.84375 9.34375 -15.65625 9.875 -15.28125 C 10.414062 -14.914062 10.765625 -14.394531 10.921875 -13.71875 C 11.878906 -15.132812 13.140625 -15.84375 14.703125 -15.84375 Z M 14.703125 -15.84375 "/></g></g></g><g fill="#97252b" fill-opacity="1"><g transform="translate(166.249069, 34.07846)"><g/></g></g><g fill="#97252b" fill-opacity="1"><g transform="translate(173.644316, 34.07846)"><g><path d="M 11.578125 -15.84375 C 14.296875 -15.84375 16.296875 -15.289062 17.578125 -14.1875 C 18.867188 -13.09375 19.515625 -11.65625 19.515625 -9.875 C 19.515625 -9.28125 19.4375 -8.613281 19.28125 -7.875 C 18.90625 -6.238281 18.195312 -4.804688 17.15625 -3.578125 C 16.113281 -2.347656 14.835938 -1.398438 13.328125 -0.734375 C 11.828125 -0.0664062 10.195312 0.265625 8.4375 0.265625 C 5.664062 0.265625 3.613281 -0.285156 2.28125 -1.390625 C 0.957031 -2.492188 0.296875 -3.96875 0.296875 -5.8125 C 0.296875 -6.425781 0.375 -7.113281 0.53125 -7.875 C 0.914062 -9.425781 1.640625 -10.804688 2.703125 -12.015625 C 3.773438 -13.222656 5.082031 -14.160156 6.625 -14.828125 C 8.175781 -15.503906 9.828125 -15.84375 11.578125 -15.84375 Z M 11.5 -13.171875 C 11.082031 -13.171875 10.632812 -12.796875 10.15625 -12.046875 C 9.6875 -11.296875 9.132812 -9.882812 8.5 -7.8125 C 7.863281 -5.738281 7.546875 -4.28125 7.546875 -3.4375 C 7.546875 -3 7.613281 -2.703125 7.75 -2.546875 C 7.894531 -2.398438 8.085938 -2.328125 8.328125 -2.328125 C 8.742188 -2.296875 9.175781 -2.65625 9.625 -3.40625 C 10.070312 -4.164062 10.632812 -5.644531 11.3125 -7.84375 C 11.9375 -9.78125 12.25 -11.1875 12.25 -12.0625 C 12.25 -12.476562 12.179688 -12.765625 12.046875 -12.921875 C 11.921875 -13.085938 11.738281 -13.171875 11.5 -13.171875 Z M 11.5 -13.171875 "/></g></g></g><g fill="#97252b" fill-opacity="1"><g transform="translate(194.691855, 34.07846)"><g><path d="M 18.53125 -4.125 C 18.488281 -4.050781 18.46875 -3.929688 18.46875 -3.765625 C 18.46875 -3.628906 18.503906 -3.519531 18.578125 -3.4375 C 18.648438 -3.363281 18.742188 -3.328125 18.859375 -3.328125 C 19.097656 -3.328125 19.300781 -3.429688 19.46875 -3.640625 C 19.644531 -3.847656 19.757812 -3.953125 19.8125 -3.953125 C 19.914062 -3.953125 19.992188 -3.882812 20.046875 -3.75 C 20.109375 -3.625 20.140625 -3.472656 20.140625 -3.296875 C 20.160156 -2.710938 19.972656 -2.144531 19.578125 -1.59375 C 19.179688 -1.050781 18.597656 -0.601562 17.828125 -0.25 C 17.054688 0.09375 16.132812 0.265625 15.0625 0.265625 C 13.738281 0.265625 12.6875 -0.0351562 11.90625 -0.640625 C 11.132812 -1.253906 10.738281 -2.066406 10.71875 -3.078125 C 10.71875 -3.816406 10.894531 -4.644531 11.25 -5.5625 L 12.90625 -9.875 C 13 -10.132812 13.046875 -10.347656 13.046875 -10.515625 C 13.046875 -10.765625 12.960938 -10.960938 12.796875 -11.109375 C 12.628906 -11.265625 12.425781 -11.34375 12.1875 -11.34375 C 11.75 -11.34375 11.328125 -11.140625 10.921875 -10.734375 C 10.523438 -10.328125 10.238281 -9.820312 10.0625 -9.21875 L 8.203125 -3.109375 C 8.117188 -2.890625 8.078125 -2.679688 8.078125 -2.484375 C 8.078125 -2.242188 8.125 -2.046875 8.21875 -1.890625 C 8.320312 -1.742188 8.46875 -1.59375 8.65625 -1.4375 C 8.789062 -1.3125 8.890625 -1.195312 8.953125 -1.09375 C 9.015625 -1 9.023438 -0.882812 8.984375 -0.75 C 8.898438 -0.488281 8.707031 -0.296875 8.40625 -0.171875 C 8.113281 -0.0546875 7.644531 0 7 0 L 0.171875 0 C -0.335938 0 -0.707031 -0.0820312 -0.9375 -0.25 C -1.164062 -0.425781 -1.253906 -0.648438 -1.203125 -0.921875 C -1.117188 -1.160156 -0.90625 -1.375 -0.5625 -1.5625 C -0.269531 -1.71875 -0.0234375 -1.90625 0.171875 -2.125 C 0.378906 -2.34375 0.550781 -2.691406 0.6875 -3.171875 L 3.359375 -11.828125 C 3.390625 -11.921875 3.40625 -12.0625 3.40625 -12.25 C 3.40625 -12.46875 3.359375 -12.632812 3.265625 -12.75 C 3.179688 -12.875 3.039062 -13.023438 2.84375 -13.203125 C 2.644531 -13.359375 2.503906 -13.492188 2.421875 -13.609375 C 2.347656 -13.734375 2.335938 -13.894531 2.390625 -14.09375 C 2.515625 -14.5625 3.144531 -14.96875 4.28125 -15.3125 C 5.414062 -15.664062 6.601562 -15.84375 7.84375 -15.84375 C 8.84375 -15.84375 9.628906 -15.566406 10.203125 -15.015625 C 10.785156 -14.460938 11.046875 -13.695312 10.984375 -12.71875 C 11.804688 -13.894531 12.675781 -14.707031 13.59375 -15.15625 C 14.507812 -15.613281 15.503906 -15.84375 16.578125 -15.84375 C 17.796875 -15.84375 18.78125 -15.472656 19.53125 -14.734375 C 20.28125 -13.992188 20.65625 -13.035156 20.65625 -11.859375 C 20.65625 -11.234375 20.554688 -10.625 20.359375 -10.03125 Z M 18.53125 -4.125 "/></g></g></g></svg>