<?xml version="1.0" encoding="UTF-8" standalone="no"?>
<!DOCTYPE svg PUBLIC "-//W3C//DTD SVG 1.1//EN" "http://www.w3.org/Graphics/SVG/1.1/DTD/svg11.dtd">
<svg width="100%" height="100%" viewBox="0 0 1080 1920" version="1.1" xmlns="http://www.w3.org/2000/svg" xmlns:xlink="http://www.w3.org/1999/xlink" xml:space="preserve" xmlns:serif="http://www.serif.com/" style="fill-rule:evenodd;clip-rule:evenodd;stroke-linecap:round;stroke-linejoin:round;stroke-miterlimit:1.5;">
    <g transform="matrix(1.09402,0,0,1,-47.7574,0)">
        <rect x="43.653" y="228.097" width="987.185" height="846.945"/>
    </g>
    <g transform="matrix(0.429427,0,0,0.429427,43.1315,267.434)">
        <g id="Suit" transform="matrix(0.561208,0,0,0.561208,-353.756,0.408939)">
            <g transform="matrix(1.12957,0,0,1.15543,-365.843,-865.156)">
                <path d="M1261.79,2247.72C1261.79,2245.5 1261.11,2243.34 1259.85,2241.5C1248.72,2225.16 1242.34,2206.07 1242.34,2185.69L1242.34,1649.99C1242.34,1620.89 1262.93,1598.55 1276.57,1574.79L1335.8,1444.67C1355.25,1401.95 1398.86,1374.38 1447.01,1374.38L1522.74,1374.38C1581.38,1374.38 1634.8,1407.08 1660.05,1458.42L1660.13,1458.59C1687.54,1447.24 1744.18,1586.67 1744.18,1649.99L1744.18,2185.69C1744.18,2205.95 1737.88,2224.93 1726.89,2241.21C1724.93,2244.05 1723.89,2247.4 1723.89,2250.82C1723.83,2250.83 1723.83,2250.83 1723.83,2250.83C1723.83,2331.04 1657.32,2396.06 1575.27,2396.06C1522.92,2396.06 1464.08,2396.06 1411.63,2396.06C1328.88,2396.06 1261.79,2330.48 1261.79,2249.58L1261.79,2247.72Z" style="fill:white;stroke:black;stroke-width:30.26px;"/>
            </g>
            <g transform="matrix(0.978686,0,0,1.08249,174.324,-264.122)">
                <path d="M1461.14,3194.31C1461.14,3197.79 1458.02,3200.61 1454.17,3200.61C1431.91,3200.61 1359.33,3200.61 1280.85,3200.61C1223.9,3200.61 1170.35,3176.13 1136.59,3134.66C1102.84,3093.19 1092.92,3039.68 1109.86,2990.52C1109.86,2990.52 1109.86,2990.52 1109.86,2990.52L1254.66,2990.52C1254.66,2990.52 1259.87,3005.62 1265.47,3021.89C1273.57,3045.38 1297.63,3061.39 1324.85,3061.39C1324.85,3061.39 1324.85,3061.39 1324.85,3061.39C1361,3061.39 1395.66,3074.37 1421.23,3097.48C1446.78,3120.59 1461.14,3151.93 1461.14,3184.61C1461.14,3188.45 1461.14,3191.73 1461.14,3194.31Z" style="fill:white;stroke:black;stroke-width:33.51px;"/>
            </g>
            <g transform="matrix(0.969498,0,0,0.953004,-90.932,119.604)">
                <ellipse cx="1462.61" cy="2829.24" rx="141.717" ry="284.284" style="fill:white;stroke:black;stroke-width:35.97px;"/>
            </g>
            <g transform="matrix(2.02121,-0.0548126,0.0315055,1.16176,-1869.41,-327.329)">
                <path d="M1431.26,2228.39C1429.16,2201.67 1422.67,2019.1 1419.07,1915.27C1418.46,1899.57 1422.5,1884.42 1429.77,1875.08C1437.05,1865.74 1446.57,1863.51 1455.01,1869.16C1455.01,1869.15 1455.01,1869.15 1455.01,1869.15L1544.64,1874.06C1545.11,1874.04 1545.58,1874.03 1546.05,1874.03C1547.94,1874.03 1549.82,1874.17 1551.69,1874.44L1677.33,1919.8C1677.33,1919.8 1663.7,2176.2 1663.7,2209.98C1663.7,2395.18 1608.51,2545.14 1546.05,2545.14C1483.59,2545.14 1447.3,2433.11 1431.26,2228.39Z" style="fill:white;stroke:black;stroke-width:20.97px;"/>
            </g>
            <g transform="matrix(0.897278,0,0,2.1194,172.386,-4222.77)">
                <path d="M973.06,2858.66L973.059,2858.66C968.114,2858.66 964.106,2856.97 964.106,2854.87C964.106,2846.75 964.106,2827.89 964.106,2821.58C964.106,2820.43 966.321,2819.49 969.054,2819.49C969.057,2819.49 969.058,2819.49 969.058,2819.49C995.45,2775.19 1124.71,2741.51 1280,2741.51C1435.29,2741.51 1564.55,2775.19 1590.94,2819.49L1590.95,2819.49C1592.25,2819.49 1593.51,2819.71 1594.43,2820.1C1595.35,2820.49 1595.87,2821.02 1595.87,2821.58C1595.87,2827.87 1595.87,2846.76 1595.87,2854.88C1595.87,2855.89 1594.93,2856.85 1593.26,2857.55C1591.58,2858.26 1589.31,2858.66 1586.95,2858.66C1586.94,2858.66 1586.94,2858.66 1586.94,2858.66C1553.31,2900.12 1428.56,2930.94 1280,2930.94C1131.44,2930.94 1006.7,2900.12 973.06,2858.66Z" style="fill:white;stroke:black;stroke-width:21.25px;"/>
            </g>
            <g transform="matrix(1.1287,0,0,0.991656,-276.69,-36.0938)">
                <ellipse cx="1420.89" cy="2602.76" rx="145.888" ry="151.609" style="fill:white;stroke:black;stroke-width:32.55px;"/>
            </g>
        </g>
        <g id="Tank" transform="matrix(0.561208,0,0,0.561208,-353.756,0.408939)">
            <g transform="matrix(1,0,0,1,42.2119,-770.12)">
                <ellipse cx="964.132" cy="1493.66" rx="31.136" ry="25.747" style="fill:white;stroke:black;stroke-width:34.58px;"/>
            </g>
            <g transform="matrix(1,0,0,1,35.5908,-776.77)">
                <ellipse cx="939.617" cy="1526.06" rx="28.942" ry="26.435" style="fill:white;stroke:black;stroke-width:34.58px;"/>
            </g>
            <g transform="matrix(1,0,0,1,42.2119,-770.12)">
                <path d="M995.245,1661.29L995.245,2481.69C995.245,2551.63 933.891,2608.41 858.32,2608.41C782.749,2608.41 721.394,2551.63 721.394,2481.69L721.394,1997.19L785.366,1650C784.616,1644.49 785.366,1655.8 785.366,1650C785.366,1596.72 818.441,1553.46 859.181,1553.46C899.92,1553.46 880.57,1640.49 932.996,1650C947.116,1652.56 996.49,1654.27 995.245,1661.29Z" style="fill:white;stroke:black;stroke-width:34.58px;"/>
            </g>
            <g transform="matrix(1,0,0,1,42.2119,-790.658)">
                <ellipse cx="903.702" cy="1573.03" rx="29.293" ry="19.568" style="fill:white;stroke:black;stroke-width:34.58px;"/>
            </g>
        </g>
        <g id="Helmet" transform="matrix(0.561208,0,0,0.561208,-353.756,0.408939)">
            <g transform="matrix(1,0,0,1,292.353,-895.19)">
                <path d="M1255.3,1685.7C1194.49,1741.2 1113.6,1775.07 1024.86,1775.07C836.101,1775.07 682.854,1621.82 682.854,1433.07C682.854,1244.31 836.101,1091.06 1024.86,1091.06C1113.6,1091.06 1194.49,1124.93 1255.3,1180.44C1230.92,1173 1205.05,1169 1178.25,1169C1032.51,1169 914.185,1287.33 914.185,1433.07C914.185,1578.81 1032.51,1697.13 1178.25,1697.13C1205.05,1697.13 1230.92,1693.13 1255.3,1685.7Z" style="fill:white;stroke:black;stroke-width:34.58px;"/>
            </g>
            <g transform="matrix(0.811272,0,0,0.77211,629.598,-568.61)">
                <path d="M1124.64,1760.26C1093.07,1769.89 1059.57,1775.07 1024.86,1775.07C836.101,1775.07 682.854,1621.82 682.854,1433.07C682.854,1244.31 836.101,1091.06 1024.86,1091.06C1059.57,1091.06 1093.07,1096.24 1124.64,1105.87C1213.41,1186.9 1269.14,1303.53 1269.14,1433.07C1269.14,1562.61 1213.41,1679.23 1124.64,1760.26Z" style="fill:rgb(147,145,134);stroke:black;stroke-width:43.66px;"/>
            </g>
            <g transform="matrix(0.77211,0,0,0.77211,679.299,-568.61)">
                <path d="M1124.64,1760.26C1093.07,1769.89 1059.57,1775.07 1024.86,1775.07C836.101,1775.07 682.854,1621.82 682.854,1433.07C682.854,1244.31 836.101,1091.06 1024.86,1091.06C1059.57,1091.06 1093.07,1096.24 1124.64,1105.87C1213.41,1186.9 1269.14,1303.53 1269.14,1433.07C1269.14,1562.61 1213.41,1679.23 1124.64,1760.26Z" style="fill:rgb(208,171,26);stroke:black;stroke-width:44.78px;"/>
            </g>
        </g>
        <g id="ArmUpper" transform="matrix(0.561208,0,0,0.561208,-353.756,0.408939)">
            <g transform="matrix(1,0,0,1,-48.8664,-858.497)">
                <ellipse cx="1333.41" cy="2084.07" rx="114.197" ry="201.911" style="fill:white;stroke:black;stroke-width:34.58px;"/>
            </g>
            <g transform="matrix(1,0,0,1,-58.7601,-826.247)">
                <ellipse cx="1343.31" cy="1900.44" rx="124.091" ry="112.85" style="fill:white;stroke:black;stroke-width:34.58px;"/>
            </g>
            <g transform="matrix(1,0,0,0.987738,-12.6782,-780.433)">
                <ellipse cx="1304.94" cy="2194.99" rx="85.724" ry="81.59" style="fill:white;stroke:black;stroke-width:34.79px;"/>
            </g>
        </g>
        <g id="ArmLower" transform="matrix(0.561208,0,0,0.561208,-353.756,0.408939)">
            <g transform="matrix(0.982923,0.184019,-0.184019,0.982923,468.133,-1002.01)">
                <ellipse cx="1462.27" cy="2239.4" rx="219.934" ry="81.637" style="fill:white;stroke:black;stroke-width:34.58px;"/>
            </g>
            <g transform="matrix(1.29342,0,0,1.10848,-451.193,-139.532)">
                <ellipse cx="1702.07" cy="1490.91" rx="60.354" ry="67.207" style="fill:white;stroke:black;stroke-width:28.71px;"/>
            </g>
        </g>
        <g id="Main-Logo" transform="matrix(0.314444,0,0,0.314444,98.0492,580.269)">
            <path d="M170.39,340.85C146.072,340.884 122.717,331.215 105.54,314L26.76,235.24C-8.662,199.595 -8.662,141.185 26.76,105.54L105.54,26.76C141.185,-8.662 199.595,-8.662 235.24,26.76L314,105.54C349.518,141.142 349.518,199.638 314,235.24L235.24,314C218.063,331.215 194.708,340.884 170.39,340.85ZM170.39,12C149.252,11.902 128.931,20.276 114,35.24L35.24,114C4.472,144.99 4.472,195.74 35.24,226.73L114,305.54C144.944,336.409 195.786,336.409 226.73,305.54L305.51,226.76C336.379,195.816 336.379,144.974 305.51,114.03L226.76,35.24C211.834,20.281 191.521,11.907 170.39,12Z" style="fill:url(#_Linear1);fill-rule:nonzero;"/>
            <path d="M170.39,323.68C150.028,323.764 130.457,315.689 116.08,301.27L39.51,224.7C9.768,194.887 9.768,145.903 39.51,116.09L116.08,39.52C145.893,9.778 194.877,9.778 224.69,39.52L301.26,116.09C330.944,145.929 330.944,194.861 301.26,224.7L224.7,301.27C210.323,315.689 190.752,323.764 170.39,323.68ZM170.39,25.05C152.15,25.018 134.63,32.264 121.74,45.17L45.17,121.74C18.523,148.447 18.523,192.333 45.17,219.04L121.74,295.61C148.476,322.193 192.304,322.193 219.04,295.61L295.61,219C322.193,192.264 322.193,148.436 295.61,121.7L219,45.17C206.12,32.274 188.616,25.029 170.39,25.05Z" style="fill:url(#_Linear2);fill-rule:nonzero;"/>
            <path d="M167.71,261.92C192.641,262.758 216.501,251.503 231.71,231.73C218.426,235.02 204.899,237.237 191.26,238.36L167.71,261.92ZM261.9,167.73L238.37,191.26C237.255,204.908 235.031,218.443 231.72,231.73C251.526,216.549 262.787,192.669 261.9,167.73Z" style="fill:rgb(49,33,70);fill-rule:nonzero;"/>
            <path d="M293.06,170.39C293.072,160.883 290.863,151.503 286.61,143L261.9,167.73C262.789,192.667 251.532,216.547 231.73,231.73C248,231.742 263.62,225.259 275.1,213.73C286.607,202.251 293.075,186.644 293.06,170.39ZM217.44,246C203.228,256.938 185.632,262.574 167.71,261.93L143,286.61C151.503,290.852 160.877,293.061 170.38,293.061C204.025,293.061 231.71,265.376 231.71,231.731C231.71,231.731 231.71,231.73 231.71,231.73C227.596,237.089 222.799,241.886 217.44,246ZM167.71,261.92L191.27,238.36C172.112,239.952 152.834,239.358 133.81,236.59L123.94,246.46C136.601,255.972 151.883,261.37 167.71,261.92ZM231.73,170.39C231.746,161.406 229.779,152.527 225.97,144.39L154.79,215.6C155.23,216.21 155.66,216.83 156.13,217.44C160.24,222.802 165.034,227.603 170.39,231.72C170.393,231.72 170.397,231.72 170.4,231.72C204.045,231.72 231.73,204.035 231.73,170.39L231.73,170.39Z" style="fill:rgb(90,39,82);fill-rule:nonzero;"/>
            <path d="M236.57,133.83C239.342,152.84 239.949,172.103 238.38,191.25L261.91,167.72C261.375,151.904 255.971,136.633 246.44,124L236.57,133.83Z" style="fill:rgb(90,39,82);fill-rule:nonzero;"/>
            <path d="M156.13,217.44C155.67,216.84 155.24,216.22 154.79,215.6L144.43,226C152.567,229.809 161.446,231.776 170.43,231.76C165.057,227.633 160.25,222.818 156.13,217.44ZM123.94,246.46L114.16,256.24C117.226,263.269 121.581,269.663 127,275.09C131.68,279.762 137.083,283.649 143,286.6L167.69,261.91C151.871,261.359 136.597,255.965 123.94,246.46ZM261.9,167.73L286.61,143C280.17,130.13 269.416,119.917 256.23,114.15L246.43,123.95C255.973,136.599 261.377,151.894 261.9,167.73ZM154.79,215.6L226,144.43C219.895,131.406 209.414,120.925 196.39,114.82L140.16,171C140.27,187.026 145.386,202.623 154.79,215.6ZM94.35,216.82C94.5,217.03 94.65,217.24 94.8,217.44C98.91,222.802 103.704,227.603 109.06,231.72C107.06,223.553 105.447,215.297 104.22,206.95L94.35,216.82Z" style="fill:rgb(165,64,92);fill-rule:nonzero;"/>
            <path d="M123.94,246.46L133.81,236.59C125.484,235.384 117.224,233.762 109.06,231.73C113.329,237.292 118.335,242.248 123.94,246.46ZM246.44,124C246.29,123.79 246.14,123.58 245.99,123.38C241.88,118.018 237.086,113.217 231.73,109.1C233.73,117.267 235.343,125.523 236.57,133.87L246.44,124ZM216.84,94.33L207,104.2C215.326,105.406 223.586,107.028 231.75,109.06C227.472,103.496 222.456,98.54 216.84,94.33Z" style="fill:rgb(165,64,92);fill-rule:nonzero;"/>
            <path d="M94.8,217.44C94.64,217.24 94.5,217.02 94.35,216.82L84.55,226.62C92.279,229.997 100.625,231.737 109.06,231.73C103.703,227.61 98.909,222.805 94.8,217.44Z" style="fill:rgb(239,89,101);fill-rule:nonzero;"/>
            <path d="M109.06,231.73C109.053,240.165 110.793,248.511 114.17,256.24L123.95,246.46C118.341,242.248 113.332,237.293 109.06,231.73ZM246,123.34C246.16,123.54 246.3,123.76 246.45,123.96L256.25,114.16C248.521,110.783 240.175,109.043 231.74,109.05C237.097,113.17 241.891,117.975 246,123.34ZM231.73,109.06C231.736,100.625 229.997,92.28 226.62,84.55L216.84,94.33C222.449,98.542 227.458,103.497 231.73,109.06ZM140.16,171L114.82,196.34C120.916,209.382 131.398,219.882 144.43,226L154.79,215.64C145.379,202.652 140.262,187.039 140.16,171ZM140.16,171L196.35,114.81C188.213,111.001 179.334,109.034 170.35,109.05C151.127,123.799 139.932,146.772 140.16,171ZM94.35,216.82L104.22,206.95C101.448,187.94 100.841,168.677 102.41,149.53L78.88,173.06C79.407,188.889 84.811,204.176 94.35,216.82Z" style="fill:rgb(239,89,101);fill-rule:nonzero;"/>
            <path d="M173.07,78.87L149.51,102.43C168.678,100.836 187.966,101.43 207,104.2L216.87,94.33C204.201,84.812 188.907,79.414 173.07,78.87Z" style="fill:rgb(239,89,101);fill-rule:nonzero;"/>
            <path d="M170.39,109.06C136.744,109.066 109.061,136.754 109.061,170.4C109.061,179.367 111.027,188.225 114.82,196.35L140.16,171C139.945,146.769 151.155,123.799 170.39,109.06ZM78.88,173.06L54.17,197.77C57.121,203.687 61.008,209.09 65.68,213.77C71.109,219.193 77.506,223.552 84.54,226.62L94.34,216.82C84.805,204.175 79.404,188.888 78.88,173.06ZM216.84,94.33L226.62,84.55C220.853,71.364 210.64,60.61 197.77,54.17L173.07,78.87C188.897,79.42 204.179,84.818 216.84,94.33ZM173.07,78.87C148.139,78.032 124.279,89.287 109.07,109.06C122.354,105.77 135.881,103.553 149.52,102.43L173.07,78.87ZM78.88,173.06L102.41,149.53C103.525,135.882 105.749,122.347 109.06,109.06C89.254,124.241 77.993,148.121 78.88,173.06Z" style="fill:rgb(244,125,51);fill-rule:nonzero;"/>
            <path d="M109.06,109.06C109.06,109.06 109.059,109.06 109.059,109.06C75.414,109.06 47.729,136.745 47.729,170.39C47.729,179.893 49.938,189.267 54.18,197.77L78.89,173.06C78.001,148.123 89.258,124.243 109.06,109.06Z" style="fill:rgb(249,160,0);fill-rule:nonzero;"/>
            <path d="M123.34,94.8C137.552,83.862 155.148,78.226 173.07,78.87L197.76,54.18C189.257,49.938 179.883,47.729 170.38,47.729C136.735,47.729 109.05,75.414 109.05,109.059C109.05,109.059 109.05,109.06 109.05,109.06C113.17,103.703 117.975,98.909 123.34,94.8Z" style="fill:rgb(249,160,0);fill-rule:nonzero;"/>
        </g>
        <g transform="matrix(5.73544e-17,-0.943567,0.943567,5.73544e-17,-8.9503,1319.16)">
            <path d="M395.48,180L387.78,180L387.78,203.11L370.1,203.11L370.1,137.31L395.48,137.31C404.76,137.31 411.67,143.23 411.67,153.11L411.67,164.17C411.67,174 404.76,180 395.48,180ZM395.19,153.93C395.19,151.56 394,150.67 392.13,150.67L387.78,150.67L387.78,167.85L392.13,167.85C394,167.85 395.19,166.85 395.19,164.59L395.19,153.93ZM439.52,204.75C426.09,204.75 417.99,197.75 417.99,185.99L417.99,182.44L433.39,182.44L433.39,185.6C433.39,188.76 435.39,191.03 438.72,191.03C442.05,191.03 443.66,189.15 443.66,185.7C443.66,181.65 438.82,178.79 433.39,175.33C426.39,170.99 418.48,165.65 418.48,155.98C418.48,145.71 425.79,135.74 440.01,135.73C451.66,135.73 459.66,144.13 459.66,154.39L459.66,157.16L444.26,157.16L444.26,154.1C444.26,151.24 442.38,149.46 440.01,149.46C439.972,149.459 439.933,149.459 439.895,149.459C437.41,149.459 435.365,151.503 435.365,153.989C435.365,154.059 435.367,154.13 435.37,154.2C435.37,158.2 440.21,161.01 445.64,164.47C452.64,168.91 460.64,174.34 460.64,184.41C460.65,194.78 453.14,204.75 439.52,204.75ZM496.19,175.33L496.19,203.08L478.52,203.08L478.52,175.33L463.12,137.33L481.29,137.33L488.5,159.25L494.92,137.33L512.4,137.33L496.19,175.33ZM537.56,204.75C524.33,204.75 514.65,196.65 514.65,184.51L514.65,155.87C514.65,143.72 524.33,135.63 537.56,135.63C550.1,135.63 558.1,143.33 558.1,154.68L558.1,162.09L542.4,162.09L542.4,154.59C542.4,152.02 540.72,150.24 537.56,150.25C534.4,150.26 532.72,152.03 532.72,154.59L532.72,185.79C532.72,188.36 534.4,190.13 537.56,190.13C540.72,190.13 542.4,188.36 542.4,185.78L542.4,178.27L558.1,178.27L558.1,185.68C558.1,197.05 550.1,204.75 537.56,204.75ZM594.64,203.07L594.64,179L584.17,179L584.17,203.09L566.49,203.09L566.49,137.31L584.17,137.31L584.17,164L594.64,164L594.64,137.31L612.31,137.31L612.31,203.07L594.64,203.07ZM621.69,203.07L621.69,137.31L659.31,137.31L659.31,151.63L639.36,151.63L639.36,163.18L652.3,163.18L652.3,175.62L639.36,175.62L639.36,187.86L659.31,187.86L659.31,203.07L621.69,203.07Z" style="fill:rgb(90,39,82);fill-rule:nonzero;"/>
        </g>
        <g id="boot" transform="matrix(0.561208,0,0,0.561208,-353.756,0.408939)">
            <path d="M1583.75,3200.51C1587.96,3200.51 1591.85,3202.78 1593.94,3206.44C1596.03,3210.1 1596,3214.6 1593.85,3218.23C1593.39,3219.01 1592.96,3219.74 1592.57,3220.4C1591.3,3222.55 1588.99,3223.87 1586.5,3223.87C1553.73,3223.87 1330.07,3223.87 1256.58,3223.87C1243.68,3223.87 1233.23,3213.41 1233.23,3200.52C1233.23,3200.52 1233.23,3200.51 1233.23,3200.51L1583.75,3200.51Z" style="fill:rgb(112,106,106);stroke:black;stroke-width:34.58px;"/>
            <rect x="1275" y="3200.51" width="44.323" height="23.351" style="fill:rgb(112,106,106);stroke:black;stroke-width:34.58px;"/>
            <g transform="matrix(1,0,0,1,85.7789,-5.00222e-12)">
                <rect x="1275" y="3200.51" width="44.323" height="23.351" style="fill:rgb(112,106,106);stroke:black;stroke-width:34.58px;"/>
            </g>
            <g transform="matrix(1,0,0,1,175.811,-5.00222e-12)">
                <rect x="1275" y="3200.51" width="44.323" height="23.351" style="fill:rgb(112,106,106);stroke:black;stroke-width:34.58px;"/>
            </g>
            <g transform="matrix(1,0,0,1,263.069,-5.00222e-12)">
                <rect x="1275" y="3200.51" width="44.323" height="23.351" style="fill:rgb(112,106,106);stroke:black;stroke-width:34.58px;"/>
            </g>
        </g>
    </g>
    <g transform="matrix(0.773761,0,0,0.773761,254.448,-215.906)">
        <g id="tires">
            <g transform="matrix(1,0,0,1,-39.0254,-51)">
                <path d="M341.765,1286.72L341.765,1366.5C341.765,1388.51 323.891,1406.39 301.876,1406.39L206.83,1406.39C184.815,1406.39 166.941,1388.51 166.941,1366.5L166.941,1286.72C166.941,1264.7 184.815,1246.83 206.83,1246.83L301.876,1246.83C323.891,1246.83 341.765,1264.7 341.765,1286.72Z" style="fill:rgb(53,53,45);"/>
            </g>
            <g transform="matrix(1,0,0,1,636.768,-51)">
                <path d="M341.765,1286.72L341.765,1366.5C341.765,1388.51 323.891,1406.39 301.876,1406.39L206.83,1406.39C184.815,1406.39 166.941,1388.51 166.941,1366.5L166.941,1286.72C166.941,1264.7 184.815,1246.83 206.83,1246.83L301.876,1246.83C323.891,1246.83 341.765,1264.7 341.765,1286.72Z" style="fill:rgb(53,53,45);"/>
            </g>
        </g>
        <g id="body" transform="matrix(1,0,0,0.576963,0,351.161)">
            <g id="body1" serif:id="body">
                <path id="body2" serif:id="body" d="M935.228,1077.18C935.228,1089.07 937.951,1100.46 942.798,1108.86C947.646,1117.26 954.22,1121.98 961.075,1121.98C967.899,1121.98 973.397,1121.98 973.397,1121.98C981.354,1121.98 988.984,1126.73 994.61,1135.17C1000.24,1143.61 1003.4,1155.06 1003.4,1167C1003.4,1167 1003.4,1406.02 1003.4,1507.59C1003.4,1532.33 991.825,1552.39 977.549,1552.39C846.907,1552.39 260.372,1552.39 129.73,1552.39C115.455,1552.39 103.882,1532.33 103.882,1507.59C103.882,1406.02 103.882,1167 103.882,1167C103.882,1155.06 107.043,1143.61 112.669,1135.17C118.295,1126.73 125.926,1121.98 133.882,1121.98L146.204,1121.98C153.059,1121.98 159.634,1117.26 164.481,1108.86C169.328,1100.46 172.052,1089.07 172.052,1077.18C172.052,990.648 172.052,808.953 172.052,808.953C172.052,713.649 223.539,636.389 287.052,636.389L820.228,636.389C883.74,636.389 935.228,713.649 935.228,808.953C935.228,808.953 935.228,990.648 935.228,1077.18Z" style="fill:rgb(164,164,164);stroke:black;stroke-width:10.29px;"/>
            </g>
        </g>
        <g id="headlights">
            <path d="M352.79,1070.27C359.928,1070.27 365.714,1076.05 365.714,1083.19L365.714,1145.97C365.714,1153.11 359.928,1158.89 352.79,1158.89L179.865,1158.89C172.728,1158.89 166.941,1153.11 166.941,1145.97L166.941,1083.19C166.941,1076.05 172.728,1070.27 179.865,1070.27L352.79,1070.27Z" style="fill:rgb(201,209,86);stroke:black;stroke-width:8.4px;"/>
            <g transform="matrix(1,0,0,1,572.793,0)">
                <path d="M352.79,1070.27C359.928,1070.27 365.714,1076.05 365.714,1083.19L365.714,1145.97C365.714,1153.11 359.928,1158.89 352.79,1158.89L179.865,1158.89C172.728,1158.89 166.941,1153.11 166.941,1145.97L166.941,1083.19C166.941,1076.05 172.728,1070.27 179.865,1070.27L352.79,1070.27Z" style="fill:rgb(201,209,86);stroke:black;stroke-width:8.4px;"/>
            </g>
        </g>
        <g id="windshield">
            <path d="M846.374,788.939C864.218,788.939 878.684,803.404 878.684,821.249C878.684,870.828 878.684,960 878.684,960L227.622,960L227.622,821.269C227.622,803.414 242.097,788.939 259.952,788.939C370.906,788.939 735.452,788.939 846.374,788.939Z" style="fill:rgb(53,53,45);"/>
        </g>
        <g id="grille">
            <g transform="matrix(0.074404,0,0,1,357.693,-9)">
                <rect x="386.446" y="1029.99" width="334.298" height="182.547" style="fill:rgb(115,115,115);stroke:black;stroke-width:11.85px;"/>
            </g>
            <g transform="matrix(0.074404,0,0,1,400.001,-9)">
                <rect x="386.446" y="1029.99" width="334.298" height="182.547" style="fill:rgb(115,115,115);stroke:black;stroke-width:11.85px;"/>
            </g>
            <g transform="matrix(0.074404,0,0,1,444.066,-9)">
                <rect x="386.446" y="1029.99" width="334.298" height="182.547" style="fill:rgb(115,115,115);stroke:black;stroke-width:11.85px;"/>
            </g>
            <g transform="matrix(0.074404,0,0,1,486.374,-9)">
                <rect x="386.446" y="1029.99" width="334.298" height="182.547" style="fill:rgb(115,115,115);stroke:black;stroke-width:11.85px;"/>
            </g>
            <g transform="matrix(0.074404,0,0,1,529.695,-9)">
                <rect x="386.446" y="1029.99" width="334.298" height="182.547" style="fill:rgb(115,115,115);stroke:black;stroke-width:11.85px;"/>
            </g>
            <g transform="matrix(0.074404,0,0,1,572.003,-9)">
                <rect x="386.446" y="1029.99" width="334.298" height="182.547" style="fill:rgb(115,115,115);stroke:black;stroke-width:11.85px;"/>
            </g>
            <g transform="matrix(0.074404,0,0,1,615.687,-9)">
                <rect x="386.446" y="1029.99" width="334.298" height="182.547" style="fill:rgb(115,115,115);stroke:black;stroke-width:11.85px;"/>
            </g>
            <g transform="matrix(0.074404,0,0,1,657.995,-9)">
                <rect x="386.446" y="1029.99" width="334.298" height="182.547" style="fill:rgb(115,115,115);stroke:black;stroke-width:11.85px;"/>
            </g>
        </g>
        <g id="bumper">
            <path d="M987.888,1212.54C992.002,1212.54 995.946,1214.17 998.855,1217.08C1001.76,1219.99 1003.4,1223.93 1003.4,1228.05C1003.4,1237.58 1003.4,1250.02 1003.4,1261.01C1003.4,1267.87 1000.67,1274.44 995.827,1279.29C990.979,1284.14 984.405,1286.86 977.549,1286.86C846.907,1286.86 260.372,1286.86 129.73,1286.86C122.875,1286.86 116.3,1284.14 111.453,1279.29C106.605,1274.44 103.882,1267.87 103.882,1261.01C103.882,1250.02 103.882,1237.58 103.882,1228.05C103.882,1223.93 105.516,1219.99 108.424,1217.08C111.333,1214.17 115.278,1212.54 119.391,1212.54C228.44,1212.54 878.839,1212.54 987.888,1212.54Z" style="fill:rgb(126,127,119);stroke:black;stroke-width:8.4px;"/>
        </g>
    </g>
    <defs>
        <linearGradient id="_Linear1" x1="0" y1="0" x2="1" y2="0" gradientUnits="userSpaceOnUse" gradientTransform="matrix(208.48,208.48,-208.48,208.48,66.15,66.15)"><stop offset="0" style="stop-color:rgb(49,33,70);stop-opacity:1"/><stop offset="0.2" style="stop-color:rgb(90,39,82);stop-opacity:1"/><stop offset="0.6" style="stop-color:rgb(239,89,101);stop-opacity:1"/><stop offset="1" style="stop-color:rgb(249,160,0);stop-opacity:1"/></linearGradient>
        <linearGradient id="_Linear2" x1="0" y1="0" x2="1" y2="0" gradientUnits="userSpaceOnUse" gradientTransform="matrix(56724.2,56751.6,-56751.6,56724.2,23848.9,23860.4)"><stop offset="0" style="stop-color:rgb(49,33,70);stop-opacity:1"/><stop offset="0.2" style="stop-color:rgb(90,39,82);stop-opacity:1"/><stop offset="0.6" style="stop-color:rgb(239,89,101);stop-opacity:1"/><stop offset="1" style="stop-color:rgb(249,160,0);stop-opacity:1"/></linearGradient>
    </defs>
</svg>
