<?xml version="1.0" encoding="UTF-8" standalone="no"?>
<!DOCTYPE svg PUBLIC "-//W3C//DTD SVG 1.1//EN" "http://www.w3.org/Graphics/SVG/1.1/DTD/svg11.dtd">
<svg width="100%" height="100%" viewBox="0 0 660 341" version="1.1" xmlns="http://www.w3.org/2000/svg" xmlns:xlink="http://www.w3.org/1999/xlink" xml:space="preserve" xmlns:serif="http://www.serif.com/" style="fill-rule:evenodd;clip-rule:evenodd;stroke-linejoin:round;stroke-miterlimit:2;">
    <g id="Main-Logo">
        <path d="M170.39,340.85C146.072,340.884 122.717,331.215 105.54,314L26.76,235.24C-8.662,199.595 -8.662,141.185 26.76,105.54L105.54,26.76C141.185,-8.662 199.595,-8.662 235.24,26.76L314,105.54C349.518,141.142 349.518,199.638 314,235.24L235.24,314C218.063,331.215 194.708,340.884 170.39,340.85ZM170.39,12C149.252,11.902 128.931,20.276 114,35.24L35.24,114C4.472,144.99 4.472,195.74 35.24,226.73L114,305.54C144.944,336.409 195.786,336.409 226.73,305.54L305.51,226.76C336.379,195.816 336.379,144.974 305.51,114.03L226.76,35.24C211.834,20.281 191.521,11.907 170.39,12Z" style="fill:url(#_Linear1);fill-rule:nonzero;"/>
        <path d="M170.39,323.68C150.028,323.764 130.457,315.689 116.08,301.27L39.51,224.7C9.768,194.887 9.768,145.903 39.51,116.09L116.08,39.52C145.893,9.778 194.877,9.778 224.69,39.52L301.26,116.09C330.944,145.929 330.944,194.861 301.26,224.7L224.7,301.27C210.323,315.689 190.752,323.764 170.39,323.68ZM170.39,25.05C152.15,25.018 134.63,32.264 121.74,45.17L45.17,121.74C18.523,148.447 18.523,192.333 45.17,219.04L121.74,295.61C148.476,322.193 192.304,322.193 219.04,295.61L295.61,219C322.193,192.264 322.193,148.436 295.61,121.7L219,45.17C206.12,32.274 188.616,25.029 170.39,25.05Z" style="fill:url(#_Linear2);fill-rule:nonzero;"/>
        <path d="M167.71,261.92C192.641,262.758 216.501,251.503 231.71,231.73C218.426,235.02 204.899,237.237 191.26,238.36L167.71,261.92ZM261.9,167.73L238.37,191.26C237.255,204.908 235.031,218.443 231.72,231.73C251.526,216.549 262.787,192.669 261.9,167.73Z" style="fill:rgb(49,33,70);fill-rule:nonzero;"/>
        <path d="M293.06,170.39C293.072,160.883 290.863,151.503 286.61,143L261.9,167.73C262.789,192.667 251.532,216.547 231.73,231.73C248,231.742 263.62,225.259 275.1,213.73C286.607,202.251 293.075,186.644 293.06,170.39ZM217.44,246C203.228,256.938 185.632,262.574 167.71,261.93L143,286.61C151.503,290.852 160.877,293.061 170.38,293.061C204.025,293.061 231.71,265.376 231.71,231.731C231.71,231.731 231.71,231.73 231.71,231.73C227.596,237.089 222.799,241.886 217.44,246ZM167.71,261.92L191.27,238.36C172.112,239.952 152.834,239.358 133.81,236.59L123.94,246.46C136.601,255.972 151.883,261.37 167.71,261.92ZM231.73,170.39C231.746,161.406 229.779,152.527 225.97,144.39L154.79,215.6C155.23,216.21 155.66,216.83 156.13,217.44C160.24,222.802 165.034,227.603 170.39,231.72C170.393,231.72 170.397,231.72 170.4,231.72C204.045,231.72 231.73,204.035 231.73,170.39L231.73,170.39Z" style="fill:rgb(90,39,82);fill-rule:nonzero;"/>
        <path d="M236.57,133.83C239.342,152.84 239.949,172.103 238.38,191.25L261.91,167.72C261.375,151.904 255.971,136.633 246.44,124L236.57,133.83Z" style="fill:rgb(90,39,82);fill-rule:nonzero;"/>
        <path d="M156.13,217.44C155.67,216.84 155.24,216.22 154.79,215.6L144.43,226C152.567,229.809 161.446,231.776 170.43,231.76C165.057,227.633 160.25,222.818 156.13,217.44ZM123.94,246.46L114.16,256.24C117.226,263.269 121.581,269.663 127,275.09C131.68,279.762 137.083,283.649 143,286.6L167.69,261.91C151.871,261.359 136.597,255.965 123.94,246.46ZM261.9,167.73L286.61,143C280.17,130.13 269.416,119.917 256.23,114.15L246.43,123.95C255.973,136.599 261.377,151.894 261.9,167.73ZM154.79,215.6L226,144.43C219.895,131.406 209.414,120.925 196.39,114.82L140.16,171C140.27,187.026 145.386,202.623 154.79,215.6ZM94.35,216.82C94.5,217.03 94.65,217.24 94.8,217.44C98.91,222.802 103.704,227.603 109.06,231.72C107.06,223.553 105.447,215.297 104.22,206.95L94.35,216.82Z" style="fill:rgb(165,64,92);fill-rule:nonzero;"/>
        <path d="M123.94,246.46L133.81,236.59C125.484,235.384 117.224,233.762 109.06,231.73C113.329,237.292 118.335,242.248 123.94,246.46ZM246.44,124C246.29,123.79 246.14,123.58 245.99,123.38C241.88,118.018 237.086,113.217 231.73,109.1C233.73,117.267 235.343,125.523 236.57,133.87L246.44,124ZM216.84,94.33L207,104.2C215.326,105.406 223.586,107.028 231.75,109.06C227.472,103.496 222.456,98.54 216.84,94.33Z" style="fill:rgb(165,64,92);fill-rule:nonzero;"/>
        <path d="M94.8,217.44C94.64,217.24 94.5,217.02 94.35,216.82L84.55,226.62C92.279,229.997 100.625,231.737 109.06,231.73C103.703,227.61 98.909,222.805 94.8,217.44Z" style="fill:rgb(239,89,101);fill-rule:nonzero;"/>
        <path d="M109.06,231.73C109.053,240.165 110.793,248.511 114.17,256.24L123.95,246.46C118.341,242.248 113.332,237.293 109.06,231.73ZM246,123.34C246.16,123.54 246.3,123.76 246.45,123.96L256.25,114.16C248.521,110.783 240.175,109.043 231.74,109.05C237.097,113.17 241.891,117.975 246,123.34ZM231.73,109.06C231.736,100.625 229.997,92.28 226.62,84.55L216.84,94.33C222.449,98.542 227.458,103.497 231.73,109.06ZM140.16,171L114.82,196.34C120.916,209.382 131.398,219.882 144.43,226L154.79,215.64C145.379,202.652 140.262,187.039 140.16,171ZM140.16,171L196.35,114.81C188.213,111.001 179.334,109.034 170.35,109.05C151.127,123.799 139.932,146.772 140.16,171ZM94.35,216.82L104.22,206.95C101.448,187.94 100.841,168.677 102.41,149.53L78.88,173.06C79.407,188.889 84.811,204.176 94.35,216.82Z" style="fill:rgb(239,89,101);fill-rule:nonzero;"/>
        <path d="M173.07,78.87L149.51,102.43C168.678,100.836 187.966,101.43 207,104.2L216.87,94.33C204.201,84.812 188.907,79.414 173.07,78.87Z" style="fill:rgb(239,89,101);fill-rule:nonzero;"/>
        <path d="M170.39,109.06C136.744,109.066 109.061,136.754 109.061,170.4C109.061,179.367 111.027,188.225 114.82,196.35L140.16,171C139.945,146.769 151.155,123.799 170.39,109.06ZM78.88,173.06L54.17,197.77C57.121,203.687 61.008,209.09 65.68,213.77C71.109,219.193 77.506,223.552 84.54,226.62L94.34,216.82C84.805,204.175 79.404,188.888 78.88,173.06ZM216.84,94.33L226.62,84.55C220.853,71.364 210.64,60.61 197.77,54.17L173.07,78.87C188.897,79.42 204.179,84.818 216.84,94.33ZM173.07,78.87C148.139,78.032 124.279,89.287 109.07,109.06C122.354,105.77 135.881,103.553 149.52,102.43L173.07,78.87ZM78.88,173.06L102.41,149.53C103.525,135.882 105.749,122.347 109.06,109.06C89.254,124.241 77.993,148.121 78.88,173.06Z" style="fill:rgb(244,125,51);fill-rule:nonzero;"/>
        <path d="M109.06,109.06C109.06,109.06 109.059,109.06 109.059,109.06C75.414,109.06 47.729,136.745 47.729,170.39C47.729,179.893 49.938,189.267 54.18,197.77L78.89,173.06C78.001,148.123 89.258,124.243 109.06,109.06Z" style="fill:rgb(249,160,0);fill-rule:nonzero;"/>
        <path d="M123.34,94.8C137.552,83.862 155.148,78.226 173.07,78.87L197.76,54.18C189.257,49.938 179.883,47.729 170.38,47.729C136.735,47.729 109.05,75.414 109.05,109.059C109.05,109.059 109.05,109.06 109.05,109.06C113.17,103.703 117.975,98.909 123.34,94.8Z" style="fill:rgb(249,160,0);fill-rule:nonzero;"/>
        <path d="M395.48,180L387.78,180L387.78,203.11L370.1,203.11L370.1,137.31L395.48,137.31C404.76,137.31 411.67,143.23 411.67,153.11L411.67,164.17C411.67,174 404.76,180 395.48,180ZM395.19,153.93C395.19,151.56 394,150.67 392.13,150.67L387.78,150.67L387.78,167.85L392.13,167.85C394,167.85 395.19,166.85 395.19,164.59L395.19,153.93ZM439.52,204.75C426.09,204.75 417.99,197.75 417.99,185.99L417.99,182.44L433.39,182.44L433.39,185.6C433.39,188.76 435.39,191.03 438.72,191.03C442.05,191.03 443.66,189.15 443.66,185.7C443.66,181.65 438.82,178.79 433.39,175.33C426.39,170.99 418.48,165.65 418.48,155.98C418.48,145.71 425.79,135.74 440.01,135.73C451.66,135.73 459.66,144.13 459.66,154.39L459.66,157.16L444.26,157.16L444.26,154.1C444.26,151.24 442.38,149.46 440.01,149.46C439.972,149.459 439.933,149.459 439.895,149.459C437.41,149.459 435.365,151.503 435.365,153.989C435.365,154.059 435.367,154.13 435.37,154.2C435.37,158.2 440.21,161.01 445.64,164.47C452.64,168.91 460.64,174.34 460.64,184.41C460.65,194.78 453.14,204.75 439.52,204.75ZM496.19,175.33L496.19,203.08L478.52,203.08L478.52,175.33L463.12,137.33L481.29,137.33L488.5,159.25L494.92,137.33L512.4,137.33L496.19,175.33ZM537.56,204.75C524.33,204.75 514.65,196.65 514.65,184.51L514.65,155.87C514.65,143.72 524.33,135.63 537.56,135.63C550.1,135.63 558.1,143.33 558.1,154.68L558.1,162.09L542.4,162.09L542.4,154.59C542.4,152.02 540.72,150.24 537.56,150.25C534.4,150.26 532.72,152.03 532.72,154.59L532.72,185.79C532.72,188.36 534.4,190.13 537.56,190.13C540.72,190.13 542.4,188.36 542.4,185.78L542.4,178.27L558.1,178.27L558.1,185.68C558.1,197.05 550.1,204.75 537.56,204.75ZM594.64,203.07L594.64,179L584.17,179L584.17,203.09L566.49,203.09L566.49,137.31L584.17,137.31L584.17,164L594.64,164L594.64,137.31L612.31,137.31L612.31,203.07L594.64,203.07ZM621.69,203.07L621.69,137.31L659.31,137.31L659.31,151.63L639.36,151.63L639.36,163.18L652.3,163.18L652.3,175.62L639.36,175.62L639.36,187.86L659.31,187.86L659.31,203.07L621.69,203.07Z" style="fill:rgb(90,39,82);fill-rule:nonzero;"/>
    </g>
    <g id="Layer1">
        <g id="top-main-logo" transform="matrix(0.764609,0,0,0.764609,113.235,50.688)">
            <text x="368.584px" y="100.88px" style="font-family:'Kodchasan-Regular', 'Kodchasan';font-size:56.238px;fill:rgb(165,64,92);">A YEAR O<tspan x="640.381px " y="100.88px ">N</tspan></text>
        </g>
        <g transform="matrix(0.677943,0,0,0.677943,374.208,242.385)">
            <g transform="matrix(63.4538,0,0,63.4538,415.368,0)">
            </g>
            <text x="0px" y="0px" style="font-family:'Kodchasan-Medium', 'Kodchasan';font-weight:500;font-size:63.454px;fill:rgb(239,89,101);">SIMULA<tspan x="254.83px " y="0px ">T</tspan>IO<tspan x="369.047px " y="0px ">N</tspan></text>
        </g>
    </g>
    <defs>
        <linearGradient id="_Linear1" x1="0" y1="0" x2="1" y2="0" gradientUnits="userSpaceOnUse" gradientTransform="matrix(208.48,208.48,-208.48,208.48,66.15,66.15)"><stop offset="0" style="stop-color:rgb(49,33,70);stop-opacity:1"/><stop offset="0.2" style="stop-color:rgb(90,39,82);stop-opacity:1"/><stop offset="0.6" style="stop-color:rgb(239,89,101);stop-opacity:1"/><stop offset="1" style="stop-color:rgb(249,160,0);stop-opacity:1"/></linearGradient>
        <linearGradient id="_Linear2" x1="0" y1="0" x2="1" y2="0" gradientUnits="userSpaceOnUse" gradientTransform="matrix(56724.2,56751.6,-56751.6,56724.2,23848.9,23860.4)"><stop offset="0" style="stop-color:rgb(49,33,70);stop-opacity:1"/><stop offset="0.2" style="stop-color:rgb(90,39,82);stop-opacity:1"/><stop offset="0.6" style="stop-color:rgb(239,89,101);stop-opacity:1"/><stop offset="1" style="stop-color:rgb(249,160,0);stop-opacity:1"/></linearGradient>
    </defs>
</svg>
