<?xml version="1.0" standalone="no"?>
<!DOCTYPE svg PUBLIC "-//W3C//DTD SVG 20010904//EN"
 "http://www.w3.org/TR/2001/REC-SVG-20010904/DTD/svg10.dtd">
<svg version="1.0" xmlns="http://www.w3.org/2000/svg"
 width="548.000000pt" height="548.000000pt" viewBox="0 0 548.000000 548.000000"
 preserveAspectRatio="xMidYMid meet">
<metadata>
Created by potrace 1.11, written by Peter Selinger 2001-2013
</metadata>
<g transform="translate(0.000000,548.000000) scale(0.100000,-0.100000)"
fill="#000000" stroke="none">
<path d="M2579 5476 c-2 -2 -27 -6 -56 -10 -211 -25 -467 -117 -654 -237 -46
-29 -89 -58 -95 -64 -6 -5 -29 -23 -50 -39 -81 -61 -1341 -1331 -1400 -1410
-275 -378 -378 -843 -288 -1301 50 -248 179 -519 343 -715 64 -77 1242 -1254
1321 -1321 277 -233 635 -366 1005 -374 275 -5 530 52 776 176 106 53 161 87
259 162 78 61 1287 1263 1369 1362 163 197 288 455 335 692 9 43 18 92 22 108
14 66 13 380 -2 474 -46 300 -168 577 -354 801 -70 84 -1234 1248 -1324 1324
-192 162 -466 294 -701 340 -44 9 -93 19 -110 22 -32 7 -390 16 -396 10z m307
-681 c146 -17 338 -94 473 -189 102 -73 1201 -1174 1261 -1265 54 -81 122
-227 145 -311 43 -157 51 -362 20 -490 0 -3 -5 -23 -10 -45 -4 -22 -9 -44 -11
-50 -17 -77 -91 -223 -162 -325 -60 -85 -1156 -1181 -1242 -1242 -108 -76
-273 -151 -385 -172 -16 -4 -41 -9 -55 -12 -60 -14 -270 -14 -348 0 -171 30
-328 97 -460 195 -37 27 -322 306 -634 618 -636 639 -654 659 -731 868 -53
142 -62 203 -61 385 1 229 59 410 193 600 48 68 1103 1132 1203 1212 80 65
181 123 282 163 47 18 86 32 86 30 0 -3 12 0 27 6 26 10 50 14 158 28 57 8
169 6 251 -4z"/>
<path d="M2559 4675 c-153 -31 -307 -102 -424 -196 -38 -31 -309 -297 -601
-590 -546 -549 -589 -598 -650 -736 -34 -75 -59 -153 -74 -228 -15 -70 -18
-244 -6 -329 16 -127 84 -294 167 -416 47 -69 1110 -1135 1194 -1198 167 -123
384 -192 595 -186 78 2 109 5 195 20 103 18 257 89 367 168 90 65 1159 1140
1203 1211 181 285 214 607 95 914 -65 168 -101 210 -702 811 -575 575 -626
620 -771 684 -58 26 -174 64 -222 72 -67 12 -302 11 -366 -1z m346 -103 c22
-6 51 -13 65 -16 68 -12 180 -66 275 -129 93 -63 1139 -1114 1196 -1202 97
-150 141 -296 142 -469 0 -61 -3 -128 -6 -149 -19 -115 -69 -243 -135 -347
-44 -68 -1090 -1121 -1183 -1191 -175 -130 -419 -193 -634 -164 -125 17 -279
78 -385 153 -85 60 -1122 1097 -1182 1182 -105 148 -160 324 -159 507 2 194
65 378 181 528 22 28 281 291 577 587 420 418 555 547 615 586 78 50 182 97
239 107 18 3 35 8 39 10 3 2 29 7 56 11 27 3 51 8 53 9 7 8 208 -4 246 -13z"/>
<path d="M2727 4304 c-1 -1 -30 -4 -64 -7 -257 -25 -491 -184 -612 -417 -53
-102 -77 -183 -86 -298 -5 -58 -4 -63 12 -58 97 29 396 74 550 83 192 11 472
6 573 -11 14 -2 50 -7 80 -11 30 -4 64 -9 75 -11 11 -2 34 -6 50 -8 63 -9 208
-45 215 -53 8 -9 44 -186 60 -303 6 -41 13 -88 15 -105 22 -148 23 -612 1
-720 -2 -11 -7 -45 -11 -75 -10 -78 -14 -103 -36 -215 -11 -55 -21 -107 -23
-115 -4 -19 -178 -60 -326 -76 -25 -3 -50 -7 -57 -9 -80 -27 -675 -26 -818 1
-11 2 -38 6 -60 9 -72 9 -281 51 -295 60 -8 5 -33 108 -45 185 -3 19 -10 60
-15 90 -11 65 -17 114 -29 230 -9 86 -7 544 2 590 3 14 8 50 12 80 4 30 9 71
11 90 3 19 16 90 30 158 14 67 23 126 20 130 -7 11 -136 -4 -206 -24 -239 -68
-445 -263 -524 -498 -33 -100 -40 -149 -39 -271 3 -396 322 -734 716 -760 27
-1 50 -5 53 -8 2 -2 7 -26 9 -53 4 -39 12 -97 20 -134 0 -3 9 -30 19 -60 104
-308 398 -521 721 -524 117 0 169 7 256 35 219 71 395 233 482 444 34 82 46
129 53 216 4 41 8 75 9 77 1 1 31 5 66 8 202 16 422 135 541 291 68 90 129
208 142 274 2 13 7 35 10 49 13 54 16 88 17 165 2 386 -302 730 -681 770 -100
11 -100 11 -101 58 -3 180 -105 392 -253 527 -122 111 -284 182 -456 198 -44
5 -82 7 -83 6z"/>
<path d="M2670 3519 c-100 -11 -127 -17 -209 -49 -291 -113 -488 -390 -496
-701 -3 -121 7 -186 46 -294 55 -151 160 -287 294 -378 60 -41 185 -99 240
-111 17 -3 41 -9 55 -12 47 -10 219 -12 267 -2 26 5 59 12 73 14 51 10 157 58
222 100 401 258 481 802 171 1165 -128 148 -323 251 -507 265 -39 3 -75 7 -81
8 -5 1 -39 -1 -75 -5z"/>
</g>
</svg>
