<svg xmlns="http://www.w3.org/2000/svg" viewBox="0 0 40 40">
  <defs>
    <style>
      .cls-1{fill:#fff;}
    </style>
  </defs>
  <g id="Layer_2" data-name="Layer 2">
    <g id="Layer_1-2" data-name="Layer 1">
      <path d="M28.12 13.86a3.45 3.45 0 0 0-2-2 5.76 5.76 0 0 0-1.93-.36c-1.1-.05-1.43-.06-4.21-.06s-3.11 0-4.21.06a5.76 5.76 0 0 0-1.93.36 3.45 3.45 0 0 0-2 2 5.76 5.76 0 0 0-.36 1.93c-.05 1.1-.06 1.43-.06 4.21s0 3.11.06 4.21a5.76 5.76 0 0 0 .36 1.93 3.45 3.45 0 0 0 2 2 5.76 5.76 0 0 0 1.93.36c1.1.05 1.43.06 4.21.06s3.11 0 4.21-.06a5.76 5.76 0 0 0 1.93-.36 3.45 3.45 0 0 0 2-2 5.76 5.76 0 0 0 .36-1.93c.05-1.1.06-1.43.06-4.21s0-3.11-.06-4.21a5.76 5.76 0 0 0-.36-1.93zM20 25.35A5.35 5.35 0 1 1 25.35 20 5.35 5.35 0 0 1 20 25.35zm5.56-9.66a1.25 1.25 0 1 1 1.25-1.25 1.25 1.25 0 0 1-1.25 1.25z" class="cls-1"/>
      <circle cx="20" cy="20" r="3.47" class="cls-1"/>
      <path d="M20 0a20 20 0 1 0 20 20A20 20 0 0 0 20 0zm10.35 24.29a7.65 7.65 0 0 1-.48 2.53 5.33 5.33 0 0 1-3 3 7.65 7.65 0 0 1-2.53.48c-1.11.05-1.47.06-4.29.06s-3.18 0-4.29-.06a7.65 7.65 0 0 1-2.53-.48 5.33 5.33 0 0 1-3-3 7.65 7.65 0 0 1-.48-2.53c-.05-1.11-.06-1.47-.06-4.29s0-3.18.06-4.29a7.65 7.65 0 0 1 .48-2.53 5.33 5.33 0 0 1 3-3 7.65 7.65 0 0 1 2.53-.48c1.11-.05 1.47-.06 4.29-.06s3.18 0 4.29.06a7.65 7.65 0 0 1 2.53.48 5.33 5.33 0 0 1 3 3 7.65 7.65 0 0 1 .48 2.53c.05 1.11.06 1.47.06 4.29s0 3.18-.06 4.29z" class="cls-1"/>
    </g>
  </g>
</svg>
