<svg xmlns="http://www.w3.org/2000/svg" xmlns:xlink="http://www.w3.org/1999/xlink" width="816" zoomAndPan="magnify" viewBox="0 0 612 791.999994" height="1056" preserveAspectRatio="xMidYMid meet" version="1.0"><defs><g/><clipPath id="bae9e06850"><path d="M 0 332.664062 L 277 332.664062 L 277 608.664062 L 0 608.664062 Z M 0 332.664062 " clip-rule="nonzero"/></clipPath><clipPath id="1a061f6493"><path d="M 138.003906 608.539062 C 133.128906 608.546875 128.296875 608.078125 123.511719 607.128906 C 118.726562 606.183594 114.078125 604.777344 109.574219 602.914062 C 105.066406 601.050781 100.785156 598.765625 96.730469 596.054688 C 92.675781 593.347656 88.925781 590.265625 85.480469 586.816406 L 21.675781 523.101562 C 20.816406 522.238281 19.984375 521.359375 19.171875 520.457031 C 18.355469 519.554688 17.566406 518.636719 16.796875 517.695312 C 16.03125 516.753906 15.285156 515.796875 14.566406 514.820312 C 13.84375 513.84375 13.148438 512.851562 12.476562 511.839844 C 11.800781 510.832031 11.15625 509.804688 10.53125 508.761719 C 9.910156 507.71875 9.3125 506.664062 8.742188 505.59375 C 8.171875 504.523438 7.628906 503.4375 7.113281 502.339844 C 6.59375 501.242188 6.105469 500.132812 5.640625 499.011719 C 5.179688 497.890625 4.742188 496.757812 4.335938 495.613281 C 3.925781 494.472656 3.546875 493.320312 3.195312 492.15625 C 2.847656 490.996094 2.523438 489.828125 2.230469 488.648438 C 1.933594 487.472656 1.671875 486.289062 1.433594 485.097656 C 1.199219 483.910156 0.992188 482.714844 0.8125 481.511719 C 0.636719 480.3125 0.488281 479.109375 0.371094 477.902344 C 0.25 476.695312 0.164062 475.484375 0.101562 474.273438 C 0.0429688 473.0625 0.015625 471.847656 0.015625 470.636719 C 0.015625 469.421875 0.0429688 468.210938 0.101562 467 C 0.164062 465.785156 0.25 464.578125 0.371094 463.371094 C 0.488281 462.160156 0.636719 460.957031 0.8125 459.757812 C 0.992188 458.558594 1.199219 457.363281 1.433594 456.171875 C 1.671875 454.980469 1.933594 453.796875 2.230469 452.621094 C 2.523438 451.445312 2.847656 450.273438 3.195312 449.113281 C 3.546875 447.953125 3.925781 446.800781 4.335938 445.65625 C 4.742188 444.515625 5.179688 443.382812 5.640625 442.261719 C 6.105469 441.140625 6.59375 440.027344 7.113281 438.929688 C 7.628906 437.832031 8.171875 436.75 8.742188 435.679688 C 9.3125 434.605469 9.910156 433.550781 10.53125 432.507812 C 11.15625 431.46875 11.800781 430.441406 12.476562 429.429688 C 13.148438 428.421875 13.84375 427.425781 14.566406 426.449219 C 15.285156 425.472656 16.03125 424.515625 16.796875 423.574219 C 17.566406 422.636719 18.355469 421.714844 19.171875 420.8125 C 19.984375 419.914062 20.816406 419.03125 21.675781 418.171875 L 85.480469 354.4375 C 86.34375 353.582031 87.222656 352.75 88.125 351.9375 C 89.027344 351.125 89.949219 350.335938 90.890625 349.566406 C 91.832031 348.800781 92.792969 348.058594 93.769531 347.335938 C 94.746094 346.617188 95.742188 345.921875 96.753906 345.25 C 97.765625 344.578125 98.792969 343.929688 99.835938 343.308594 C 100.878906 342.6875 101.9375 342.089844 103.007812 341.523438 C 104.082031 340.953125 105.164062 340.410156 106.265625 339.890625 C 107.363281 339.375 108.476562 338.886719 109.597656 338.421875 C 110.71875 337.960938 111.855469 337.527344 113 337.117188 C 114.140625 336.710938 115.296875 336.332031 116.457031 335.980469 C 117.621094 335.628906 118.792969 335.308594 119.96875 335.015625 C 121.148438 334.722656 122.332031 334.457031 123.527344 334.21875 C 124.71875 333.984375 125.914062 333.777344 127.113281 333.601562 C 128.316406 333.421875 129.523438 333.277344 130.730469 333.15625 C 131.9375 333.039062 133.152344 332.949219 134.363281 332.890625 C 135.578125 332.832031 136.789062 332.800781 138.003906 332.800781 C 139.21875 332.800781 140.433594 332.832031 141.648438 332.890625 C 142.859375 332.949219 144.070312 333.039062 145.28125 333.15625 C 146.488281 333.277344 147.695312 333.421875 148.894531 333.601562 C 150.097656 333.777344 151.292969 333.984375 152.484375 334.21875 C 153.675781 334.457031 154.863281 334.722656 156.039062 335.015625 C 157.21875 335.308594 158.390625 335.628906 159.550781 335.980469 C 160.714844 336.332031 161.867188 336.710938 163.011719 337.117188 C 164.15625 337.527344 165.289062 337.960938 166.414062 338.421875 C 167.535156 338.886719 168.648438 339.375 169.746094 339.890625 C 170.84375 340.410156 171.929688 340.953125 173.003906 341.523438 C 174.074219 342.089844 175.132812 342.6875 176.175781 343.308594 C 177.21875 343.929688 178.246094 344.578125 179.257812 345.25 C 180.269531 345.921875 181.261719 346.617188 182.242188 347.335938 C 183.21875 348.058594 184.175781 348.800781 185.117188 349.566406 C 186.058594 350.335938 186.980469 351.125 187.882812 351.9375 C 188.785156 352.75 189.667969 353.582031 190.53125 354.4375 L 254.320312 418.171875 C 255.179688 419.03125 256.015625 419.910156 256.832031 420.8125 C 257.644531 421.710938 258.4375 422.628906 259.207031 423.570312 C 259.976562 424.507812 260.726562 425.464844 261.449219 426.441406 C 262.171875 427.417969 262.871094 428.410156 263.542969 429.421875 C 264.21875 430.429688 264.867188 431.457031 265.492188 432.496094 C 266.113281 433.539062 266.710938 434.597656 267.285156 435.667969 C 267.855469 436.738281 268.402344 437.820312 268.921875 438.917969 C 269.441406 440.019531 269.933594 441.128906 270.394531 442.25 C 270.859375 443.371094 271.296875 444.503906 271.707031 445.644531 C 272.113281 446.789062 272.496094 447.941406 272.847656 449.105469 C 273.199219 450.265625 273.523438 451.433594 273.820312 452.613281 C 274.113281 453.789062 274.378906 454.972656 274.617188 456.164062 C 274.851562 457.355469 275.058594 458.550781 275.238281 459.753906 C 275.414062 460.953125 275.566406 462.15625 275.683594 463.367188 C 275.800781 464.574219 275.890625 465.785156 275.953125 466.996094 C 276.011719 468.207031 276.039062 469.421875 276.039062 470.636719 C 276.039062 471.847656 276.011719 473.0625 275.953125 474.273438 C 275.890625 475.488281 275.800781 476.699219 275.683594 477.90625 C 275.566406 479.113281 275.414062 480.316406 275.238281 481.519531 C 275.058594 482.71875 274.851562 483.914062 274.617188 485.105469 C 274.378906 486.296875 274.113281 487.480469 273.820312 488.660156 C 273.523438 489.835938 273.199219 491.007812 272.847656 492.167969 C 272.496094 493.328125 272.113281 494.480469 271.707031 495.625 C 271.296875 496.769531 270.859375 497.902344 270.394531 499.023438 C 269.933594 500.144531 269.441406 501.253906 268.921875 502.351562 C 268.402344 503.449219 267.855469 504.535156 267.285156 505.605469 C 266.710938 506.675781 266.113281 507.730469 265.492188 508.773438 C 264.867188 509.816406 264.21875 510.839844 263.542969 511.851562 C 262.871094 512.859375 262.171875 513.855469 261.449219 514.828125 C 260.726562 515.804688 259.976562 516.761719 259.207031 517.703125 C 258.4375 518.640625 257.644531 519.558594 256.832031 520.460938 C 256.015625 521.359375 255.179688 522.242188 254.320312 523.101562 L 190.53125 586.816406 C 187.085938 590.265625 183.335938 593.347656 179.28125 596.054688 C 175.226562 598.765625 170.945312 601.050781 166.4375 602.914062 C 161.929688 604.777344 157.285156 606.183594 152.5 607.128906 C 147.714844 608.078125 142.882812 608.546875 138.003906 608.539062 Z M 138.003906 342.496094 C 133.765625 342.476562 129.566406 342.875 125.402344 343.6875 C 121.242188 344.5 117.203125 345.710938 113.28125 347.324219 C 109.363281 348.9375 105.640625 350.921875 102.113281 353.273438 C 98.589844 355.625 95.328125 358.300781 92.332031 361.296875 L 28.542969 425.015625 C 27.796875 425.765625 27.074219 426.53125 26.367188 427.3125 C 25.660156 428.097656 24.972656 428.898438 24.308594 429.714844 C 23.640625 430.53125 22.992188 431.363281 22.367188 432.214844 C 21.742188 433.0625 21.136719 433.925781 20.550781 434.804688 C 19.96875 435.683594 19.40625 436.574219 18.863281 437.480469 C 18.324219 438.386719 17.804688 439.304688 17.3125 440.234375 C 16.816406 441.164062 16.34375 442.109375 15.894531 443.0625 C 15.445312 444.015625 15.019531 444.980469 14.617188 445.957031 C 14.214844 446.929688 13.835938 447.914062 13.480469 448.90625 C 13.128906 449.902344 12.796875 450.902344 12.492188 451.910156 C 12.1875 452.921875 11.90625 453.9375 11.652344 454.960938 C 11.398438 455.984375 11.167969 457.011719 10.960938 458.046875 C 10.757812 459.082031 10.578125 460.117188 10.421875 461.160156 C 10.269531 462.207031 10.140625 463.25 10.039062 464.300781 C 9.933594 465.351562 9.855469 466.402344 9.804688 467.453125 C 9.753906 468.507812 9.726562 469.5625 9.726562 470.617188 C 9.726562 471.667969 9.753906 472.722656 9.804688 473.777344 C 9.855469 474.828125 9.933594 475.882812 10.039062 476.929688 C 10.140625 477.980469 10.269531 479.027344 10.421875 480.070312 C 10.578125 481.113281 10.757812 482.152344 10.960938 483.183594 C 11.167969 484.21875 11.398438 485.246094 11.652344 486.269531 C 11.90625 487.292969 12.1875 488.308594 12.492188 489.320312 C 12.796875 490.328125 13.128906 491.332031 13.480469 492.324219 C 13.835938 493.316406 14.214844 494.300781 14.617188 495.277344 C 15.019531 496.25 15.445312 497.214844 15.894531 498.167969 C 16.34375 499.125 16.816406 500.066406 17.3125 500.996094 C 17.804688 501.925781 18.324219 502.847656 18.863281 503.75 C 19.40625 504.65625 19.96875 505.550781 20.550781 506.425781 C 21.136719 507.304688 21.742188 508.167969 22.367188 509.019531 C 22.992188 509.867188 23.640625 510.699219 24.308594 511.515625 C 24.972656 512.332031 25.660156 513.132812 26.367188 513.917969 C 27.074219 514.703125 27.796875 515.46875 28.542969 516.214844 L 92.332031 579.972656 C 93.082031 580.71875 93.847656 581.445312 94.628906 582.152344 C 95.414062 582.859375 96.214844 583.546875 97.03125 584.21875 C 97.847656 584.886719 98.679688 585.535156 99.53125 586.160156 C 100.378906 586.789062 101.242188 587.394531 102.121094 587.980469 C 103 588.566406 103.894531 589.128906 104.800781 589.671875 C 105.707031 590.210938 106.625 590.730469 107.558594 591.226562 C 108.488281 591.726562 109.433594 592.199219 110.386719 592.648438 C 111.34375 593.097656 112.308594 593.527344 113.285156 593.929688 C 114.261719 594.332031 115.246094 594.710938 116.242188 595.066406 C 117.234375 595.421875 118.238281 595.75 119.25 596.058594 C 120.261719 596.363281 121.277344 596.644531 122.300781 596.898438 C 123.328125 597.15625 124.359375 597.386719 125.394531 597.59375 C 126.429688 597.796875 127.46875 597.976562 128.515625 598.132812 C 129.558594 598.285156 130.609375 598.414062 131.660156 598.519531 C 132.710938 598.621094 133.761719 598.699219 134.816406 598.75 C 135.875 598.804688 136.929688 598.828125 137.984375 598.828125 C 139.042969 598.828125 140.097656 598.804688 141.152344 598.75 C 142.207031 598.699219 143.261719 598.621094 144.3125 598.519531 C 145.363281 598.414062 146.410156 598.289062 147.457031 598.132812 C 148.5 597.976562 149.539062 597.796875 150.578125 597.59375 C 151.613281 597.386719 152.644531 597.15625 153.667969 596.898438 C 154.691406 596.644531 155.710938 596.363281 156.722656 596.058594 C 157.730469 595.75 158.734375 595.421875 159.730469 595.066406 C 160.722656 594.710938 161.710938 594.332031 162.683594 593.929688 C 163.660156 593.527344 164.628906 593.097656 165.582031 592.648438 C 166.539062 592.199219 167.480469 591.726562 168.414062 591.226562 C 169.34375 590.730469 170.265625 590.210938 171.171875 589.671875 C 172.078125 589.128906 172.96875 588.566406 173.847656 587.980469 C 174.726562 587.394531 175.589844 586.789062 176.441406 586.160156 C 177.289062 585.535156 178.121094 584.886719 178.9375 584.21875 C 179.757812 583.546875 180.558594 582.859375 181.339844 582.152344 C 182.125 581.445312 182.890625 580.71875 183.636719 579.972656 L 247.445312 516.238281 C 248.191406 515.492188 248.917969 514.726562 249.625 513.945312 C 250.335938 513.164062 251.023438 512.363281 251.691406 511.546875 C 252.363281 510.730469 253.011719 509.898438 253.636719 509.050781 C 254.265625 508.203125 254.875 507.339844 255.460938 506.460938 C 256.046875 505.585938 256.609375 504.691406 257.152344 503.789062 C 257.695312 502.882812 258.214844 501.964844 258.710938 501.03125 C 259.207031 500.101562 259.683594 499.160156 260.132812 498.207031 C 260.585938 497.25 261.011719 496.285156 261.414062 495.3125 C 261.820312 494.335938 262.199219 493.351562 262.554688 492.359375 C 262.910156 491.367188 263.238281 490.363281 263.546875 489.355469 C 263.851562 488.34375 264.132812 487.328125 264.390625 486.304688 C 264.644531 485.28125 264.878906 484.25 265.082031 483.21875 C 265.289062 482.183594 265.46875 481.144531 265.625 480.097656 C 265.777344 479.054688 265.90625 478.007812 266.011719 476.957031 C 266.113281 475.910156 266.191406 474.855469 266.242188 473.804688 C 266.296875 472.75 266.320312 471.695312 266.320312 470.640625 C 266.320312 469.585938 266.296875 468.53125 266.242188 467.476562 C 266.191406 466.421875 266.113281 465.371094 266.011719 464.320312 C 265.90625 463.269531 265.777344 462.222656 265.625 461.179688 C 265.46875 460.136719 265.289062 459.097656 265.082031 458.0625 C 264.878906 457.027344 264.644531 456 264.390625 454.976562 C 264.132812 453.953125 263.851562 452.933594 263.546875 451.925781 C 263.238281 450.914062 262.910156 449.914062 262.554688 448.921875 C 262.199219 447.925781 261.820312 446.941406 261.414062 445.96875 C 261.011719 444.992188 260.585938 444.027344 260.132812 443.074219 C 259.683594 442.121094 259.207031 441.175781 258.710938 440.246094 C 258.214844 439.316406 257.695312 438.398438 257.152344 437.492188 C 256.609375 436.585938 256.046875 435.695312 255.460938 434.816406 C 254.875 433.941406 254.265625 433.078125 253.636719 432.230469 C 253.011719 431.378906 252.363281 430.546875 251.691406 429.730469 C 251.023438 428.914062 250.335938 428.117188 249.625 427.335938 C 248.917969 426.550781 248.191406 425.785156 247.445312 425.039062 L 183.660156 361.296875 C 180.667969 358.300781 177.410156 355.625 173.882812 353.277344 C 170.359375 350.925781 166.636719 348.941406 162.71875 347.328125 C 158.800781 345.714844 154.761719 344.5 150.601562 343.6875 C 146.441406 342.875 142.242188 342.476562 138.003906 342.496094 Z M 138.003906 342.496094 " clip-rule="nonzero"/></clipPath><linearGradient x1="0.0170101" gradientTransform="matrix(0.809938, 0, 0, 0.809013, 0.00000243409, 332.788067)" y1="0.0170101" x2="340.837717" gradientUnits="userSpaceOnUse" y2="340.837717" id="94fda20238"><stop stop-opacity="1" stop-color="rgb(19.198608%, 12.89978%, 27.49939%)" offset="0"/><stop stop-opacity="1" stop-color="rgb(19.198608%, 12.89978%, 27.49939%)" offset="0.125"/><stop stop-opacity="1" stop-color="rgb(19.198608%, 12.89978%, 27.49939%)" offset="0.1875"/><stop stop-opacity="1" stop-color="rgb(19.282532%, 12.911987%, 27.523804%)" offset="0.195312"/><stop stop-opacity="1" stop-color="rgb(19.880676%, 13.000488%, 27.697754%)" offset="0.199219"/><stop stop-opacity="1" stop-color="rgb(20.394897%, 13.076782%, 27.848816%)" offset="0.203125"/><stop stop-opacity="1" stop-color="rgb(20.909119%, 13.153076%, 27.998352%)" offset="0.207031"/><stop stop-opacity="1" stop-color="rgb(21.42334%, 13.230896%, 28.147888%)" offset="0.210937"/><stop stop-opacity="1" stop-color="rgb(21.937561%, 13.30719%, 28.297424%)" offset="0.214844"/><stop stop-opacity="1" stop-color="rgb(22.451782%, 13.383484%, 28.448486%)" offset="0.21875"/><stop stop-opacity="1" stop-color="rgb(22.964478%, 13.459778%, 28.598022%)" offset="0.222656"/><stop stop-opacity="1" stop-color="rgb(23.478699%, 13.537598%, 28.749084%)" offset="0.226562"/><stop stop-opacity="1" stop-color="rgb(23.99292%, 13.613892%, 28.898621%)" offset="0.230469"/><stop stop-opacity="1" stop-color="rgb(24.507141%, 13.690186%, 29.048157%)" offset="0.234375"/><stop stop-opacity="1" stop-color="rgb(25.021362%, 13.766479%, 29.197693%)" offset="0.238281"/><stop stop-opacity="1" stop-color="rgb(25.535583%, 13.844299%, 29.348755%)" offset="0.242188"/><stop stop-opacity="1" stop-color="rgb(26.049805%, 13.920593%, 29.498291%)" offset="0.246094"/><stop stop-opacity="1" stop-color="rgb(26.564026%, 13.996887%, 29.649353%)" offset="0.25"/><stop stop-opacity="1" stop-color="rgb(27.076721%, 14.073181%, 29.798889%)" offset="0.253906"/><stop stop-opacity="1" stop-color="rgb(27.590942%, 14.151001%, 29.949951%)" offset="0.257812"/><stop stop-opacity="1" stop-color="rgb(28.105164%, 14.227295%, 30.099487%)" offset="0.261719"/><stop stop-opacity="1" stop-color="rgb(28.619385%, 14.303589%, 30.249023%)" offset="0.265625"/><stop stop-opacity="1" stop-color="rgb(29.133606%, 14.379883%, 30.39856%)" offset="0.269531"/><stop stop-opacity="1" stop-color="rgb(29.647827%, 14.456177%, 30.549622%)" offset="0.273437"/><stop stop-opacity="1" stop-color="rgb(30.162048%, 14.532471%, 30.699158%)" offset="0.277344"/><stop stop-opacity="1" stop-color="rgb(30.67627%, 14.610291%, 30.85022%)" offset="0.28125"/><stop stop-opacity="1" stop-color="rgb(31.190491%, 14.686584%, 30.999756%)" offset="0.285156"/><stop stop-opacity="1" stop-color="rgb(31.704712%, 14.762878%, 31.149292%)" offset="0.289062"/><stop stop-opacity="1" stop-color="rgb(32.217407%, 14.839172%, 31.298828%)" offset="0.292969"/><stop stop-opacity="1" stop-color="rgb(32.731628%, 14.916992%, 31.44989%)" offset="0.296875"/><stop stop-opacity="1" stop-color="rgb(33.24585%, 14.993286%, 31.599426%)" offset="0.300781"/><stop stop-opacity="1" stop-color="rgb(33.760071%, 15.06958%, 31.750488%)" offset="0.304687"/><stop stop-opacity="1" stop-color="rgb(34.274292%, 15.145874%, 31.900024%)" offset="0.308594"/><stop stop-opacity="1" stop-color="rgb(34.788513%, 15.223694%, 32.049561%)" offset="0.3125"/><stop stop-opacity="1" stop-color="rgb(35.516357%, 15.419006%, 32.18689%)" offset="0.316406"/><stop stop-opacity="1" stop-color="rgb(36.244202%, 15.614319%, 32.324219%)" offset="0.320312"/><stop stop-opacity="1" stop-color="rgb(37.182617%, 15.927124%, 32.447815%)" offset="0.324219"/><stop stop-opacity="1" stop-color="rgb(38.121033%, 16.239929%, 32.572937%)" offset="0.328125"/><stop stop-opacity="1" stop-color="rgb(39.059448%, 16.552734%, 32.698059%)" offset="0.332031"/><stop stop-opacity="1" stop-color="rgb(39.99939%, 16.86554%, 32.823181%)" offset="0.335937"/><stop stop-opacity="1" stop-color="rgb(40.937805%, 17.178345%, 32.946777%)" offset="0.339844"/><stop stop-opacity="1" stop-color="rgb(41.876221%, 17.49115%, 33.071899%)" offset="0.34375"/><stop stop-opacity="1" stop-color="rgb(42.814636%, 17.803955%, 33.195496%)" offset="0.347656"/><stop stop-opacity="1" stop-color="rgb(43.754578%, 18.11676%, 33.320618%)" offset="0.351562"/><stop stop-opacity="1" stop-color="rgb(44.692993%, 18.429565%, 33.444214%)" offset="0.355469"/><stop stop-opacity="1" stop-color="rgb(45.631409%, 18.743896%, 33.569336%)" offset="0.359375"/><stop stop-opacity="1" stop-color="rgb(46.569824%, 19.056702%, 33.694458%)" offset="0.363281"/><stop stop-opacity="1" stop-color="rgb(47.50824%, 19.369507%, 33.81958%)" offset="0.367187"/><stop stop-opacity="1" stop-color="rgb(48.446655%, 19.682312%, 33.943176%)" offset="0.371094"/><stop stop-opacity="1" stop-color="rgb(49.386597%, 19.995117%, 34.068298%)" offset="0.375"/><stop stop-opacity="1" stop-color="rgb(50.325012%, 20.307922%, 34.191895%)" offset="0.378906"/><stop stop-opacity="1" stop-color="rgb(51.263428%, 20.620728%, 34.317017%)" offset="0.382812"/><stop stop-opacity="1" stop-color="rgb(52.201843%, 20.933533%, 34.440613%)" offset="0.386719"/><stop stop-opacity="1" stop-color="rgb(53.141785%, 21.246338%, 34.565735%)" offset="0.390625"/><stop stop-opacity="1" stop-color="rgb(54.0802%, 21.559143%, 34.689331%)" offset="0.394531"/><stop stop-opacity="1" stop-color="rgb(55.018616%, 21.871948%, 34.814453%)" offset="0.398437"/><stop stop-opacity="1" stop-color="rgb(55.957031%, 22.184753%, 34.939575%)" offset="0.402344"/><stop stop-opacity="1" stop-color="rgb(56.895447%, 22.497559%, 35.064697%)" offset="0.40625"/><stop stop-opacity="1" stop-color="rgb(57.833862%, 22.810364%, 35.188293%)" offset="0.410156"/><stop stop-opacity="1" stop-color="rgb(58.773804%, 23.124695%, 35.313416%)" offset="0.414062"/><stop stop-opacity="1" stop-color="rgb(59.712219%, 23.4375%, 35.437012%)" offset="0.417969"/><stop stop-opacity="1" stop-color="rgb(60.650635%, 23.750305%, 35.562134%)" offset="0.421875"/><stop stop-opacity="1" stop-color="rgb(61.58905%, 24.06311%, 35.68573%)" offset="0.425781"/><stop stop-opacity="1" stop-color="rgb(62.528992%, 24.375916%, 35.810852%)" offset="0.429687"/><stop stop-opacity="1" stop-color="rgb(63.467407%, 24.688721%, 35.934448%)" offset="0.433594"/><stop stop-opacity="1" stop-color="rgb(64.405823%, 25.001526%, 36.05957%)" offset="0.4375"/><stop stop-opacity="1" stop-color="rgb(65.333557%, 25.314331%, 36.174011%)" offset="0.441406"/><stop stop-opacity="1" stop-color="rgb(66.261292%, 25.627136%, 36.288452%)" offset="0.445312"/><stop stop-opacity="1" stop-color="rgb(67.1875%, 25.939941%, 36.399841%)" offset="0.449219"/><stop stop-opacity="1" stop-color="rgb(68.113708%, 26.252747%, 36.51123%)" offset="0.453125"/><stop stop-opacity="1" stop-color="rgb(69.039917%, 26.565552%, 36.62262%)" offset="0.457031"/><stop stop-opacity="1" stop-color="rgb(69.966125%, 26.878357%, 36.735535%)" offset="0.460937"/><stop stop-opacity="1" stop-color="rgb(70.890808%, 27.191162%, 36.846924%)" offset="0.464844"/><stop stop-opacity="1" stop-color="rgb(71.817017%, 27.505493%, 36.958313%)" offset="0.46875"/><stop stop-opacity="1" stop-color="rgb(72.743225%, 27.818298%, 37.069702%)" offset="0.472656"/><stop stop-opacity="1" stop-color="rgb(73.669434%, 28.131104%, 37.182617%)" offset="0.476562"/><stop stop-opacity="1" stop-color="rgb(74.595642%, 28.443909%, 37.294006%)" offset="0.480469"/><stop stop-opacity="1" stop-color="rgb(75.521851%, 28.756714%, 37.405396%)" offset="0.484375"/><stop stop-opacity="1" stop-color="rgb(76.446533%, 29.069519%, 37.516785%)" offset="0.488281"/><stop stop-opacity="1" stop-color="rgb(77.372742%, 29.382324%, 37.628174%)" offset="0.492187"/><stop stop-opacity="1" stop-color="rgb(78.29895%, 29.695129%, 37.739563%)" offset="0.496094"/><stop stop-opacity="1" stop-color="rgb(79.225159%, 30.007935%, 37.852478%)" offset="0.5"/><stop stop-opacity="1" stop-color="rgb(80.151367%, 30.32074%, 37.963867%)" offset="0.503906"/><stop stop-opacity="1" stop-color="rgb(81.077576%, 30.633545%, 38.075256%)" offset="0.507812"/><stop stop-opacity="1" stop-color="rgb(82.002258%, 30.94635%, 38.186646%)" offset="0.511719"/><stop stop-opacity="1" stop-color="rgb(82.928467%, 31.259155%, 38.299561%)" offset="0.515625"/><stop stop-opacity="1" stop-color="rgb(83.854675%, 31.57196%, 38.41095%)" offset="0.519531"/><stop stop-opacity="1" stop-color="rgb(84.780884%, 31.884766%, 38.522339%)" offset="0.523437"/><stop stop-opacity="1" stop-color="rgb(85.707092%, 32.197571%, 38.633728%)" offset="0.527344"/><stop stop-opacity="1" stop-color="rgb(86.633301%, 32.511902%, 38.746643%)" offset="0.53125"/><stop stop-opacity="1" stop-color="rgb(87.557983%, 32.824707%, 38.858032%)" offset="0.535156"/><stop stop-opacity="1" stop-color="rgb(88.484192%, 33.137512%, 38.969421%)" offset="0.539062"/><stop stop-opacity="1" stop-color="rgb(89.4104%, 33.450317%, 39.080811%)" offset="0.542969"/><stop stop-opacity="1" stop-color="rgb(90.336609%, 33.763123%, 39.193726%)" offset="0.546875"/><stop stop-opacity="1" stop-color="rgb(91.262817%, 34.075928%, 39.305115%)" offset="0.550781"/><stop stop-opacity="1" stop-color="rgb(92.189026%, 34.388733%, 39.416504%)" offset="0.554687"/><stop stop-opacity="1" stop-color="rgb(92.955017%, 34.725952%, 39.39209%)" offset="0.558594"/><stop stop-opacity="1" stop-color="rgb(93.722534%, 35.064697%, 39.369202%)" offset="0.5625"/><stop stop-opacity="1" stop-color="rgb(93.786621%, 35.514832%, 38.742065%)" offset="0.566406"/><stop stop-opacity="1" stop-color="rgb(93.850708%, 35.964966%, 38.116455%)" offset="0.570312"/><stop stop-opacity="1" stop-color="rgb(93.914795%, 36.4151%, 37.490845%)" offset="0.574219"/><stop stop-opacity="1" stop-color="rgb(93.978882%, 36.865234%, 36.865234%)" offset="0.578125"/><stop stop-opacity="1" stop-color="rgb(94.041443%, 37.315369%, 36.239624%)" offset="0.582031"/><stop stop-opacity="1" stop-color="rgb(94.10553%, 37.767029%, 35.614014%)" offset="0.585937"/><stop stop-opacity="1" stop-color="rgb(94.169617%, 38.217163%, 34.988403%)" offset="0.589844"/><stop stop-opacity="1" stop-color="rgb(94.233704%, 38.667297%, 34.362793%)" offset="0.59375"/><stop stop-opacity="1" stop-color="rgb(94.297791%, 39.117432%, 33.735657%)" offset="0.597656"/><stop stop-opacity="1" stop-color="rgb(94.361877%, 39.567566%, 33.110046%)" offset="0.601562"/><stop stop-opacity="1" stop-color="rgb(94.424438%, 40.0177%, 32.484436%)" offset="0.605469"/><stop stop-opacity="1" stop-color="rgb(94.488525%, 40.467834%, 31.858826%)" offset="0.609375"/><stop stop-opacity="1" stop-color="rgb(94.552612%, 40.917969%, 31.233215%)" offset="0.613281"/><stop stop-opacity="1" stop-color="rgb(94.616699%, 41.368103%, 30.607605%)" offset="0.617187"/><stop stop-opacity="1" stop-color="rgb(94.680786%, 41.818237%, 29.980469%)" offset="0.621094"/><stop stop-opacity="1" stop-color="rgb(94.744873%, 42.268372%, 29.354858%)" offset="0.625"/><stop stop-opacity="1" stop-color="rgb(94.807434%, 42.718506%, 28.729248%)" offset="0.628906"/><stop stop-opacity="1" stop-color="rgb(94.871521%, 43.16864%, 28.103638%)" offset="0.632812"/><stop stop-opacity="1" stop-color="rgb(94.935608%, 43.618774%, 27.478027%)" offset="0.636719"/><stop stop-opacity="1" stop-color="rgb(94.999695%, 44.068909%, 26.852417%)" offset="0.640625"/><stop stop-opacity="1" stop-color="rgb(95.063782%, 44.519043%, 26.226807%)" offset="0.644531"/><stop stop-opacity="1" stop-color="rgb(95.127869%, 44.969177%, 25.601196%)" offset="0.648437"/><stop stop-opacity="1" stop-color="rgb(95.191956%, 45.419312%, 24.97406%)" offset="0.652344"/><stop stop-opacity="1" stop-color="rgb(95.256042%, 45.869446%, 24.34845%)" offset="0.65625"/><stop stop-opacity="1" stop-color="rgb(95.318604%, 46.31958%, 23.722839%)" offset="0.660156"/><stop stop-opacity="1" stop-color="rgb(95.38269%, 46.77124%, 23.097229%)" offset="0.664062"/><stop stop-opacity="1" stop-color="rgb(95.446777%, 47.221375%, 22.471619%)" offset="0.667969"/><stop stop-opacity="1" stop-color="rgb(95.510864%, 47.671509%, 21.846008%)" offset="0.671875"/><stop stop-opacity="1" stop-color="rgb(95.574951%, 48.121643%, 21.220398%)" offset="0.675781"/><stop stop-opacity="1" stop-color="rgb(95.639038%, 48.571777%, 20.594788%)" offset="0.679688"/><stop stop-opacity="1" stop-color="rgb(95.700073%, 49.014282%, 19.961548%)" offset="0.683594"/><stop stop-opacity="1" stop-color="rgb(95.762634%, 49.458313%, 19.328308%)" offset="0.6875"/><stop stop-opacity="1" stop-color="rgb(95.823669%, 49.894714%, 18.688965%)" offset="0.691406"/><stop stop-opacity="1" stop-color="rgb(95.884705%, 50.332642%, 18.051147%)" offset="0.695312"/><stop stop-opacity="1" stop-color="rgb(95.944214%, 50.770569%, 17.411804%)" offset="0.699219"/><stop stop-opacity="1" stop-color="rgb(96.005249%, 51.208496%, 16.773987%)" offset="0.703125"/><stop stop-opacity="1" stop-color="rgb(96.066284%, 51.644897%, 16.134644%)" offset="0.707031"/><stop stop-opacity="1" stop-color="rgb(96.127319%, 52.082825%, 15.496826%)" offset="0.710938"/><stop stop-opacity="1" stop-color="rgb(96.186829%, 52.519226%, 14.857483%)" offset="0.714844"/><stop stop-opacity="1" stop-color="rgb(96.247864%, 52.957153%, 14.219666%)" offset="0.71875"/><stop stop-opacity="1" stop-color="rgb(96.308899%, 53.395081%, 13.580322%)" offset="0.722656"/><stop stop-opacity="1" stop-color="rgb(96.369934%, 53.833008%, 12.942505%)" offset="0.726562"/><stop stop-opacity="1" stop-color="rgb(96.429443%, 54.269409%, 12.303162%)" offset="0.730469"/><stop stop-opacity="1" stop-color="rgb(96.490479%, 54.707336%, 11.665344%)" offset="0.734375"/><stop stop-opacity="1" stop-color="rgb(96.551514%, 55.143738%, 11.026001%)" offset="0.738281"/><stop stop-opacity="1" stop-color="rgb(96.612549%, 55.581665%, 10.388184%)" offset="0.742187"/><stop stop-opacity="1" stop-color="rgb(96.672058%, 56.019592%, 9.74884%)" offset="0.746094"/><stop stop-opacity="1" stop-color="rgb(96.733093%, 56.45752%, 9.111023%)" offset="0.75"/><stop stop-opacity="1" stop-color="rgb(96.794128%, 56.893921%, 8.47168%)" offset="0.753906"/><stop stop-opacity="1" stop-color="rgb(96.855164%, 57.331848%, 7.833862%)" offset="0.757812"/><stop stop-opacity="1" stop-color="rgb(96.914673%, 57.769775%, 7.194519%)" offset="0.761719"/><stop stop-opacity="1" stop-color="rgb(96.975708%, 58.207703%, 6.556702%)" offset="0.765625"/><stop stop-opacity="1" stop-color="rgb(97.036743%, 58.644104%, 5.917358%)" offset="0.769531"/><stop stop-opacity="1" stop-color="rgb(97.097778%, 59.082031%, 5.279541%)" offset="0.773437"/><stop stop-opacity="1" stop-color="rgb(97.157288%, 59.518433%, 4.640198%)" offset="0.777344"/><stop stop-opacity="1" stop-color="rgb(97.218323%, 59.95636%, 4.00238%)" offset="0.78125"/><stop stop-opacity="1" stop-color="rgb(97.279358%, 60.394287%, 3.363037%)" offset="0.785156"/><stop stop-opacity="1" stop-color="rgb(97.340393%, 60.832214%, 2.72522%)" offset="0.789062"/><stop stop-opacity="1" stop-color="rgb(97.399902%, 61.268616%, 2.085876%)" offset="0.792969"/><stop stop-opacity="1" stop-color="rgb(97.460938%, 61.706543%, 1.448059%)" offset="0.796875"/><stop stop-opacity="1" stop-color="rgb(97.521973%, 62.142944%, 0.808716%)" offset="0.800781"/><stop stop-opacity="1" stop-color="rgb(97.583008%, 62.580872%, 0.170898%)" offset="0.804687"/><stop stop-opacity="1" stop-color="rgb(97.590637%, 62.640381%, 0.0854492%)" offset="0.8125"/><stop stop-opacity="1" stop-color="rgb(97.599792%, 62.69989%, 0%)" offset="0.875"/><stop stop-opacity="1" stop-color="rgb(97.599792%, 62.69989%, 0%)" offset="1"/></linearGradient><clipPath id="500b55b9f6"><path d="M 13 346 L 263 346 L 263 595 L 13 595 Z M 13 346 " clip-rule="nonzero"/></clipPath><clipPath id="a0d77f2339"><path d="M 138.003906 594.648438 C 133.921875 594.667969 129.875 594.28125 125.867188 593.496094 C 121.859375 592.710938 117.96875 591.542969 114.191406 589.984375 C 110.417969 588.429688 106.832031 586.519531 103.4375 584.253906 C 100.039062 581.984375 96.902344 579.40625 94.015625 576.519531 L 32 514.574219 C 30.5625 513.132812 29.199219 511.625 27.90625 510.050781 C 26.617188 508.476562 25.40625 506.84375 24.277344 505.152344 C 23.148438 503.460938 22.101562 501.71875 21.144531 499.921875 C 20.1875 498.128906 19.316406 496.289062 18.539062 494.410156 C 17.761719 492.53125 17.078125 490.617188 16.484375 488.671875 C 15.894531 486.722656 15.402344 484.753906 15.003906 482.757812 C 14.609375 480.761719 14.3125 478.753906 14.113281 476.726562 C 13.914062 474.703125 13.8125 472.675781 13.8125 470.640625 C 13.8125 468.605469 13.914062 466.578125 14.113281 464.550781 C 14.3125 462.527344 14.609375 460.515625 15.003906 458.523438 C 15.402344 456.527344 15.894531 454.554688 16.484375 452.609375 C 17.078125 450.664062 17.761719 448.75 18.539062 446.867188 C 19.316406 444.988281 20.1875 443.152344 21.144531 441.355469 C 22.101562 439.5625 23.148438 437.820312 24.277344 436.125 C 25.40625 434.433594 26.617188 432.800781 27.90625 431.226562 C 29.199219 429.652344 30.5625 428.144531 32 426.707031 L 94.015625 364.761719 C 95.460938 363.324219 96.96875 361.960938 98.542969 360.671875 C 100.121094 359.382812 101.753906 358.175781 103.449219 357.046875 C 105.144531 355.917969 106.886719 354.875 108.683594 353.917969 C 110.480469 352.957031 112.320312 352.089844 114.203125 351.3125 C 116.085938 350.535156 118 349.851562 119.949219 349.261719 C 121.898438 348.671875 123.871094 348.179688 125.871094 347.785156 C 127.867188 347.386719 129.878906 347.089844 131.90625 346.890625 C 133.933594 346.691406 135.964844 346.59375 138 346.59375 C 140.039062 346.59375 142.070312 346.691406 144.097656 346.890625 C 146.121094 347.089844 148.136719 347.386719 150.132812 347.785156 C 152.128906 348.179688 154.101562 348.671875 156.050781 349.261719 C 158 349.851562 159.917969 350.535156 161.800781 351.3125 C 163.679688 352.089844 165.519531 352.957031 167.316406 353.917969 C 169.113281 354.875 170.859375 355.917969 172.554688 357.046875 C 174.25 358.175781 175.882812 359.382812 177.457031 360.671875 C 179.035156 361.960938 180.542969 363.324219 181.984375 364.761719 L 244 426.707031 C 245.4375 428.148438 246.800781 429.65625 248.085938 431.230469 C 249.375 432.804688 250.582031 434.441406 251.710938 436.132812 C 252.839844 437.824219 253.878906 439.570312 254.835938 441.363281 C 255.792969 443.160156 256.660156 444.996094 257.4375 446.875 C 258.214844 448.753906 258.894531 450.667969 259.484375 452.613281 C 260.074219 454.5625 260.566406 456.53125 260.960938 458.527344 C 261.359375 460.519531 261.65625 462.53125 261.855469 464.554688 C 262.054688 466.578125 262.152344 468.605469 262.152344 470.640625 C 262.152344 472.671875 262.054688 474.703125 261.855469 476.726562 C 261.65625 478.75 261.359375 480.757812 260.960938 482.753906 C 260.566406 484.746094 260.074219 486.71875 259.484375 488.664062 C 258.894531 490.609375 258.214844 492.523438 257.4375 494.402344 C 256.660156 496.28125 255.792969 498.121094 254.835938 499.914062 C 253.878906 501.710938 252.839844 503.453125 251.710938 505.148438 C 250.582031 506.839844 249.375 508.472656 248.085938 510.046875 C 246.800781 511.625 245.4375 513.132812 244 514.574219 L 181.992188 576.519531 C 179.109375 579.40625 175.96875 581.984375 172.574219 584.253906 C 169.179688 586.519531 165.59375 588.429688 161.816406 589.984375 C 158.042969 591.542969 154.152344 592.710938 150.144531 593.496094 C 146.136719 594.28125 142.089844 594.667969 138.003906 594.648438 Z M 138.003906 353.054688 C 134.347656 353.046875 130.722656 353.398438 127.132812 354.109375 C 123.542969 354.816406 120.058594 355.871094 116.679688 357.265625 C 113.296875 358.664062 110.085938 360.375 107.042969 362.40625 C 104 364.4375 101.1875 366.746094 98.601562 369.332031 L 36.585938 431.277344 C 35.296875 432.566406 34.074219 433.917969 32.917969 435.328125 C 31.761719 436.738281 30.675781 438.199219 29.664062 439.714844 C 28.652344 441.234375 27.71875 442.792969 26.859375 444.402344 C 26 446.011719 25.222656 447.65625 24.523438 449.339844 C 23.828125 451.023438 23.214844 452.738281 22.683594 454.484375 C 22.15625 456.226562 21.714844 457.992188 21.359375 459.78125 C 21.003906 461.566406 20.734375 463.367188 20.558594 465.179688 C 20.378906 466.996094 20.289062 468.8125 20.289062 470.636719 C 20.289062 472.457031 20.378906 474.277344 20.558594 476.089844 C 20.734375 477.902344 21.003906 479.703125 21.359375 481.492188 C 21.714844 483.277344 22.15625 485.042969 22.683594 486.789062 C 23.214844 488.53125 23.828125 490.246094 24.523438 491.929688 C 25.222656 493.617188 26 495.261719 26.859375 496.871094 C 27.71875 498.476562 28.652344 500.039062 29.664062 501.554688 C 30.675781 503.070312 31.761719 504.535156 32.917969 505.945312 C 34.074219 507.355469 35.296875 508.703125 36.585938 509.996094 L 98.601562 571.941406 C 99.894531 573.222656 101.246094 574.441406 102.660156 575.59375 C 104.074219 576.746094 105.539062 577.828125 107.058594 578.835938 C 108.574219 579.84375 110.140625 580.777344 111.75 581.632812 C 113.359375 582.488281 115.007812 583.261719 116.691406 583.957031 C 118.378906 584.652344 120.09375 585.265625 121.839844 585.789062 C 123.585938 586.316406 125.351562 586.757812 127.140625 587.113281 C 128.929688 587.464844 130.734375 587.730469 132.546875 587.910156 C 134.363281 588.089844 136.179688 588.175781 138.003906 588.175781 C 139.828125 588.175781 141.648438 588.089844 143.464844 587.910156 C 145.277344 587.730469 147.078125 587.464844 148.867188 587.113281 C 150.65625 586.757812 152.425781 586.316406 154.171875 585.789062 C 155.917969 585.265625 157.632812 584.652344 159.316406 583.957031 C 161.003906 583.261719 162.652344 582.488281 164.261719 581.632812 C 165.871094 580.777344 167.433594 579.84375 168.953125 578.835938 C 170.472656 577.828125 171.9375 576.746094 173.351562 575.59375 C 174.761719 574.441406 176.117188 573.222656 177.410156 571.941406 L 239.425781 509.960938 C 240.710938 508.671875 241.929688 507.320312 243.085938 505.90625 C 244.238281 504.496094 245.320312 503.03125 246.328125 501.515625 C 247.339844 500 248.273438 498.4375 249.128906 496.828125 C 249.984375 495.222656 250.761719 493.574219 251.457031 491.890625 C 252.152344 490.207031 252.765625 488.492188 253.292969 486.75 C 253.820312 485.007812 254.261719 483.242188 254.613281 481.453125 C 254.96875 479.667969 255.234375 477.867188 255.414062 476.054688 C 255.589844 474.242188 255.679688 472.425781 255.679688 470.601562 C 255.679688 468.78125 255.589844 466.964844 255.414062 465.152344 C 255.234375 463.339844 254.96875 461.539062 254.613281 459.753906 C 254.261719 457.964844 253.820312 456.199219 253.292969 454.457031 C 252.765625 452.714844 252.152344 451 251.457031 449.316406 C 250.761719 447.632812 249.984375 445.984375 249.128906 444.378906 C 248.273438 442.769531 247.339844 441.207031 246.328125 439.691406 C 245.320312 438.171875 244.238281 436.710938 243.085938 435.300781 C 241.929688 433.886719 240.710938 432.535156 239.425781 431.246094 L 177.375 369.332031 C 174.792969 366.746094 171.980469 364.441406 168.941406 362.410156 C 165.902344 360.382812 162.695312 358.667969 159.316406 357.273438 C 155.9375 355.875 152.453125 354.824219 148.867188 354.113281 C 145.28125 353.402344 141.660156 353.050781 138.003906 353.054688 Z M 138.003906 353.054688 " clip-rule="nonzero"/></clipPath><linearGradient x1="17.058798" gradientTransform="matrix(0.809938, 0, 0, 0.809013, 0.00000243409, 332.788067)" y1="17.058798" x2="323.685893" gradientUnits="userSpaceOnUse" y2="323.685893" id="2da20f9be0"><stop stop-opacity="1" stop-color="rgb(19.198608%, 12.89978%, 27.49939%)" offset="0"/><stop stop-opacity="1" stop-color="rgb(19.198608%, 12.89978%, 27.49939%)" offset="0.125"/><stop stop-opacity="1" stop-color="rgb(19.198608%, 12.89978%, 27.49939%)" offset="0.1875"/><stop stop-opacity="1" stop-color="rgb(19.198608%, 12.89978%, 27.49939%)" offset="0.195312"/><stop stop-opacity="1" stop-color="rgb(19.534302%, 12.948608%, 27.597046%)" offset="0.199219"/><stop stop-opacity="1" stop-color="rgb(19.869995%, 12.998962%, 27.694702%)" offset="0.203125"/><stop stop-opacity="1" stop-color="rgb(20.39032%, 13.076782%, 27.845764%)" offset="0.207031"/><stop stop-opacity="1" stop-color="rgb(20.910645%, 13.154602%, 27.998352%)" offset="0.210938"/><stop stop-opacity="1" stop-color="rgb(21.430969%, 13.232422%, 28.15094%)" offset="0.214844"/><stop stop-opacity="1" stop-color="rgb(21.95282%, 13.310242%, 28.303528%)" offset="0.21875"/><stop stop-opacity="1" stop-color="rgb(22.473145%, 13.386536%, 28.45459%)" offset="0.222656"/><stop stop-opacity="1" stop-color="rgb(22.993469%, 13.464355%, 28.607178%)" offset="0.226562"/><stop stop-opacity="1" stop-color="rgb(23.513794%, 13.542175%, 28.75824%)" offset="0.230469"/><stop stop-opacity="1" stop-color="rgb(24.035645%, 13.619995%, 28.910828%)" offset="0.234375"/><stop stop-opacity="1" stop-color="rgb(24.555969%, 13.697815%, 29.06189%)" offset="0.238281"/><stop stop-opacity="1" stop-color="rgb(25.076294%, 13.775635%, 29.214478%)" offset="0.242187"/><stop stop-opacity="1" stop-color="rgb(25.596619%, 13.853455%, 29.367065%)" offset="0.246094"/><stop stop-opacity="1" stop-color="rgb(26.118469%, 13.931274%, 29.519653%)" offset="0.25"/><stop stop-opacity="1" stop-color="rgb(26.638794%, 14.007568%, 29.670715%)" offset="0.253906"/><stop stop-opacity="1" stop-color="rgb(27.159119%, 14.085388%, 29.823303%)" offset="0.257812"/><stop stop-opacity="1" stop-color="rgb(27.679443%, 14.163208%, 29.974365%)" offset="0.261719"/><stop stop-opacity="1" stop-color="rgb(28.201294%, 14.241028%, 30.126953%)" offset="0.265625"/><stop stop-opacity="1" stop-color="rgb(28.721619%, 14.318848%, 30.278015%)" offset="0.269531"/><stop stop-opacity="1" stop-color="rgb(29.241943%, 14.396667%, 30.430603%)" offset="0.273438"/><stop stop-opacity="1" stop-color="rgb(29.762268%, 14.472961%, 30.581665%)" offset="0.277344"/><stop stop-opacity="1" stop-color="rgb(30.284119%, 14.550781%, 30.734253%)" offset="0.28125"/><stop stop-opacity="1" stop-color="rgb(30.804443%, 14.628601%, 30.886841%)" offset="0.285156"/><stop stop-opacity="1" stop-color="rgb(31.324768%, 14.706421%, 31.039429%)" offset="0.289062"/><stop stop-opacity="1" stop-color="rgb(31.845093%, 14.784241%, 31.190491%)" offset="0.292969"/><stop stop-opacity="1" stop-color="rgb(32.365417%, 14.862061%, 31.343079%)" offset="0.296875"/><stop stop-opacity="1" stop-color="rgb(32.885742%, 14.93988%, 31.494141%)" offset="0.300781"/><stop stop-opacity="1" stop-color="rgb(33.407593%, 15.0177%, 31.646729%)" offset="0.304688"/><stop stop-opacity="1" stop-color="rgb(33.927917%, 15.093994%, 31.797791%)" offset="0.308594"/><stop stop-opacity="1" stop-color="rgb(34.448242%, 15.171814%, 31.950378%)" offset="0.3125"/><stop stop-opacity="1" stop-color="rgb(35.047913%, 15.293884%, 32.096863%)" offset="0.316406"/><stop stop-opacity="1" stop-color="rgb(35.647583%, 15.415955%, 32.244873%)" offset="0.320312"/><stop stop-opacity="1" stop-color="rgb(36.598206%, 15.731812%, 32.371521%)" offset="0.324219"/><stop stop-opacity="1" stop-color="rgb(37.548828%, 16.049194%, 32.498169%)" offset="0.328125"/><stop stop-opacity="1" stop-color="rgb(38.499451%, 16.366577%, 32.623291%)" offset="0.332031"/><stop stop-opacity="1" stop-color="rgb(39.451599%, 16.68396%, 32.749939%)" offset="0.335938"/><stop stop-opacity="1" stop-color="rgb(40.402222%, 16.999817%, 32.875061%)" offset="0.339844"/><stop stop-opacity="1" stop-color="rgb(41.352844%, 17.3172%, 33.001709%)" offset="0.34375"/><stop stop-opacity="1" stop-color="rgb(42.303467%, 17.633057%, 33.128357%)" offset="0.347656"/><stop stop-opacity="1" stop-color="rgb(43.254089%, 17.950439%, 33.255005%)" offset="0.351562"/><stop stop-opacity="1" stop-color="rgb(44.204712%, 18.267822%, 33.380127%)" offset="0.355469"/><stop stop-opacity="1" stop-color="rgb(45.155334%, 18.585205%, 33.506775%)" offset="0.359375"/><stop stop-opacity="1" stop-color="rgb(46.105957%, 18.901062%, 33.631897%)" offset="0.363281"/><stop stop-opacity="1" stop-color="rgb(47.058105%, 19.218445%, 33.758545%)" offset="0.367187"/><stop stop-opacity="1" stop-color="rgb(48.008728%, 19.535828%, 33.885193%)" offset="0.371094"/><stop stop-opacity="1" stop-color="rgb(48.959351%, 19.85321%, 34.011841%)" offset="0.375"/><stop stop-opacity="1" stop-color="rgb(49.909973%, 20.169067%, 34.136963%)" offset="0.378906"/><stop stop-opacity="1" stop-color="rgb(50.860596%, 20.48645%, 34.263611%)" offset="0.382812"/><stop stop-opacity="1" stop-color="rgb(51.811218%, 20.802307%, 34.388733%)" offset="0.386719"/><stop stop-opacity="1" stop-color="rgb(52.761841%, 21.11969%, 34.515381%)" offset="0.390625"/><stop stop-opacity="1" stop-color="rgb(53.712463%, 21.437073%, 34.642029%)" offset="0.394531"/><stop stop-opacity="1" stop-color="rgb(54.664612%, 21.754456%, 34.768677%)" offset="0.398438"/><stop stop-opacity="1" stop-color="rgb(55.615234%, 22.070312%, 34.893799%)" offset="0.402344"/><stop stop-opacity="1" stop-color="rgb(56.565857%, 22.387695%, 35.020447%)" offset="0.40625"/><stop stop-opacity="1" stop-color="rgb(57.516479%, 22.705078%, 35.145569%)" offset="0.410156"/><stop stop-opacity="1" stop-color="rgb(58.467102%, 23.022461%, 35.272217%)" offset="0.414062"/><stop stop-opacity="1" stop-color="rgb(59.417725%, 23.338318%, 35.398865%)" offset="0.417969"/><stop stop-opacity="1" stop-color="rgb(60.368347%, 23.655701%, 35.525513%)" offset="0.421875"/><stop stop-opacity="1" stop-color="rgb(61.31897%, 23.971558%, 35.650635%)" offset="0.425781"/><stop stop-opacity="1" stop-color="rgb(62.271118%, 24.28894%, 35.777283%)" offset="0.429688"/><stop stop-opacity="1" stop-color="rgb(63.221741%, 24.606323%, 35.902405%)" offset="0.433594"/><stop stop-opacity="1" stop-color="rgb(64.172363%, 24.923706%, 36.029053%)" offset="0.4375"/><stop stop-opacity="1" stop-color="rgb(65.113831%, 25.239563%, 36.14502%)" offset="0.441406"/><stop stop-opacity="1" stop-color="rgb(66.055298%, 25.556946%, 36.262512%)" offset="0.445312"/><stop stop-opacity="1" stop-color="rgb(66.992188%, 25.874329%, 36.375427%)" offset="0.449219"/><stop stop-opacity="1" stop-color="rgb(67.930603%, 26.191711%, 36.489868%)" offset="0.453125"/><stop stop-opacity="1" stop-color="rgb(68.867493%, 26.507568%, 36.602783%)" offset="0.457031"/><stop stop-opacity="1" stop-color="rgb(69.805908%, 26.824951%, 36.715698%)" offset="0.460937"/><stop stop-opacity="1" stop-color="rgb(70.744324%, 27.142334%, 36.828613%)" offset="0.464844"/><stop stop-opacity="1" stop-color="rgb(71.682739%, 27.459717%, 36.941528%)" offset="0.46875"/><stop stop-opacity="1" stop-color="rgb(72.619629%, 27.775574%, 37.054443%)" offset="0.472656"/><stop stop-opacity="1" stop-color="rgb(73.558044%, 28.092957%, 37.168884%)" offset="0.476562"/><stop stop-opacity="1" stop-color="rgb(74.494934%, 28.408813%, 37.281799%)" offset="0.480469"/><stop stop-opacity="1" stop-color="rgb(75.43335%, 28.726196%, 37.394714%)" offset="0.484375"/><stop stop-opacity="1" stop-color="rgb(76.371765%, 29.043579%, 37.507629%)" offset="0.488281"/><stop stop-opacity="1" stop-color="rgb(77.310181%, 29.360962%, 37.620544%)" offset="0.492188"/><stop stop-opacity="1" stop-color="rgb(78.24707%, 29.676819%, 37.733459%)" offset="0.496094"/><stop stop-opacity="1" stop-color="rgb(79.185486%, 29.994202%, 37.8479%)" offset="0.5"/><stop stop-opacity="1" stop-color="rgb(80.122375%, 30.311584%, 37.960815%)" offset="0.503906"/><stop stop-opacity="1" stop-color="rgb(81.060791%, 30.628967%, 38.07373%)" offset="0.507812"/><stop stop-opacity="1" stop-color="rgb(81.999207%, 30.944824%, 38.186646%)" offset="0.511719"/><stop stop-opacity="1" stop-color="rgb(82.937622%, 31.262207%, 38.301086%)" offset="0.515625"/><stop stop-opacity="1" stop-color="rgb(83.874512%, 31.578064%, 38.414001%)" offset="0.519531"/><stop stop-opacity="1" stop-color="rgb(84.812927%, 31.895447%, 38.526917%)" offset="0.523438"/><stop stop-opacity="1" stop-color="rgb(85.749817%, 32.21283%, 38.639832%)" offset="0.527344"/><stop stop-opacity="1" stop-color="rgb(86.688232%, 32.530212%, 38.752747%)" offset="0.53125"/><stop stop-opacity="1" stop-color="rgb(87.625122%, 32.846069%, 38.865662%)" offset="0.535156"/><stop stop-opacity="1" stop-color="rgb(88.563538%, 33.163452%, 38.980103%)" offset="0.539062"/><stop stop-opacity="1" stop-color="rgb(89.501953%, 33.480835%, 39.093018%)" offset="0.542969"/><stop stop-opacity="1" stop-color="rgb(90.440369%, 33.798218%, 39.205933%)" offset="0.546875"/><stop stop-opacity="1" stop-color="rgb(91.377258%, 34.114075%, 39.318848%)" offset="0.550781"/><stop stop-opacity="1" stop-color="rgb(92.315674%, 34.431458%, 39.431763%)" offset="0.554687"/><stop stop-opacity="1" stop-color="rgb(93.023682%, 34.783936%, 39.349365%)" offset="0.558594"/><stop stop-opacity="1" stop-color="rgb(93.733215%, 35.137939%, 39.266968%)" offset="0.5625"/><stop stop-opacity="1" stop-color="rgb(93.797302%, 35.594177%, 38.632202%)" offset="0.566406"/><stop stop-opacity="1" stop-color="rgb(93.862915%, 36.050415%, 37.998962%)" offset="0.570312"/><stop stop-opacity="1" stop-color="rgb(93.927002%, 36.506653%, 37.364197%)" offset="0.574219"/><stop stop-opacity="1" stop-color="rgb(93.992615%, 36.962891%, 36.730957%)" offset="0.578125"/><stop stop-opacity="1" stop-color="rgb(94.056702%, 37.417603%, 36.096191%)" offset="0.582031"/><stop stop-opacity="1" stop-color="rgb(94.120789%, 37.87384%, 35.462952%)" offset="0.585938"/><stop stop-opacity="1" stop-color="rgb(94.184875%, 38.330078%, 34.828186%)" offset="0.589844"/><stop stop-opacity="1" stop-color="rgb(94.250488%, 38.786316%, 34.194946%)" offset="0.59375"/><stop stop-opacity="1" stop-color="rgb(94.314575%, 39.242554%, 33.561707%)" offset="0.597656"/><stop stop-opacity="1" stop-color="rgb(94.380188%, 39.698792%, 32.928467%)" offset="0.601562"/><stop stop-opacity="1" stop-color="rgb(94.444275%, 40.155029%, 32.293701%)" offset="0.605469"/><stop stop-opacity="1" stop-color="rgb(94.509888%, 40.611267%, 31.660461%)" offset="0.609375"/><stop stop-opacity="1" stop-color="rgb(94.573975%, 41.065979%, 31.025696%)" offset="0.613281"/><stop stop-opacity="1" stop-color="rgb(94.638062%, 41.522217%, 30.392456%)" offset="0.617187"/><stop stop-opacity="1" stop-color="rgb(94.702148%, 41.978455%, 29.75769%)" offset="0.621094"/><stop stop-opacity="1" stop-color="rgb(94.767761%, 42.434692%, 29.124451%)" offset="0.625"/><stop stop-opacity="1" stop-color="rgb(94.831848%, 42.89093%, 28.489685%)" offset="0.628906"/><stop stop-opacity="1" stop-color="rgb(94.897461%, 43.347168%, 27.856445%)" offset="0.632812"/><stop stop-opacity="1" stop-color="rgb(94.961548%, 43.80188%, 27.22168%)" offset="0.636719"/><stop stop-opacity="1" stop-color="rgb(95.027161%, 44.258118%, 26.58844%)" offset="0.640625"/><stop stop-opacity="1" stop-color="rgb(95.091248%, 44.714355%, 25.9552%)" offset="0.644531"/><stop stop-opacity="1" stop-color="rgb(95.15686%, 45.170593%, 25.32196%)" offset="0.648438"/><stop stop-opacity="1" stop-color="rgb(95.220947%, 45.626831%, 24.687195%)" offset="0.652344"/><stop stop-opacity="1" stop-color="rgb(95.285034%, 46.083069%, 24.053955%)" offset="0.65625"/><stop stop-opacity="1" stop-color="rgb(95.349121%, 46.537781%, 23.419189%)" offset="0.660156"/><stop stop-opacity="1" stop-color="rgb(95.414734%, 46.994019%, 22.78595%)" offset="0.664062"/><stop stop-opacity="1" stop-color="rgb(95.478821%, 47.450256%, 22.151184%)" offset="0.667969"/><stop stop-opacity="1" stop-color="rgb(95.544434%, 47.906494%, 21.517944%)" offset="0.671875"/><stop stop-opacity="1" stop-color="rgb(95.608521%, 48.362732%, 20.883179%)" offset="0.675781"/><stop stop-opacity="1" stop-color="rgb(95.674133%, 48.81897%, 20.249939%)" offset="0.679688"/><stop stop-opacity="1" stop-color="rgb(95.735168%, 49.264526%, 19.606018%)" offset="0.683594"/><stop stop-opacity="1" stop-color="rgb(95.797729%, 49.710083%, 18.962097%)" offset="0.6875"/><stop stop-opacity="1" stop-color="rgb(95.858765%, 50.152588%, 18.315125%)" offset="0.691406"/><stop stop-opacity="1" stop-color="rgb(95.921326%, 50.596619%, 17.668152%)" offset="0.695312"/><stop stop-opacity="1" stop-color="rgb(95.982361%, 51.039124%, 17.021179%)" offset="0.699219"/><stop stop-opacity="1" stop-color="rgb(96.043396%, 51.481628%, 16.374207%)" offset="0.703125"/><stop stop-opacity="1" stop-color="rgb(96.104431%, 51.924133%, 15.727234%)" offset="0.707031"/><stop stop-opacity="1" stop-color="rgb(96.166992%, 52.368164%, 15.081787%)" offset="0.710938"/><stop stop-opacity="1" stop-color="rgb(96.228027%, 52.810669%, 14.434814%)" offset="0.714844"/><stop stop-opacity="1" stop-color="rgb(96.289062%, 53.2547%, 13.787842%)" offset="0.71875"/><stop stop-opacity="1" stop-color="rgb(96.350098%, 53.697205%, 13.140869%)" offset="0.722656"/><stop stop-opacity="1" stop-color="rgb(96.412659%, 54.139709%, 12.493896%)" offset="0.726562"/><stop stop-opacity="1" stop-color="rgb(96.473694%, 54.582214%, 11.846924%)" offset="0.730469"/><stop stop-opacity="1" stop-color="rgb(96.534729%, 55.026245%, 11.199951%)" offset="0.734375"/><stop stop-opacity="1" stop-color="rgb(96.595764%, 55.46875%, 10.552979%)" offset="0.738281"/><stop stop-opacity="1" stop-color="rgb(96.658325%, 55.912781%, 9.906006%)" offset="0.742188"/><stop stop-opacity="1" stop-color="rgb(96.71936%, 56.355286%, 9.259033%)" offset="0.746094"/><stop stop-opacity="1" stop-color="rgb(96.780396%, 56.799316%, 8.613586%)" offset="0.75"/><stop stop-opacity="1" stop-color="rgb(96.841431%, 57.241821%, 7.966614%)" offset="0.753906"/><stop stop-opacity="1" stop-color="rgb(96.903992%, 57.684326%, 7.319641%)" offset="0.757812"/><stop stop-opacity="1" stop-color="rgb(96.965027%, 58.126831%, 6.672668%)" offset="0.761719"/><stop stop-opacity="1" stop-color="rgb(97.026062%, 58.570862%, 6.025696%)" offset="0.765625"/><stop stop-opacity="1" stop-color="rgb(97.087097%, 59.013367%, 5.378723%)" offset="0.769531"/><stop stop-opacity="1" stop-color="rgb(97.149658%, 59.457397%, 4.73175%)" offset="0.773438"/><stop stop-opacity="1" stop-color="rgb(97.210693%, 59.899902%, 4.084778%)" offset="0.777344"/><stop stop-opacity="1" stop-color="rgb(97.273254%, 60.343933%, 3.437805%)" offset="0.78125"/><stop stop-opacity="1" stop-color="rgb(97.33429%, 60.786438%, 2.790833%)" offset="0.785156"/><stop stop-opacity="1" stop-color="rgb(97.395325%, 61.228943%, 2.145386%)" offset="0.789062"/><stop stop-opacity="1" stop-color="rgb(97.45636%, 61.671448%, 1.498413%)" offset="0.792969"/><stop stop-opacity="1" stop-color="rgb(97.518921%, 62.115479%, 0.85144%)" offset="0.796875"/><stop stop-opacity="1" stop-color="rgb(97.558594%, 62.406921%, 0.42572%)" offset="0.800781"/><stop stop-opacity="1" stop-color="rgb(97.599792%, 62.69989%, 0%)" offset="0.804688"/><stop stop-opacity="1" stop-color="rgb(97.599792%, 62.69989%, 0%)" offset="0.8125"/><stop stop-opacity="1" stop-color="rgb(97.599792%, 62.69989%, 0%)" offset="0.875"/><stop stop-opacity="1" stop-color="rgb(97.599792%, 62.69989%, 0%)" offset="1"/></linearGradient></defs><g clip-path="url(#bae9e06850)"><g clip-path="url(#1a061f6493)"><path fill="url(#94fda20238)" d="M 0.015625 332.800781 L 0.015625 608.546875 L 276.039062 608.546875 L 276.039062 332.800781 Z M 0.015625 332.800781 " fill-rule="nonzero"/></g></g><g clip-path="url(#500b55b9f6)"><g clip-path="url(#a0d77f2339)"><path fill="url(#2da20f9be0)" d="M 13.8125 346.59375 L 13.8125 594.667969 L 262.152344 594.667969 L 262.152344 346.59375 Z M 13.8125 346.59375 " fill-rule="nonzero"/></g></g><path fill="#312146" d="M 135.835938 544.683594 C 138.316406 544.769531 140.792969 544.703125 143.269531 544.492188 C 145.742188 544.285156 148.195312 543.925781 150.625 543.425781 C 153.058594 542.925781 155.453125 542.28125 157.808594 541.496094 C 160.160156 540.710938 162.460938 539.789062 164.707031 538.730469 C 166.953125 537.671875 169.128906 536.484375 171.234375 535.167969 C 173.335938 533.851562 175.355469 532.417969 177.289062 530.863281 C 179.226562 529.304688 181.058594 527.640625 182.796875 525.867188 C 184.53125 524.097656 186.15625 522.226562 187.671875 520.261719 C 176.894531 522.925781 165.972656 524.714844 154.910156 525.625 Z M 212.121094 468.484375 L 193.066406 487.519531 C 192.160156 498.578125 190.363281 509.492188 187.679688 520.261719 C 189.648438 518.75 191.523438 517.128906 193.300781 515.398438 C 195.078125 513.667969 196.75 511.835938 198.308594 509.902344 C 199.867188 507.972656 201.304688 505.957031 202.625 503.855469 C 203.941406 501.75 205.132812 499.578125 206.191406 497.335938 C 207.25 495.089844 208.171875 492.792969 208.957031 490.4375 C 209.742188 488.085938 210.382812 485.695312 210.882812 483.265625 C 211.382812 480.832031 211.738281 478.382812 211.945312 475.910156 C 212.152344 473.4375 212.210938 470.960938 212.121094 468.484375 Z M 212.121094 468.484375 " fill-opacity="1" fill-rule="nonzero"/><path fill="#5a2752" d="M 237.359375 470.636719 C 237.363281 466.789062 236.925781 462.996094 236.042969 459.25 C 235.160156 455.507812 233.859375 451.917969 232.136719 448.476562 L 212.121094 468.484375 C 212.210938 470.960938 212.152344 473.4375 211.945312 475.910156 C 211.738281 478.382812 211.386719 480.832031 210.886719 483.261719 C 210.386719 485.691406 209.746094 488.085938 208.960938 490.4375 C 208.175781 492.792969 207.253906 495.089844 206.195312 497.332031 C 205.136719 499.578125 203.945312 501.75 202.628906 503.851562 C 201.3125 505.957031 199.871094 507.972656 198.3125 509.902344 C 196.753906 511.832031 195.085938 513.664062 193.308594 515.398438 C 191.53125 517.128906 189.65625 518.75 187.6875 520.261719 C 190.949219 520.261719 194.183594 519.945312 197.382812 519.308594 C 200.585938 518.675781 203.691406 517.730469 206.707031 516.480469 C 209.71875 515.234375 212.582031 513.699219 215.292969 511.886719 C 218.003906 510.070312 220.511719 508.007812 222.8125 505.699219 C 225.121094 503.398438 227.183594 500.894531 228.996094 498.1875 C 230.808594 495.480469 232.339844 492.625 233.585938 489.617188 C 234.835938 486.609375 235.777344 483.507812 236.414062 480.3125 C 237.046875 477.117188 237.363281 473.890625 237.359375 470.636719 Z M 176.113281 531.804688 C 173.257812 534 170.230469 535.933594 167.039062 537.609375 C 163.847656 539.28125 160.535156 540.664062 157.101562 541.761719 C 153.667969 542.863281 150.164062 543.65625 146.59375 544.148438 C 143.023438 544.640625 139.4375 544.820312 135.835938 544.691406 L 115.820312 564.660156 C 116.761719 565.128906 117.71875 565.566406 118.6875 565.976562 C 119.660156 566.386719 120.640625 566.761719 121.632812 567.109375 C 122.628906 567.457031 123.632812 567.769531 124.644531 568.050781 C 125.660156 568.335938 126.679688 568.585938 127.710938 568.800781 C 128.742188 569.019531 129.777344 569.207031 130.816406 569.355469 C 131.859375 569.507812 132.90625 569.628906 133.953125 569.714844 C 135.003906 569.800781 136.054688 569.851562 137.105469 569.871094 C 138.160156 569.890625 139.210938 569.875 140.261719 569.828125 C 141.3125 569.777344 142.363281 569.699219 143.410156 569.582031 C 144.457031 569.46875 145.496094 569.320312 146.535156 569.140625 C 147.570312 568.960938 148.601562 568.746094 149.625 568.5 C 150.648438 568.253906 151.664062 567.976562 152.667969 567.664062 C 153.671875 567.355469 154.667969 567.011719 155.652344 566.636719 C 156.636719 566.265625 157.605469 565.859375 158.566406 565.425781 C 159.523438 564.988281 160.464844 564.523438 161.394531 564.027344 C 162.324219 563.535156 163.234375 563.007812 164.128906 562.457031 C 165.027344 561.902344 165.902344 561.320312 166.761719 560.714844 C 167.617188 560.105469 168.457031 559.46875 169.273438 558.808594 C 170.09375 558.144531 170.886719 557.457031 171.664062 556.746094 C 172.4375 556.03125 173.1875 555.296875 173.914062 554.535156 C 174.640625 553.777344 175.34375 552.992188 176.019531 552.1875 C 176.699219 551.382812 177.347656 550.558594 177.972656 549.710938 C 178.597656 548.867188 179.195312 548 179.765625 547.117188 C 180.335938 546.234375 180.875 545.332031 181.386719 544.414062 C 181.902344 543.496094 182.382812 542.5625 182.835938 541.613281 C 183.289062 540.664062 183.710938 539.699219 184.101562 538.722656 C 184.496094 537.75 184.855469 536.761719 185.183594 535.761719 C 185.511719 534.761719 185.808594 533.753906 186.074219 532.738281 C 186.339844 531.71875 186.570312 530.695312 186.769531 529.664062 C 186.96875 528.628906 187.136719 527.59375 187.269531 526.550781 C 187.402344 525.507812 187.503906 524.460938 187.570312 523.410156 C 187.636719 522.363281 187.671875 521.3125 187.671875 520.261719 C 184.324219 524.613281 180.472656 528.460938 176.113281 531.804688 Z M 135.835938 544.683594 L 154.917969 525.625 C 139.347656 526.917969 123.835938 526.4375 108.378906 524.191406 L 100.382812 532.175781 C 102.933594 534.089844 105.613281 535.796875 108.421875 537.304688 C 111.234375 538.808594 114.140625 540.089844 117.148438 541.148438 C 120.152344 542.210938 123.222656 543.039062 126.355469 543.628906 C 129.488281 544.222656 132.648438 544.574219 135.835938 544.683594 Z M 187.6875 470.636719 C 187.699219 463.277344 186.144531 456.265625 183.023438 449.601562 L 125.371094 507.210938 C 125.726562 507.703125 126.074219 508.207031 126.457031 508.699219 C 129.796875 513.054688 133.648438 516.90625 138.003906 520.253906 C 139.632812 520.253906 141.253906 520.171875 142.875 520.015625 C 144.492188 519.855469 146.101562 519.617188 147.695312 519.300781 C 149.292969 518.984375 150.871094 518.589844 152.425781 518.117188 C 153.984375 517.644531 155.515625 517.101562 157.015625 516.476562 C 158.519531 515.855469 159.988281 515.164062 161.425781 514.394531 C 162.859375 513.628906 164.253906 512.796875 165.605469 511.894531 C 166.960938 510.992188 168.265625 510.023438 169.523438 508.992188 C 170.78125 507.960938 171.984375 506.871094 173.136719 505.722656 C 174.285156 504.574219 175.375 503.371094 176.410156 502.113281 C 177.441406 500.859375 178.410156 499.554688 179.3125 498.203125 C 180.21875 496.851562 181.054688 495.460938 181.820312 494.027344 C 182.585938 492.59375 183.28125 491.125 183.90625 489.625 C 184.527344 488.125 185.074219 486.59375 185.546875 485.039062 C 186.019531 483.484375 186.414062 481.910156 186.730469 480.316406 C 187.050781 478.722656 187.289062 477.117188 187.449219 475.5 C 187.605469 473.882812 187.6875 472.261719 187.6875 470.636719 Z M 187.6875 470.636719 " fill-opacity="1" fill-rule="nonzero"/><path fill="#5a2752" d="M 191.605469 441.058594 C 193.859375 456.488281 194.347656 471.972656 193.074219 487.511719 L 212.128906 468.476562 C 212.023438 465.296875 211.671875 462.140625 211.082031 459.015625 C 210.488281 455.886719 209.660156 452.824219 208.597656 449.824219 C 207.535156 446.824219 206.25 443.921875 204.742188 441.121094 C 203.234375 438.316406 201.519531 435.644531 199.601562 433.105469 Z M 191.605469 441.058594 " fill-opacity="1" fill-rule="nonzero"/><path fill="#a5405c" d="M 126.457031 508.699219 C 126.082031 508.214844 125.734375 507.710938 125.371094 507.210938 L 116.980469 515.625 C 123.652344 518.746094 130.671875 520.296875 138.039062 520.285156 C 133.667969 516.929688 129.804688 513.070312 126.457031 508.699219 Z M 100.382812 532.175781 L 92.460938 540.089844 C 94.96875 545.828125 98.433594 550.910156 102.863281 555.339844 C 106.675781 559.144531 110.996094 562.246094 115.820312 564.652344 L 135.820312 544.675781 C 132.632812 544.566406 129.476562 544.214844 126.34375 543.621094 C 123.214844 543.03125 120.144531 542.203125 117.140625 541.144531 C 114.136719 540.082031 111.230469 538.800781 108.417969 537.300781 C 105.609375 535.796875 102.933594 534.089844 100.382812 532.175781 Z M 212.121094 468.484375 L 232.136719 448.476562 C 230.839844 445.894531 229.332031 443.441406 227.613281 441.117188 C 225.890625 438.796875 223.980469 436.640625 221.882812 434.652344 C 219.785156 432.660156 217.53125 430.867188 215.121094 429.269531 C 212.710938 427.671875 210.179688 426.292969 207.53125 425.136719 L 199.59375 433.066406 C 201.515625 435.609375 203.230469 438.285156 204.738281 441.089844 C 206.25 443.898438 207.535156 446.804688 208.597656 449.808594 C 209.660156 452.8125 210.488281 455.878906 211.078125 459.011719 C 211.667969 462.140625 212.015625 465.300781 212.121094 468.484375 Z M 125.371094 507.210938 L 183.046875 449.632812 C 181.820312 447.019531 180.375 444.53125 178.714844 442.164062 C 177.054688 439.800781 175.199219 437.597656 173.15625 435.558594 C 171.113281 433.515625 168.90625 431.664062 166.539062 430.003906 C 164.171875 428.347656 161.679688 426.90625 159.0625 425.679688 L 113.519531 471.128906 C 113.542969 474.351562 113.8125 477.550781 114.335938 480.734375 C 114.855469 483.914062 115.617188 487.035156 116.621094 490.09375 C 117.628906 493.15625 118.863281 496.121094 120.332031 498.992188 C 121.796875 501.863281 123.476562 504.601562 125.371094 507.210938 Z M 76.417969 508.199219 C 76.539062 508.367188 76.660156 508.539062 76.78125 508.699219 C 80.125 513.054688 83.976562 516.90625 88.332031 520.253906 C 86.710938 513.644531 85.40625 506.964844 84.410156 500.214844 Z M 76.417969 508.199219 " fill-opacity="1" fill-rule="nonzero"/><path fill="#a5405c" d="M 100.382812 532.175781 L 108.378906 524.191406 C 101.628906 523.214844 94.949219 521.90625 88.332031 520.261719 C 91.804688 524.78125 95.824219 528.753906 100.382812 532.175781 Z M 199.601562 433.105469 C 199.480469 432.9375 199.359375 432.765625 199.238281 432.605469 C 195.894531 428.246094 192.042969 424.398438 187.6875 421.050781 C 189.308594 427.660156 190.613281 434.339844 191.605469 441.089844 Z M 175.625 409.101562 L 167.65625 417.085938 C 174.40625 418.0625 181.085938 419.375 187.703125 421.019531 C 184.222656 416.496094 180.195312 412.523438 175.625 409.101562 Z M 175.625 409.101562 " fill-opacity="1" fill-rule="nonzero"/><path fill="#ef5965" d="M 76.78125 508.699219 C 76.652344 508.539062 76.539062 508.359375 76.417969 508.199219 L 68.480469 516.125 C 74.808594 518.886719 81.425781 520.265625 88.332031 520.261719 C 83.972656 516.914062 80.125 513.058594 76.78125 508.699219 Z M 76.78125 508.699219 " fill-opacity="1" fill-rule="nonzero"/><path fill="#ef5965" d="M 88.332031 520.261719 C 88.328125 527.160156 89.707031 533.769531 92.46875 540.089844 L 100.390625 532.175781 C 95.828125 528.753906 91.808594 524.78125 88.332031 520.261719 Z M 199.246094 432.570312 C 199.375 432.734375 199.488281 432.910156 199.609375 433.074219 L 207.546875 425.144531 C 201.21875 422.382812 194.601562 421.003906 187.695312 421.011719 C 192.050781 424.359375 195.902344 428.210938 199.246094 432.570312 Z M 187.6875 421.019531 C 187.691406 414.121094 186.3125 407.511719 183.546875 401.191406 L 175.625 409.101562 C 180.191406 412.527344 184.210938 416.496094 187.6875 421.019531 Z M 113.519531 471.128906 L 92.996094 491.628906 C 94.222656 494.25 95.664062 496.742188 97.324219 499.109375 C 98.984375 501.476562 100.835938 503.683594 102.882812 505.730469 C 104.925781 507.773438 107.132812 509.628906 109.5 511.289062 C 111.867188 512.953125 114.359375 514.398438 116.980469 515.625 L 125.371094 507.242188 C 123.476562 504.632812 121.792969 501.890625 120.328125 499.019531 C 118.859375 496.144531 117.621094 493.175781 116.617188 490.113281 C 115.613281 487.046875 114.851562 483.925781 114.332031 480.742188 C 113.8125 477.558594 113.542969 474.355469 113.519531 471.128906 Z M 113.519531 471.128906 L 159.03125 425.671875 C 152.359375 422.550781 145.339844 421 137.972656 421.011719 C 136.058594 422.476562 134.234375 424.050781 132.503906 425.730469 C 130.769531 427.410156 129.140625 429.179688 127.613281 431.046875 C 126.085938 432.914062 124.671875 434.863281 123.371094 436.894531 C 122.070312 438.925781 120.890625 441.023438 119.835938 443.191406 C 118.777344 445.359375 117.847656 447.582031 117.050781 449.855469 C 116.25 452.128906 115.582031 454.441406 115.050781 456.792969 C 114.519531 459.144531 114.128906 461.519531 113.871094 463.917969 C 113.613281 466.316406 113.5 468.71875 113.519531 471.128906 Z M 76.417969 508.199219 L 84.410156 500.214844 C 82.160156 484.785156 81.671875 469.300781 82.945312 453.757812 L 63.886719 472.796875 C 63.992188 475.980469 64.34375 479.136719 64.933594 482.265625 C 65.527344 485.394531 66.351562 488.460938 67.414062 491.464844 C 68.476562 494.464844 69.765625 497.371094 71.273438 500.175781 C 72.78125 502.980469 74.496094 505.65625 76.417969 508.199219 Z M 76.417969 508.199219 " fill-opacity="1" fill-rule="nonzero"/><path fill="#ef5965" d="M 140.175781 396.59375 L 121.09375 415.65625 C 136.667969 414.363281 152.191406 414.839844 167.65625 417.085938 L 175.652344 409.101562 C 173.101562 407.1875 170.417969 405.480469 167.605469 403.972656 C 164.792969 402.46875 161.882812 401.1875 158.875 400.125 C 155.867188 399.066406 152.796875 398.238281 149.660156 397.648438 C 146.527344 397.054688 143.363281 396.703125 140.175781 396.59375 Z M 140.175781 396.59375 " fill-opacity="1" fill-rule="nonzero"/><path fill="#f47d33" d="M 138.003906 421.019531 C 136.964844 421.019531 135.929688 421.050781 134.890625 421.117188 C 133.851562 421.183594 132.820312 421.28125 131.789062 421.410156 C 130.757812 421.539062 129.730469 421.703125 128.710938 421.898438 C 127.691406 422.089844 126.675781 422.316406 125.667969 422.574219 C 124.664062 422.832031 123.664062 423.121094 122.675781 423.441406 C 121.6875 423.761719 120.710938 424.113281 119.746094 424.496094 C 118.777344 424.878906 117.824219 425.289062 116.882812 425.730469 C 115.945312 426.171875 115.019531 426.644531 114.105469 427.140625 C 113.195312 427.640625 112.300781 428.167969 111.421875 428.726562 C 110.546875 429.28125 109.6875 429.863281 108.84375 430.472656 C 108.003906 431.082031 107.183594 431.71875 106.382812 432.378906 C 105.578125 433.039062 104.800781 433.722656 104.042969 434.433594 C 103.28125 435.144531 102.546875 435.875 101.835938 436.632812 C 101.125 437.386719 100.4375 438.167969 99.773438 438.964844 C 99.109375 439.765625 98.472656 440.582031 97.859375 441.421875 C 97.246094 442.261719 96.664062 443.117188 96.105469 443.992188 C 95.546875 444.871094 95.015625 445.761719 94.515625 446.671875 C 94.011719 447.578125 93.539062 448.503906 93.09375 449.441406 C 92.652344 450.378906 92.238281 451.332031 91.851562 452.296875 C 91.46875 453.261719 91.113281 454.238281 90.792969 455.222656 C 90.46875 456.210938 90.175781 457.207031 89.917969 458.210938 C 89.65625 459.214844 89.429688 460.226562 89.230469 461.246094 C 89.035156 462.265625 88.871094 463.289062 88.738281 464.320312 C 88.605469 465.347656 88.503906 466.382812 88.4375 467.417969 C 88.371094 468.453125 88.335938 469.492188 88.332031 470.527344 C 88.328125 471.566406 88.359375 472.605469 88.421875 473.640625 C 88.484375 474.675781 88.582031 475.710938 88.707031 476.738281 C 88.835938 477.769531 88.996094 478.796875 89.1875 479.816406 C 89.378906 480.835938 89.605469 481.847656 89.859375 482.855469 C 90.117188 483.859375 90.402344 484.859375 90.722656 485.847656 C 91.039062 486.835938 91.386719 487.8125 91.769531 488.777344 C 92.148438 489.742188 92.558594 490.695312 92.996094 491.636719 L 113.519531 471.128906 C 113.5 468.71875 113.617188 466.3125 113.875 463.917969 C 114.132812 461.519531 114.527344 459.144531 115.058594 456.792969 C 115.59375 454.441406 116.261719 452.128906 117.0625 449.855469 C 117.863281 447.578125 118.792969 445.359375 119.851562 443.191406 C 120.910156 441.023438 122.089844 438.925781 123.390625 436.898438 C 124.695312 434.867188 126.109375 432.917969 127.636719 431.050781 C 129.167969 429.183594 130.796875 427.414062 132.53125 425.734375 C 134.265625 424.058594 136.089844 422.484375 138.003906 421.019531 Z M 63.886719 472.796875 L 43.875 492.785156 C 46.28125 497.605469 49.386719 501.917969 53.195312 505.730469 C 57.632812 510.15625 62.722656 513.621094 68.472656 516.125 L 76.410156 508.199219 C 74.488281 505.65625 72.777344 502.980469 71.265625 500.175781 C 69.757812 497.371094 68.472656 494.464844 67.410156 491.464844 C 66.347656 488.460938 65.523438 485.394531 64.933594 482.265625 C 64.339844 479.136719 63.992188 475.980469 63.886719 472.796875 Z M 175.625 409.101562 L 183.546875 401.191406 C 182.390625 398.542969 181.007812 396.015625 179.410156 393.609375 C 177.808594 391.199219 176.015625 388.949219 174.023438 386.855469 C 172.03125 384.757812 169.871094 382.851562 167.546875 381.132812 C 165.222656 379.410156 162.769531 377.90625 160.179688 376.613281 L 140.175781 396.59375 C 143.363281 396.707031 146.523438 397.058594 149.65625 397.648438 C 152.789062 398.242188 155.855469 399.070312 158.863281 400.128906 C 161.871094 401.191406 164.777344 402.472656 167.585938 403.976562 C 170.398438 405.480469 173.078125 407.1875 175.625 409.101562 Z M 140.175781 396.59375 C 137.695312 396.511719 135.214844 396.574219 132.742188 396.785156 C 130.269531 396.996094 127.816406 397.351562 125.382812 397.855469 C 122.953125 398.355469 120.558594 399 118.203125 399.785156 C 115.847656 400.570312 113.546875 401.492188 111.300781 402.550781 C 109.058594 403.605469 106.882812 404.792969 104.777344 406.109375 C 102.671875 407.425781 100.652344 408.863281 98.71875 410.417969 C 96.785156 411.972656 94.949219 413.636719 93.214844 415.410156 C 91.480469 417.183594 89.855469 419.054688 88.339844 421.019531 C 99.117188 418.351562 110.035156 416.566406 121.101562 415.65625 Z M 63.886719 472.796875 L 82.945312 453.757812 C 83.851562 442.699219 85.644531 431.785156 88.332031 421.019531 C 86.359375 422.527344 84.484375 424.148438 82.707031 425.882812 C 80.929688 427.613281 79.261719 429.445312 77.703125 431.375 C 76.144531 433.308594 74.703125 435.324219 73.386719 437.425781 C 72.066406 439.527344 70.878906 441.699219 69.820312 443.945312 C 68.761719 446.1875 67.839844 448.488281 67.054688 450.839844 C 66.269531 453.195312 65.625 455.585938 65.125 458.015625 C 64.625 460.445312 64.273438 462.898438 64.066406 465.367188 C 63.859375 467.839844 63.800781 470.316406 63.886719 472.796875 Z M 63.886719 472.796875 " fill-opacity="1" fill-rule="nonzero"/><path fill="#f9a000" d="M 88.332031 421.019531 C 87.277344 421.019531 86.226562 421.050781 85.175781 421.117188 C 84.125 421.1875 83.078125 421.285156 82.035156 421.417969 C 80.992188 421.550781 79.953125 421.71875 78.917969 421.917969 C 77.886719 422.117188 76.859375 422.347656 75.839844 422.613281 C 74.820312 422.878906 73.8125 423.175781 72.8125 423.503906 C 71.8125 423.832031 70.824219 424.191406 69.847656 424.582031 C 68.871094 424.972656 67.90625 425.394531 66.957031 425.847656 C 66.007812 426.300781 65.070312 426.78125 64.152344 427.292969 C 63.230469 427.804688 62.328125 428.347656 61.445312 428.914062 C 60.558594 429.484375 59.695312 430.082031 58.847656 430.703125 C 58 431.328125 57.171875 431.980469 56.367188 432.65625 C 55.5625 433.332031 54.777344 434.035156 54.015625 434.761719 C 53.257812 435.488281 52.519531 436.234375 51.804688 437.007812 C 51.09375 437.78125 50.402344 438.578125 49.742188 439.394531 C 49.078125 440.210938 48.441406 441.046875 47.832031 441.90625 C 47.222656 442.761719 46.640625 443.636719 46.085938 444.53125 C 45.535156 445.425781 45.007812 446.335938 44.511719 447.265625 C 44.015625 448.191406 43.550781 449.132812 43.117188 450.089844 C 42.679688 451.046875 42.273438 452.019531 41.902344 453 C 41.527344 453.984375 41.183594 454.976562 40.875 455.980469 C 40.5625 456.984375 40.285156 458 40.039062 459.023438 C 39.792969 460.042969 39.578125 461.074219 39.398438 462.109375 C 39.214844 463.144531 39.066406 464.183594 38.953125 465.230469 C 38.839844 466.273438 38.757812 467.324219 38.710938 468.375 C 38.660156 469.421875 38.648438 470.472656 38.664062 471.523438 C 38.683594 472.578125 38.738281 473.625 38.824219 474.675781 C 38.90625 475.722656 39.027344 476.765625 39.179688 477.804688 C 39.332031 478.847656 39.515625 479.882812 39.734375 480.910156 C 39.953125 481.9375 40.203125 482.960938 40.484375 483.972656 C 40.769531 484.984375 41.082031 485.988281 41.429688 486.980469 C 41.777344 487.972656 42.15625 488.953125 42.5625 489.921875 C 42.972656 490.890625 43.414062 491.84375 43.882812 492.785156 L 63.894531 472.796875 C 63.808594 470.316406 63.867188 467.839844 64.074219 465.371094 C 64.28125 462.898438 64.632812 460.445312 65.132812 458.015625 C 65.632812 455.585938 66.273438 453.195312 67.058594 450.839844 C 67.84375 448.488281 68.765625 446.1875 69.824219 443.945312 C 70.882812 441.703125 72.070312 439.527344 73.390625 437.425781 C 74.707031 435.324219 76.144531 433.308594 77.707031 431.375 C 79.265625 429.445312 80.933594 427.613281 82.710938 425.882812 C 84.488281 424.148438 86.359375 422.527344 88.332031 421.019531 Z M 88.332031 421.019531 " fill-opacity="1" fill-rule="nonzero"/><path fill="#f9a000" d="M 99.898438 409.484375 C 102.753906 407.285156 105.777344 405.351562 108.972656 403.679688 C 112.164062 402.007812 115.476562 400.621094 118.910156 399.523438 C 122.34375 398.425781 125.84375 397.628906 129.414062 397.136719 C 132.988281 396.648438 136.574219 396.464844 140.175781 396.59375 L 160.171875 376.621094 C 159.230469 376.152344 158.277344 375.710938 157.304688 375.304688 C 156.335938 374.894531 155.355469 374.515625 154.359375 374.171875 C 153.367188 373.824219 152.363281 373.511719 151.347656 373.226562 C 150.335938 372.945312 149.3125 372.695312 148.28125 372.476562 C 147.253906 372.257812 146.21875 372.074219 145.175781 371.921875 C 144.132812 371.769531 143.089844 371.652344 142.039062 371.566406 C 140.992188 371.480469 139.941406 371.429688 138.886719 371.410156 C 137.835938 371.390625 136.785156 371.40625 135.730469 371.453125 C 134.679688 371.5 133.632812 371.582031 132.585938 371.695312 C 131.539062 371.8125 130.496094 371.957031 129.460938 372.140625 C 128.421875 372.320312 127.394531 372.535156 126.371094 372.78125 C 125.347656 373.027344 124.332031 373.304688 123.328125 373.613281 C 122.320312 373.925781 121.324219 374.265625 120.34375 374.640625 C 119.359375 375.015625 118.386719 375.417969 117.429688 375.855469 C 116.472656 376.289062 115.527344 376.753906 114.597656 377.25 C 113.671875 377.746094 112.757812 378.269531 111.863281 378.824219 C 110.96875 379.375 110.09375 379.957031 109.234375 380.566406 C 108.375 381.175781 107.539062 381.808594 106.71875 382.472656 C 105.902344 383.132812 105.105469 383.820312 104.332031 384.535156 C 103.558594 385.246094 102.808594 385.984375 102.082031 386.742188 C 101.351562 387.503906 100.652344 388.285156 99.972656 389.089844 C 99.296875 389.894531 98.644531 390.722656 98.019531 391.566406 C 97.394531 392.414062 96.796875 393.277344 96.230469 394.164062 C 95.660156 395.046875 95.117188 395.949219 94.605469 396.867188 C 94.09375 397.785156 93.609375 398.71875 93.15625 399.667969 C 92.703125 400.617188 92.28125 401.578125 91.890625 402.554688 C 91.5 403.53125 91.140625 404.519531 90.808594 405.515625 C 90.480469 406.515625 90.183594 407.523438 89.917969 408.542969 C 89.65625 409.558594 89.421875 410.585938 89.222656 411.617188 C 89.023438 412.648438 88.859375 413.6875 88.722656 414.730469 C 88.589844 415.773438 88.492188 416.820312 88.425781 417.867188 C 88.355469 418.917969 88.324219 419.96875 88.324219 421.019531 C 91.675781 416.667969 95.535156 412.820312 99.898438 409.484375 Z M 99.898438 409.484375 " fill-opacity="1" fill-rule="nonzero"/><path fill="#5a2752" d="M 320.3125 478.410156 L 314.078125 478.410156 L 314.078125 497.105469 L 299.757812 497.105469 L 299.757812 443.875 L 320.3125 443.875 C 327.832031 443.875 333.425781 448.664062 333.425781 456.65625 L 333.425781 465.605469 C 333.425781 473.554688 327.832031 478.410156 320.3125 478.410156 Z M 320.078125 457.320312 C 320.078125 455.402344 319.117188 454.683594 317.601562 454.683594 L 314.078125 454.683594 L 314.078125 468.582031 L 317.601562 468.582031 C 319.117188 468.582031 320.078125 467.773438 320.078125 465.945312 Z M 355.984375 498.433594 C 345.105469 498.433594 338.546875 492.769531 338.546875 483.257812 L 338.546875 480.382812 L 351.019531 480.382812 L 351.019531 482.941406 C 351.019531 485.496094 352.640625 487.332031 355.335938 487.332031 C 358.03125 487.332031 359.335938 485.8125 359.335938 483.023438 C 359.335938 479.746094 355.417969 477.429688 351.019531 474.632812 C 345.347656 471.121094 338.941406 466.800781 338.941406 458.976562 C 338.941406 450.667969 344.863281 442.601562 356.378906 442.59375 C 365.816406 442.59375 372.296875 449.390625 372.296875 457.691406 L 372.296875 459.933594 L 359.824219 459.933594 L 359.824219 457.457031 C 359.824219 455.144531 358.300781 453.703125 356.378906 453.703125 C 356.128906 453.695312 355.878906 453.714844 355.628906 453.761719 C 355.382812 453.804688 355.140625 453.875 354.910156 453.96875 C 354.675781 454.066406 354.453125 454.183594 354.242188 454.324219 C 354.035156 454.464844 353.84375 454.625 353.664062 454.804688 C 353.488281 454.984375 353.332031 455.179688 353.199219 455.390625 C 353.0625 455.601562 352.949219 455.828125 352.859375 456.0625 C 352.769531 456.296875 352.703125 456.539062 352.664062 456.789062 C 352.625 457.035156 352.609375 457.285156 352.621094 457.539062 C 352.621094 460.773438 356.542969 463.046875 360.941406 465.847656 C 366.609375 469.4375 373.089844 473.832031 373.089844 481.976562 C 373.097656 490.367188 367.015625 498.433594 355.984375 498.433594 Z M 401.882812 474.632812 L 401.882812 497.082031 L 387.570312 497.082031 L 387.570312 474.632812 L 375.097656 443.890625 L 389.816406 443.890625 L 395.65625 461.625 L 400.855469 443.890625 L 415.011719 443.890625 Z M 435.390625 498.433594 C 424.675781 498.433594 416.835938 491.878906 416.835938 482.058594 L 416.835938 458.890625 C 416.835938 449.058594 424.675781 442.515625 435.390625 442.515625 C 445.546875 442.515625 452.027344 448.742188 452.027344 457.925781 L 452.027344 463.921875 L 439.308594 463.921875 L 439.308594 457.851562 C 439.308594 455.773438 437.949219 454.335938 435.390625 454.34375 C 432.832031 454.351562 431.46875 455.78125 431.46875 457.851562 L 431.46875 483.09375 C 431.46875 485.171875 432.832031 486.605469 435.390625 486.605469 C 437.949219 486.605469 439.308594 485.171875 439.308594 483.085938 L 439.308594 477.011719 L 452.027344 477.011719 L 452.027344 483.003906 C 452.027344 492.203125 445.546875 498.433594 435.390625 498.433594 Z M 481.621094 497.074219 L 481.621094 477.601562 L 473.140625 477.601562 L 473.140625 497.089844 L 458.820312 497.089844 L 458.820312 443.875 L 473.140625 443.875 L 473.140625 465.464844 L 481.621094 465.464844 L 481.621094 443.875 L 495.933594 443.875 L 495.933594 497.074219 Z M 503.53125 497.074219 L 503.53125 443.875 L 534 443.875 L 534 455.457031 L 517.839844 455.457031 L 517.839844 464.804688 L 528.324219 464.804688 L 528.324219 474.867188 L 517.839844 474.867188 L 517.839844 484.769531 L 534 484.769531 L 534 497.074219 Z M 503.53125 497.074219 " fill-opacity="1" fill-rule="nonzero"/><g fill="#97252b" fill-opacity="1"><g transform="translate(232.290258, 408.348064)"><g><path d="M 68.109375 -57.1875 C 70.609375 -57.1875 72.65625 -56.375 74.25 -54.75 C 75.84375 -53.125 76.640625 -51.0625 76.640625 -48.5625 C 76.640625 -48.21875 76.582031 -47.59375 76.46875 -46.6875 C 76.007812 -43.957031 74.941406 -41.9375 73.265625 -40.625 C 71.585938 -39.3125 69.640625 -38.65625 67.421875 -38.65625 C 65.941406 -38.65625 64.6875 -38.882812 63.65625 -39.34375 C 62.632812 -39.800781 61.671875 -40.566406 60.765625 -41.640625 L 46.6875 -23.296875 L 42.75 -10.078125 C 42.644531 -9.734375 42.59375 -9.273438 42.59375 -8.703125 C 42.59375 -7.910156 42.789062 -7.242188 43.1875 -6.703125 C 43.582031 -6.160156 44.148438 -5.578125 44.890625 -4.953125 C 45.515625 -4.378906 45.96875 -3.894531 46.25 -3.5 C 46.539062 -3.101562 46.597656 -2.648438 46.421875 -2.140625 C 46.191406 -1.335938 45.632812 -0.78125 44.75 -0.46875 C 43.875 -0.15625 42.671875 0 41.140625 0 L 19.625 0 C 18.144531 0 17.050781 -0.269531 16.34375 -0.8125 C 15.632812 -1.351562 15.394531 -2.109375 15.625 -3.078125 C 15.726562 -3.585938 15.9375 -4 16.25 -4.3125 C 16.570312 -4.625 17.070312 -5.007812 17.75 -5.46875 C 18.601562 -5.976562 19.3125 -6.554688 19.875 -7.203125 C 20.445312 -7.859375 20.9375 -8.816406 21.34375 -10.078125 L 25.265625 -23.390625 L 17.40625 -45.75 C 16.84375 -47.394531 16.175781 -48.65625 15.40625 -49.53125 C 14.632812 -50.414062 13.738281 -51.285156 12.71875 -52.140625 C 12.09375 -52.597656 11.632812 -53 11.34375 -53.34375 C 11.0625 -53.6875 10.921875 -54.082031 10.921875 -54.53125 C 10.921875 -55.21875 11.21875 -55.773438 11.8125 -56.203125 C 12.414062 -56.628906 13.285156 -56.84375 14.421875 -56.84375 L 37.203125 -56.84375 C 39.203125 -56.84375 40.570312 -56.671875 41.3125 -56.328125 C 42.050781 -55.984375 42.445312 -55.382812 42.5 -54.53125 C 42.5 -54.019531 42.382812 -53.578125 42.15625 -53.203125 C 41.925781 -52.835938 41.585938 -52.398438 41.140625 -51.890625 C 40.628906 -51.203125 40.242188 -50.644531 39.984375 -50.21875 C 39.722656 -49.789062 39.59375 -49.265625 39.59375 -48.640625 C 39.59375 -48.472656 39.648438 -48.101562 39.765625 -47.53125 L 43.703125 -32.515625 L 54.53125 -47.96875 C 56.863281 -51.257812 59.066406 -53.617188 61.140625 -55.046875 C 63.222656 -56.472656 65.546875 -57.1875 68.109375 -57.1875 Z M 68.109375 -57.1875 "/></g></g></g><g fill="#97252b" fill-opacity="1"><g transform="translate(303.635366, 408.348064)"><g><path d="M 28.9375 -45.578125 C 36.15625 -45.578125 41.382812 -44.421875 44.625 -42.109375 C 47.875 -39.804688 49.5 -36.863281 49.5 -33.28125 C 49.5 -32.195312 49.382812 -31.203125 49.15625 -30.296875 C 48.300781 -26.546875 45.925781 -23.859375 42.03125 -22.234375 C 38.132812 -20.609375 33.539062 -19.796875 28.25 -19.796875 C 25.570312 -19.796875 23.066406 -19.96875 20.734375 -20.3125 C 20.679688 -17.351562 21.476562 -15.273438 23.125 -14.078125 C 24.78125 -12.890625 27.085938 -12.296875 30.046875 -12.296875 C 31.410156 -12.296875 32.71875 -12.453125 33.96875 -12.765625 C 35.21875 -13.078125 36.8125 -13.546875 38.75 -14.171875 C 40.34375 -14.734375 41.421875 -15.015625 41.984375 -15.015625 C 42.609375 -15.015625 42.921875 -14.644531 42.921875 -13.90625 C 42.984375 -11.914062 42.242188 -9.828125 40.703125 -7.640625 C 39.171875 -5.453125 36.894531 -3.585938 33.875 -2.046875 C 30.863281 -0.515625 27.222656 0.25 22.953125 0.25 C 16.640625 0.25 11.460938 -1.335938 7.421875 -4.515625 C 3.378906 -7.703125 1.359375 -12.34375 1.359375 -18.4375 C 1.359375 -20.144531 1.585938 -22.132812 2.046875 -24.40625 C 3.472656 -31.40625 6.585938 -36.679688 11.390625 -40.234375 C 16.203125 -43.796875 22.050781 -45.578125 28.9375 -45.578125 Z M 21.34375 -25.4375 C 21.5625 -25.375 21.875 -25.34375 22.28125 -25.34375 C 24.664062 -25.34375 26.484375 -26.453125 27.734375 -28.671875 C 28.984375 -30.890625 29.582031 -33.363281 29.53125 -36.09375 C 29.46875 -37.6875 29.007812 -38.484375 28.15625 -38.484375 C 27.53125 -38.484375 26.789062 -37.984375 25.9375 -36.984375 C 25.09375 -35.992188 24.253906 -34.503906 23.421875 -32.515625 C 22.597656 -30.523438 21.90625 -28.164062 21.34375 -25.4375 Z M 21.34375 -25.4375 "/></g></g></g><g fill="#97252b" fill-opacity="1"><g transform="translate(355.437593, 408.348064)"><g><path d="M 30.46875 -45.140625 C 37.007812 -45.140625 42.242188 -43.929688 46.171875 -41.515625 C 50.097656 -39.097656 52.0625 -35.414062 52.0625 -30.46875 C 52.0625 -28.59375 51.71875 -26.457031 51.03125 -24.0625 L 47.53125 -12.296875 C 47.476562 -12.066406 47.453125 -11.78125 47.453125 -11.4375 C 47.453125 -10.53125 47.820312 -10.078125 48.5625 -10.078125 C 49.238281 -10.078125 49.816406 -10.375 50.296875 -10.96875 C 50.785156 -11.5625 51.117188 -11.859375 51.296875 -11.859375 C 51.578125 -11.859375 51.816406 -11.660156 52.015625 -11.265625 C 52.210938 -10.867188 52.3125 -10.414062 52.3125 -9.90625 C 52.375 -8.363281 51.789062 -6.796875 50.5625 -5.203125 C 49.34375 -3.609375 47.707031 -2.300781 45.65625 -1.28125 C 43.613281 -0.257812 41.367188 0.25 38.921875 0.25 C 35.960938 0.25 33.425781 -0.285156 31.3125 -1.359375 C 29.207031 -2.441406 27.757812 -4.035156 26.96875 -6.140625 C 25.257812 -4.097656 23.238281 -2.519531 20.90625 -1.40625 C 18.570312 -0.300781 16.070312 0.25 13.40625 0.25 C 10.382812 0.25 7.847656 -0.332031 5.796875 -1.5 C 3.753906 -2.664062 2.234375 -4.171875 1.234375 -6.015625 C 0.242188 -7.867188 -0.25 -9.816406 -0.25 -11.859375 C -0.25 -12.773438 -0.164062 -13.660156 0 -14.515625 C 0.90625 -18.429688 2.878906 -21.382812 5.921875 -23.375 C 8.972656 -25.375 12.601562 -26.375 16.8125 -26.375 C 21.53125 -26.375 26.164062 -25.632812 30.71875 -24.15625 L 32.859375 -29.78125 C 33.597656 -32.175781 33.96875 -34.023438 33.96875 -35.328125 C 33.90625 -36.691406 33.445312 -37.710938 32.59375 -38.390625 C 31.75 -39.078125 30.441406 -39.421875 28.671875 -39.421875 C 29.015625 -38.515625 29.1875 -37.578125 29.1875 -36.609375 C 29.1875 -34.503906 28.390625 -32.679688 26.796875 -31.140625 C 25.203125 -29.609375 22.925781 -28.84375 19.96875 -28.84375 C 17.175781 -28.84375 15 -29.453125 13.4375 -30.671875 C 11.875 -31.898438 11.09375 -33.425781 11.09375 -35.25 C 11.09375 -38.09375 12.6875 -40.453125 15.875 -42.328125 C 19.0625 -44.203125 23.925781 -45.140625 30.46875 -45.140625 Z M 25.6875 -19.28125 C 24.09375 -19.28125 22.796875 -18.671875 21.796875 -17.453125 C 20.804688 -16.234375 20.3125 -14.910156 20.3125 -13.484375 C 20.3125 -12.578125 20.523438 -11.835938 20.953125 -11.265625 C 21.378906 -10.691406 21.988281 -10.40625 22.78125 -10.40625 C 23.519531 -10.40625 24.332031 -10.703125 25.21875 -11.296875 C 26.101562 -11.898438 26.742188 -12.800781 27.140625 -14 L 28.9375 -19.03125 C 27.96875 -19.195312 26.882812 -19.28125 25.6875 -19.28125 Z M 25.6875 -19.28125 "/></g></g></g><g fill="#97252b" fill-opacity="1"><g transform="translate(415.261771, 408.348064)"><g><path d="M 41.90625 -45.140625 C 45.09375 -45.140625 47.640625 -44.171875 49.546875 -42.234375 C 51.453125 -40.304688 52.40625 -37.921875 52.40625 -35.078125 C 52.40625 -33.992188 52.289062 -33 52.0625 -32.09375 C 51.488281 -29.757812 50.40625 -27.960938 48.8125 -26.703125 C 47.21875 -25.453125 45.3125 -24.828125 43.09375 -24.828125 C 40.9375 -24.828125 39.300781 -25.335938 38.1875 -26.359375 C 37.082031 -27.390625 36.101562 -28.757812 35.25 -30.46875 C 34.789062 -31.4375 34.363281 -32.144531 33.96875 -32.59375 C 33.570312 -33.050781 33.113281 -33.28125 32.59375 -33.28125 C 32.03125 -33.28125 31.535156 -33.050781 31.109375 -32.59375 C 30.679688 -32.144531 30.296875 -31.351562 29.953125 -30.21875 L 23.390625 -8.875 C 23.273438 -8.59375 23.21875 -8.164062 23.21875 -7.59375 C 23.21875 -6.851562 23.429688 -6.238281 23.859375 -5.75 C 24.285156 -5.269531 24.867188 -4.804688 25.609375 -4.359375 C 26.285156 -3.898438 26.738281 -3.523438 26.96875 -3.234375 C 27.195312 -2.953125 27.28125 -2.585938 27.21875 -2.140625 C 27.101562 -1.398438 26.691406 -0.859375 25.984375 -0.515625 C 25.273438 -0.171875 24.066406 0 22.359375 0 L 0.515625 0 C -0.960938 0 -2.03125 -0.238281 -2.6875 -0.71875 C -3.34375 -1.207031 -3.582031 -1.847656 -3.40625 -2.640625 C -3.1875 -3.328125 -2.59375 -3.925781 -1.625 -4.4375 C -0.769531 -4.894531 -0.0625 -5.4375 0.5 -6.0625 C 1.070312 -6.6875 1.5625 -7.679688 1.96875 -9.046875 L 9.5625 -33.703125 C 9.675781 -33.992188 9.734375 -34.394531 9.734375 -34.90625 C 9.734375 -35.53125 9.601562 -36.015625 9.34375 -36.359375 C 9.09375 -36.703125 8.679688 -37.128906 8.109375 -37.640625 C 7.535156 -38.085938 7.132812 -38.484375 6.90625 -38.828125 C 6.6875 -39.171875 6.660156 -39.628906 6.828125 -40.203125 C 7.171875 -41.503906 8.960938 -42.648438 12.203125 -43.640625 C 15.441406 -44.640625 18.828125 -45.140625 22.359375 -45.140625 C 24.691406 -45.140625 26.625 -44.613281 28.15625 -43.5625 C 29.695312 -42.507812 30.695312 -41.019531 31.15625 -39.09375 C 33.882812 -43.125 37.46875 -45.140625 41.90625 -45.140625 Z M 41.90625 -45.140625 "/></g></g></g><g fill="#97252b" fill-opacity="1"><g transform="translate(468.685462, 408.348064)"><g/></g></g><g fill="#97252b" fill-opacity="1"><g transform="translate(489.76522, 408.348064)"><g><path d="M 33.03125 -45.140625 C 40.769531 -45.140625 46.472656 -43.578125 50.140625 -40.453125 C 53.804688 -37.328125 55.640625 -33.226562 55.640625 -28.15625 C 55.640625 -26.457031 55.414062 -24.554688 54.96875 -22.453125 C 53.882812 -17.785156 51.863281 -13.703125 48.90625 -10.203125 C 45.945312 -6.703125 42.316406 -4 38.015625 -2.09375 C 33.722656 -0.1875 29.070312 0.765625 24.0625 0.765625 C 16.15625 0.765625 10.3125 -0.8125 6.53125 -3.96875 C 2.75 -7.125 0.859375 -11.320312 0.859375 -16.5625 C 0.859375 -18.320312 1.082031 -20.285156 1.53125 -22.453125 C 2.613281 -26.890625 4.675781 -30.828125 7.71875 -34.265625 C 10.769531 -37.703125 14.5 -40.375 18.90625 -42.28125 C 23.3125 -44.1875 28.019531 -45.140625 33.03125 -45.140625 Z M 32.765625 -37.546875 C 31.578125 -37.546875 30.3125 -36.476562 28.96875 -34.34375 C 27.632812 -32.21875 26.054688 -28.195312 24.234375 -22.28125 C 22.410156 -16.363281 21.5 -12.207031 21.5 -9.8125 C 21.5 -8.5625 21.695312 -7.722656 22.09375 -7.296875 C 22.5 -6.867188 23.039062 -6.65625 23.71875 -6.65625 C 24.914062 -6.539062 26.15625 -7.5625 27.4375 -9.71875 C 28.71875 -11.882812 30.328125 -16.097656 32.265625 -22.359375 C 34.023438 -27.878906 34.90625 -31.890625 34.90625 -34.390625 C 34.90625 -35.585938 34.71875 -36.410156 34.34375 -36.859375 C 33.976562 -37.316406 33.453125 -37.546875 32.765625 -37.546875 Z M 32.765625 -37.546875 "/></g></g></g><g fill="#97252b" fill-opacity="1"><g transform="translate(549.760111, 408.348064)"><g><path d="M 52.828125 -11.78125 C 52.710938 -11.550781 52.65625 -11.207031 52.65625 -10.75 C 52.65625 -10.351562 52.753906 -10.039062 52.953125 -9.8125 C 53.148438 -9.582031 53.421875 -9.46875 53.765625 -9.46875 C 54.453125 -9.46875 55.035156 -9.765625 55.515625 -10.359375 C 55.992188 -10.960938 56.320312 -11.265625 56.5 -11.265625 C 56.78125 -11.265625 57.003906 -11.078125 57.171875 -10.703125 C 57.347656 -10.335938 57.4375 -9.898438 57.4375 -9.390625 C 57.488281 -7.734375 56.945312 -6.125 55.8125 -4.5625 C 54.675781 -3 53.007812 -1.71875 50.8125 -0.71875 C 48.625 0.269531 45.992188 0.765625 42.921875 0.765625 C 39.171875 0.765625 36.1875 -0.0976562 33.96875 -1.828125 C 31.75 -3.566406 30.609375 -5.890625 30.546875 -8.796875 C 30.546875 -10.898438 31.0625 -13.257812 32.09375 -15.875 L 36.78125 -28.15625 C 37.0625 -28.894531 37.203125 -29.492188 37.203125 -29.953125 C 37.203125 -30.691406 36.960938 -31.273438 36.484375 -31.703125 C 36.003906 -32.128906 35.421875 -32.34375 34.734375 -32.34375 C 33.484375 -32.34375 32.285156 -31.757812 31.140625 -30.59375 C 30.003906 -29.425781 29.179688 -27.988281 28.671875 -26.28125 L 23.390625 -8.875 C 23.160156 -8.25 23.046875 -7.648438 23.046875 -7.078125 C 23.046875 -6.398438 23.1875 -5.847656 23.46875 -5.421875 C 23.75 -4.992188 24.148438 -4.550781 24.671875 -4.09375 C 25.066406 -3.75 25.347656 -3.4375 25.515625 -3.15625 C 25.691406 -2.875 25.722656 -2.535156 25.609375 -2.140625 C 25.378906 -1.398438 24.835938 -0.859375 23.984375 -0.515625 C 23.128906 -0.171875 21.789062 0 19.96875 0 L 0.515625 0 C -0.960938 0 -2.03125 -0.238281 -2.6875 -0.71875 C -3.34375 -1.207031 -3.582031 -1.847656 -3.40625 -2.640625 C -3.1875 -3.328125 -2.59375 -3.925781 -1.625 -4.4375 C -0.769531 -4.894531 -0.0625 -5.4375 0.5 -6.0625 C 1.070312 -6.6875 1.5625 -7.679688 1.96875 -9.046875 L 9.5625 -33.703125 C 9.675781 -33.992188 9.734375 -34.394531 9.734375 -34.90625 C 9.734375 -35.53125 9.601562 -36.015625 9.34375 -36.359375 C 9.09375 -36.703125 8.679688 -37.128906 8.109375 -37.640625 C 7.535156 -38.085938 7.132812 -38.484375 6.90625 -38.828125 C 6.6875 -39.171875 6.660156 -39.628906 6.828125 -40.203125 C 7.171875 -41.503906 8.960938 -42.648438 12.203125 -43.640625 C 15.441406 -44.640625 18.828125 -45.140625 22.359375 -45.140625 C 25.203125 -45.140625 27.445312 -44.359375 29.09375 -42.796875 C 30.75 -41.234375 31.492188 -39.054688 31.328125 -36.265625 C 33.648438 -39.628906 36.117188 -41.945312 38.734375 -43.21875 C 41.359375 -44.5 44.207031 -45.140625 47.28125 -45.140625 C 50.75 -45.140625 53.550781 -44.085938 55.6875 -41.984375 C 57.820312 -39.878906 58.890625 -37.148438 58.890625 -33.796875 C 58.890625 -32.035156 58.601562 -30.300781 58.03125 -28.59375 Z M 52.828125 -11.78125 "/></g></g></g></svg>