<svg xmlns="http://www.w3.org/2000/svg" viewBox="0 0 40 40">
  <defs>
    <style>
      .cls-1{fill:#fff;}
    </style>
  </defs>
  <g id="Layer_2" data-name="Layer 2">
    <path id="Layer_1-2" d="M20 0a20 20 0 1 0 20 20A20 20 0 0 0 20 0zm8.14 16.38v.51a11.2 11.2 0 0 1-17.24 9.44 7.75 7.75 0 0 0 .94.05 7.89 7.89 0 0 0 4.89-1.69A4 4 0 0 1 13.05 22a4.1 4.1 0 0 0 .74.07 4 4 0 0 0 1-.14A3.94 3.94 0 0 1 11.67 18a4 4 0 0 0 1.79.49 3.95 3.95 0 0 1-1.22-5.26 11.2 11.2 0 0 0 8.12 4.12 3.88 3.88 0 0 1-.1-.9 3.94 3.94 0 0 1 6.81-2.69 7.91 7.91 0 0 0 2.5-1A4 4 0 0 1 27.84 15a7.91 7.91 0 0 0 2.26-.62 8 8 0 0 1-1.96 2z" class="cls-1" data-name="Layer 1"/>
  </g>
</svg>
